<svg xmlns="http://www.w3.org/2000/svg" xmlns:xlink="http://www.w3.org/1999/xlink" viewBox="0 0 500 500"><defs><style>.cls-1{fill:none;}.cls-2{isolation:isolate;}.cls-3{fill:#ffd9d9;}.cls-4{mix-blend-mode:multiply;}.cls-5{fill:#ffabab;}.cls-6{fill:#fff;}.cls-7{fill:#606060;}.cls-8{fill:#ededed;}.cls-9{fill:#e0e0e0;}.cls-10{fill:#c60104;}.cls-11{clip-path:url(#clip-path);}.cls-12{clip-path:url(#clip-path-2);}.cls-13{clip-path:url(#clip-path-3);}.cls-14{fill:#f7d43f;}</style><clipPath id="clip-path"><circle class="cls-1" cx="364.95" cy="239.75" r="45.5"/></clipPath><clipPath id="clip-path-2"><circle class="cls-1" cx="250.95" cy="239.75" r="45.5"/></clipPath><clipPath id="clip-path-3"><circle class="cls-1" cx="136.95" cy="239.75" r="45.5"/></clipPath></defs><title>howitworks-02</title><g class="cls-2"><g id="Layer_1" data-name="Layer 1"><circle class="cls-3" cx="250" cy="250" r="249"/><g class="cls-4"><path class="cls-5" d="M98.86,139.25H450a5.06,5.06,0,0,1,5.06,5.06V415.25a0,0,0,0,1,0,0H93.8a0,0,0,0,1,0,0V144.31A5.06,5.06,0,0,1,98.86,139.25Z"/></g><path class="cls-6" d="M75.36,112.25H426.54a5.06,5.06,0,0,1,5.06,5.06V388.25a0,0,0,0,1,0,0H70.3a0,0,0,0,1,0,0V117.31A5.06,5.06,0,0,1,75.36,112.25Z"/><path class="cls-7" d="M435.6,392.25H66.3V117.31a9.06,9.06,0,0,1,9.06-9.06H426.54a9.06,9.06,0,0,1,9.06,9.06Zm-361.3-8H427.6V117.31a1.07,1.07,0,0,0-1.06-1.06H75.36a1.07,1.07,0,0,0-1.06,1.06Z"/><rect class="cls-8" x="310.89" y="157.25" width="108" height="213"/><path class="cls-7" d="M81.66,111.75H421.18A10.21,10.21,0,0,1,431.39,122v18.79a0,0,0,0,1,0,0h-363a0,0,0,0,1,0,0V125A13.26,13.26,0,0,1,81.66,111.75Z"/><circle class="cls-9" cx="364.95" cy="239.75" r="45.5"/><path class="cls-10" d="M365,286.75a47,47,0,1,1,47-47A47,47,0,0,1,365,286.75Zm0-91a44,44,0,1,0,44,44A44.05,44.05,0,0,0,365,195.75Z"/><g class="cls-11"><path class="cls-10" d="M394.71,243.25c0-16.89-13.35-30.63-29.76-30.63s-29.76,13.74-29.76,30.63a28.08,28.08,0,0,0,13,24.05,25.54,25.54,0,0,0-8.77,15.94,5.59,5.59,0,0,0,5.55,6.38h39.91a5.59,5.59,0,0,0,5.54-6.38,25.54,25.54,0,0,0-8.77-15.94A28.08,28.08,0,0,0,394.71,243.25Z"/><path class="cls-6" d="M375.39,264.44a2.74,2.74,0,0,0-.29,4.88A20.47,20.47,0,0,1,385,284s0,10.82-.06,10.87-.06-10.73-.07-10.73H345s-1.11,18.65-1.15,18.6,1-18.72,1-18.74a20.47,20.47,0,0,1,9.94-14.69,2.71,2.71,0,0,0,1.36-2.53,2.74,2.74,0,0,0-1.65-2.35,22.39,22.39,0,0,1-13.85-21.19c0-13.87,10.9-25.15,24.29-25.15s24.29,11.28,24.29,25.15A22.39,22.39,0,0,1,375.39,264.44Z"/><polygon class="cls-6" points="361.35 274.75 350.85 284.81 355.23 301.88 370.1 301.88 372.73 298.38 380.6 290.5 382.35 287 370.98 274.75 361.35 274.75"/></g><path class="cls-10" d="M365,287.25a47.5,47.5,0,1,1,47.5-47.5A47.56,47.56,0,0,1,365,287.25Zm0-91a43.5,43.5,0,1,0,43.5,43.5A43.54,43.54,0,0,0,365,196.25Z"/><circle class="cls-9" cx="250.95" cy="239.75" r="45.5"/><path class="cls-7" d="M251,286.75a47,47,0,1,1,47-47A47,47,0,0,1,251,286.75Zm0-91a44,44,0,1,0,44,44A44.05,44.05,0,0,0,251,195.75Z"/><g class="cls-12"><path class="cls-7" d="M280.71,243.25c0-16.89-13.35-30.63-29.76-30.63s-29.76,13.74-29.76,30.63a28.08,28.08,0,0,0,13,24.05,25.54,25.54,0,0,0-8.77,15.94,5.59,5.59,0,0,0,5.55,6.38h39.91a5.59,5.59,0,0,0,5.54-6.38,25.54,25.54,0,0,0-8.77-15.94A28.08,28.08,0,0,0,280.71,243.25Z"/><path class="cls-6" d="M261.39,264.44a2.74,2.74,0,0,0-.29,4.88A20.47,20.47,0,0,1,271,284s0,10.82-.06,10.87-.06-10.73-.07-10.73H231s-1.11,18.65-1.15,18.6,1-18.72,1-18.74a20.47,20.47,0,0,1,9.94-14.69,2.71,2.71,0,0,0,1.36-2.53,2.74,2.74,0,0,0-1.65-2.35,22.39,22.39,0,0,1-13.85-21.19c0-13.87,10.9-25.15,24.29-25.15s24.29,11.28,24.29,25.15A22.39,22.39,0,0,1,261.39,264.44Z"/><polygon class="cls-6" points="247.35 274.75 236.85 284.81 241.23 301.88 256.1 301.88 258.73 298.38 266.6 290.5 268.35 287 256.98 274.75 247.35 274.75"/></g><path class="cls-7" d="M251,287.75a48,48,0,1,1,48-48A48.05,48.05,0,0,1,251,287.75Zm0-91a43,43,0,1,0,43,43A43,43,0,0,0,251,196.75Z"/><circle class="cls-9" cx="136.95" cy="239.75" r="45.5"/><path class="cls-10" d="M137,286.75a47,47,0,1,1,47-47A47,47,0,0,1,137,286.75Zm0-91a44,44,0,1,0,44,44A44.05,44.05,0,0,0,137,195.75Z"/><g class="cls-13"><path class="cls-7" d="M166.71,243.25c0-16.89-13.35-30.63-29.76-30.63s-29.76,13.74-29.76,30.63a28.08,28.08,0,0,0,13,24.05,25.54,25.54,0,0,0-8.77,15.94,5.59,5.59,0,0,0,5.55,6.38h39.91a5.59,5.59,0,0,0,5.54-6.38,25.54,25.54,0,0,0-8.77-15.94A28.08,28.08,0,0,0,166.71,243.25Z"/><path class="cls-6" d="M147.39,264.44a2.74,2.74,0,0,0-.29,4.88A20.47,20.47,0,0,1,157,284s0,10.82-.06,10.87-.06-10.73-.07-10.73H117s-1.11,18.65-1.15,18.6,1-18.72,1-18.74a20.47,20.47,0,0,1,9.94-14.69,2.71,2.71,0,0,0,1.36-2.53,2.74,2.74,0,0,0-1.65-2.35,22.39,22.39,0,0,1-13.85-21.19c0-13.87,10.9-25.15,24.29-25.15s24.29,11.28,24.29,25.15A22.39,22.39,0,0,1,147.39,264.44Z"/><polygon class="cls-6" points="133.35 274.75 122.85 284.81 127.23 301.88 142.1 301.88 144.73 298.38 152.6 290.5 154.35 287 142.98 274.75 133.35 274.75"/></g><path class="cls-7" d="M137,287.75a48,48,0,1,1,48-48A48.05,48.05,0,0,1,137,287.75Zm0-91a43,43,0,1,0,43,43A43,43,0,0,0,137,196.75Z"/><rect class="cls-10" x="329.89" y="333.25" width="69" height="20" rx="10" ry="10"/><path class="cls-10" d="M274.9,355.25h-49a12,12,0,1,1,0-24h49a12,12,0,0,1,0,24Zm-49-20a8,8,0,1,0,0,16h49a8,8,0,0,0,0-16Z"/><path class="cls-10" d="M160.9,355.25h-49a12,12,0,1,1,0-24h49a12,12,0,0,1,0,24Zm-49-20a8,8,0,1,0,0,16h49a8,8,0,0,0,0-16Z"/><polygon class="cls-14" points="111.74 303.53 113.43 306.96 117.21 307.51 114.47 310.17 115.12 313.94 111.74 312.16 108.36 313.94 109 310.17 106.27 307.51 110.05 306.96 111.74 303.53"/><polygon class="cls-14" points="135.08 303.53 136.77 306.96 140.55 307.51 137.82 310.17 138.46 313.94 135.08 312.16 131.7 313.94 132.34 310.17 129.61 307.51 133.39 306.96 135.08 303.53"/><polygon class="cls-14" points="146.75 303.53 148.44 306.96 152.22 307.51 149.49 310.17 150.13 313.94 146.75 312.16 143.37 313.94 144.02 310.17 141.28 307.51 145.06 306.96 146.75 303.53"/><polygon class="cls-14" points="123.41 303.53 125.1 306.96 128.88 307.51 126.15 310.17 126.79 313.94 123.41 312.16 120.03 313.94 120.67 310.17 117.94 307.51 121.72 306.96 123.41 303.53"/><polygon class="cls-9" points="158.42 303.53 160.11 306.96 163.9 307.51 161.16 310.17 161.81 313.94 158.42 312.16 155.04 313.94 155.69 310.17 152.95 307.51 156.73 306.96 158.42 303.53"/><polygon class="cls-14" points="225.74 303.53 227.43 306.96 231.21 307.51 228.47 310.17 229.12 313.94 225.74 312.16 222.36 313.94 223 310.17 220.27 307.51 224.05 306.96 225.74 303.53"/><polygon class="cls-14" points="249.08 303.53 250.77 306.96 254.55 307.51 251.82 310.17 252.46 313.94 249.08 312.16 245.7 313.94 246.34 310.17 243.61 307.51 247.39 306.96 249.08 303.53"/><polygon class="cls-14" points="260.75 303.53 262.44 306.96 266.22 307.51 263.49 310.17 264.13 313.94 260.75 312.16 257.37 313.94 258.02 310.17 255.28 307.51 259.06 306.96 260.75 303.53"/><polygon class="cls-14" points="237.41 303.53 239.1 306.96 242.88 307.51 240.15 310.17 240.79 313.94 237.41 312.16 234.03 313.94 234.67 310.17 231.94 307.51 235.72 306.96 237.41 303.53"/><polygon class="cls-9" points="272.42 303.53 274.11 306.96 277.89 307.51 275.16 310.17 275.81 313.94 272.42 312.16 269.04 313.94 269.69 310.17 266.95 307.51 270.73 306.96 272.42 303.53"/><polygon class="cls-14" points="339.78 303.35 341.44 306.79 345.22 307.37 342.46 310.02 343.08 313.79 339.71 311.98 336.32 313.74 336.99 309.98 334.28 307.29 338.06 306.77 339.78 303.35"/><polygon class="cls-14" points="363.12 303.53 364.79 306.97 368.56 307.55 365.81 310.19 366.42 313.96 363.06 312.16 359.66 313.91 360.33 310.15 357.62 307.46 361.4 306.94 363.12 303.53"/><polygon class="cls-14" points="374.79 303.62 376.46 307.06 380.23 307.64 377.48 310.28 378.09 314.06 374.73 312.25 371.33 314 372 310.24 369.29 307.55 373.07 307.03 374.79 303.62"/><polygon class="cls-14" points="351.45 303.44 353.12 306.88 356.89 307.46 354.13 310.11 354.75 313.88 351.38 312.07 347.99 313.82 348.66 310.06 345.95 307.38 349.73 306.86 351.45 303.44"/><polygon class="cls-14" points="386.46 303.71 388.13 307.15 391.9 307.73 389.15 310.37 389.76 314.14 386.4 312.34 383 314.09 383.68 310.33 380.96 307.64 384.75 307.12 386.46 303.71"/><circle class="cls-8" cx="85.39" cy="126.75" r="8.5"/><circle class="cls-8" cx="109.39" cy="126.75" r="8.5"/><polygon class="cls-6" points="391 380 388.75 384.5 387 389 388.75 402.25 411 416 413 417 418 420 449 405 444 391 428.75 359.5 423 358 423 365 417 361.75 413 360 411 365 405 362 400.5 364 399 367 387 347 381 345 378 350 382 359 391 380"/><path class="cls-7" d="M427.74,358a6.12,6.12,0,0,0-7.4,3.11,6.89,6.89,0,0,0-10.73,2.11,6.91,6.91,0,0,0-8.23-1.5,6.84,6.84,0,0,0-2.91,2.82l-8.58-16.82a6.89,6.89,0,1,0-12.28,6.26l13.27,26a9.56,9.56,0,0,0-1.56.62A6.22,6.22,0,0,0,386.6,389a6.15,6.15,0,0,0,.44.73,4.94,4.94,0,0,1,.74,4l-.74,3.08a7.72,7.72,0,0,0,2.77,7.87L401,413.32a13.1,13.1,0,0,0,6.52,2.67,26.71,26.71,0,0,0,3.39.21,3.1,3.1,0,0,1,1.68.43,3.15,3.15,0,0,1,1.18,1.25l2.51,4.92a1.51,1.51,0,0,0,2,.66l32-16.31a1.5,1.5,0,0,0,.66-2,35.38,35.38,0,0,1-3.25-9.52,27.57,27.57,0,0,0-2.53-7.4L431.33,361a6.16,6.16,0,0,0-3.59-3.07Zm17,38.2a38.15,38.15,0,0,0,2.87,9L418.3,420.08l-1.82-3.57a6.07,6.07,0,0,0-5.64-3.33,22.3,22.3,0,0,1-3-.2,10,10,0,0,1-5-2l-11.22-8.72a4.71,4.71,0,0,1-1.68-4.79l.74-3.08a8,8,0,0,0-1.2-6.4,3,3,0,0,1-.23-.38,3.18,3.18,0,0,1,1.4-4.28,6.57,6.57,0,0,1,1.59-.57l7.17,14a1.51,1.51,0,1,0,2.69-1.37L380.3,352.57a3.89,3.89,0,0,1,1.69-5.21,3.88,3.88,0,0,1,5.21,1.69l14.37,28.18a1.51,1.51,0,1,0,2.69-1.37L401,369.54a3.87,3.87,0,0,1,6.92-3.48l1.68,3.31a1.51,1.51,0,1,0,2.69-1.37,3.87,3.87,0,0,1,6.9-3.52l1.15,2.25a1.51,1.51,0,1,0,2.69-1.37,3.23,3.23,0,0,1,1.29-4.31,3.16,3.16,0,0,1,4.28,1.35l13.85,27.17h0a24.82,24.82,0,0,1,2.25,6.59Zm0,0"/></g></g></svg>