<svg xmlns="http://www.w3.org/2000/svg" viewBox="0 0 500 500"><defs><style>.cls-1{isolation:isolate;}.cls-2{fill:#ffd9d9;}.cls-3{mix-blend-mode:multiply;}.cls-4{fill:#ffabab;}.cls-5{fill:#fff;}.cls-6{fill:#d1d1d1;}.cls-7{fill:#606060;}.cls-8{fill:#f7d43f;}.cls-9{fill:#ededed;}.cls-10{fill:#c60104;}</style></defs><title>howitworks-01</title><g class="cls-1"><g id="Layer_1" data-name="Layer 1"><circle class="cls-2" cx="250" cy="250" r="249"/><g class="cls-3"><rect class="cls-4" x="77.77" y="169.23" width="311.06" height="204.59" transform="translate(504.82 38.23) rotate(90)"/></g><g class="cls-3"><path class="cls-4" d="M399.58,150.51a4.15,4.15,0,0,0-7.68,0l-19,48.43h4.41l-1.58,4h1.67V349.25a19.2,19.2,0,0,0,19.2,19.19,18.3,18.3,0,0,0,18.3-18.3V194.94Z"/></g><polygon class="cls-5" points="376.88 135 356.83 186 396.92 186 376.88 135"/><rect class="cls-6" x="358.5" y="186" width="37.5" height="137.66"/><path class="cls-7" d="M400,327.66H354.5V182H400Zm-37.5-8H392V190H362.5Z"/><path class="cls-8" d="M358.5,321H396a0,0,0,0,1,0,0V333.2a18.3,18.3,0,0,1-18.3,18.3h0a19.2,19.2,0,0,1-19.2-19.2V321a0,0,0,0,1,0,0Z"/><path class="cls-7" d="M377.7,355.5a23.23,23.23,0,0,1-23.2-23.2V317H400V333.2A22.32,22.32,0,0,1,377.7,355.5ZM362.5,325v7.35a15.22,15.22,0,0,0,15.2,15.2A14.32,14.32,0,0,0,392,333.2V325Z"/><rect class="cls-5" x="358.5" y="302" width="37.5" height="19"/><path class="cls-7" d="M400,325H354.5V298H400Zm-37.5-8H392V306H362.5Z"/><path class="cls-7" d="M362.81,182l14.07-35.8L391,182h8.8l-19-48.43a4.15,4.15,0,0,0-7.68,0L354,182Z"/><polygon class="cls-7" points="382.67 157 367.33 157 375 141.33 382.67 157"/><path class="cls-9" d="M372,190h11a0,0,0,0,1,0,0v92.5a5.5,5.5,0,0,1-5.5,5.5h0a5.5,5.5,0,0,1-5.5-5.5V190A0,0,0,0,1,372,190Z"/><rect class="cls-5" x="51.77" y="145.23" width="311.06" height="204.59" transform="translate(454.82 40.23) rotate(90)"/><path class="cls-7" d="M313.59,407.06H101V88H313.59Zm-204.59-8H305.59V96H109Z"/><path class="cls-7" d="M151.32,258.64c0,4.86-2.67,6.73-7,6.73a8.74,8.74,0,0,1-4.71-1.15l.86-4a3.56,3.56,0,0,0,2.27.72c1.51,0,2.45-.76,2.45-2.88V239.63h6.12Zm.5-24c0,2-1.12,2.92-3.6,2.92s-3.53-.94-3.53-2.92,1.08-2.95,3.53-2.95S151.82,232.65,151.82,234.63Z"/><path class="cls-7" d="M173.78,248.63c0,5.91-3.49,9.36-9.51,9.36s-9.5-3.45-9.5-9.36,3.49-9.36,9.5-9.36S173.78,242.73,173.78,248.63Zm-12.89,0c0,3.53,1.12,5,3.38,5s3.39-1.48,3.39-5-1.12-5-3.39-5S160.89,245.11,160.89,248.63Z"/><path class="cls-7" d="M196.28,248.71c0,5.86-2.74,9.28-7.42,9.28a6.26,6.26,0,0,1-6-4.17l-.18,3.81h-5.36V232h6.12v10.66a5.7,5.7,0,0,1,5.43-3.39C193.47,239.27,196.28,242.73,196.28,248.71Zm-6.16-.08c0-3.38-1.29-4.86-3.38-4.86s-3.31,1.7-3.31,4.68v.36c0,3.1,1.26,4.68,3.31,4.68S190.12,252,190.12,248.63Z"/><path class="cls-7" d="M209.71,234.63c0-2,1.08-2.95,3.56-2.95s3.56.9,3.56,2.95-1.08,2.92-3.56,2.92S209.71,236.65,209.71,234.63Zm6.62,23h-6.12v-18h6.12Z"/><path class="cls-7" d="M238.72,245.65v12H232.6V247.34c0-2.56-1-3.39-2.56-3.39-1.76,0-3.23,1.19-3.23,4.18v9.5h-6.12v-18h5.47l.18,3.46a6.3,6.3,0,0,1,6.15-3.82C236.2,239.27,238.72,241.47,238.72,245.65Z"/><path class="cls-7" d="M249.88,239.63h5.47V244h-5.11v13.64h-6.12V244h-2.88v-4.36h2.88V238c0-4.54,3.21-6.48,7.27-6.48a6.92,6.92,0,0,1,4.14,1l-.61,3.82a3.13,3.13,0,0,0-2-.58c-1.87,0-3,.72-3,2.59Z"/><path class="cls-7" d="M275.76,248.63c0,5.91-3.49,9.36-9.5,9.36s-9.5-3.45-9.5-9.36,3.49-9.36,9.5-9.36S275.76,242.73,275.76,248.63Zm-12.88,0c0,3.53,1.11,5,3.38,5s3.38-1.48,3.38-5-1.11-5-3.38-5S262.88,245.11,262.88,248.63Z"/><polygon class="cls-6" points="185.5 159.5 186 167 194 168 195 183 220 184 220 179 222 169 230 167 230 159 212 159 185.5 159.5"/><polygon class="cls-10" points="168 157 168 171 163 173 158.17 170.5 159 164 160 156 164 153 167 155 168 157"/><polygon class="cls-10" points="257 157 257 171 252 173 247.17 170.5 248 164 249 156 253 153 256 155 257 157"/><path class="cls-7" d="M280.1,144.71H254.44v-2.46a2.18,2.18,0,1,0-4.35,0v2.46H224.43a2.18,2.18,0,0,0,0,4.35h25.66v3a6.82,6.82,0,0,0-4.63,6.46V161H233.21a6.83,6.83,0,0,0-6.46-4.64H189.64a6.82,6.82,0,0,0-6.45,4.64H170.94v-2.46A6.83,6.83,0,0,0,166.3,152v-3H192a2.18,2.18,0,1,0,0-4.35H166.3v-2.46a2.18,2.18,0,1,0-4.35,0v2.46H136.29a2.18,2.18,0,0,0,0,4.35H162v3a6.83,6.83,0,0,0-4.64,6.46v9.27a6.82,6.82,0,1,0,13.63,0V165.3h12.25a6.82,6.82,0,0,0,6.45,4.64h2.47v7.27a9.13,9.13,0,0,0-8.22,6.89L178.66,205h-2.94a2.18,2.18,0,0,0,0,4.35H185a2.18,2.18,0,1,0,0-4.35h-1.85l5-19.86a4.77,4.77,0,0,1,4.36-3.61,6.81,6.81,0,0,0,6.45,4.62h18.56a6.82,6.82,0,0,0,6.45-4.62,4.77,4.77,0,0,1,4.35,3.61l5,19.86h-1.86a2.18,2.18,0,0,0,0,4.35h9.28a2.18,2.18,0,1,0,0-4.35h-2.94L232.5,184.1a9.11,9.11,0,0,0-8.21-6.89v-7.27h2.46a6.83,6.83,0,0,0,6.46-4.64h12.25v2.46a6.81,6.81,0,1,0,13.62,0v-9.27a6.82,6.82,0,0,0-4.64-6.46v-3H280.1a2.18,2.18,0,1,0,0-4.35Zm-113.51,23a2.47,2.47,0,1,1-4.93,0v-9.27a2.47,2.47,0,1,1,4.93,0Zm60.16-2.17h-9.27a2.18,2.18,0,1,0,0,4.35h2.46v9.42a2.47,2.47,0,0,1-2.46,2.47H198.92a2.48,2.48,0,0,1-2.47-2.47v-9.42H208.2a2.18,2.18,0,0,0,0-4.35H189.64a2.47,2.47,0,0,1,0-4.93h37.11a2.47,2.47,0,1,1,0,4.93Zm28,2.17a2.47,2.47,0,1,1-4.93,0v-9.27a2.47,2.47,0,1,1,4.93,0Z"/><rect class="cls-7" x="136.35" y="294.43" width="143.46" height="5"/><rect class="cls-7" x="137.54" y="318.29" width="143.46" height="5"/><rect class="cls-7" x="137.54" y="342.16" width="143.46" height="5"/></g></g></svg>