<svg xmlns="http://www.w3.org/2000/svg" viewBox="0 0 500 500"><defs><style>.cls-1{isolation:isolate;}.cls-2{fill:#ffd9d9;}.cls-3{fill:#ffabab;opacity:0.5;mix-blend-mode:multiply;}.cls-4{fill:#fff;}.cls-5,.cls-9{fill:#606060;}.cls-6{fill:#ededed;}.cls-7{fill:#f7d43f;}.cls-8{fill:#d1d1d1;}.cls-9{stroke:#606060;stroke-miterlimit:10;}</style></defs><title>dronework-howitworks02</title><g class="cls-1"><g id="Layer_1" data-name="Layer 1"><circle class="cls-2" cx="250" cy="250" r="249"/><rect class="cls-3" x="174.6" y="98" width="285.8" height="241.5" rx="5.56"/><rect class="cls-4" x="162.66" y="87.06" width="274.68" height="230.38"/><path class="cls-5" d="M437.34,323H162.66a5.56,5.56,0,0,1-5.56-5.56V87.06a5.56,5.56,0,0,1,5.56-5.56H437.34a5.56,5.56,0,0,1,5.56,5.56V317.44A5.56,5.56,0,0,1,437.34,323ZM168.22,311.88H431.78V92.62H168.22Z"/><rect class="cls-6" x="186.58" y="113.64" width="226.83" height="178.99"/><path class="cls-5" d="M414.34,108.33H185.66a4.08,4.08,0,0,0-4.09,4.08V292.09a4.08,4.08,0,0,0,4.09,4.08H414.34a4.08,4.08,0,0,0,4.09-4.08V112.41A4.08,4.08,0,0,0,414.34,108.33ZM410.26,288H189.74V116.49H410.26Z"/><circle class="cls-7" cx="227.35" cy="172.19" r="13.57"/><path class="cls-5" d="M227.41,189.85A17.42,17.42,0,1,0,210,172.43,17.44,17.44,0,0,0,227.41,189.85Zm0-28.58a11.16,11.16,0,1,1-11.16,11.16A11.18,11.18,0,0,1,227.41,161.27Z"/><path class="cls-5" d="M196.8,279.62a2.77,2.77,0,0,0,1.84-.7l45.46-40,28.72,28.71a2.79,2.79,0,0,0,3.94-3.94l-13.4-13.4,25.59-28L320.34,251a2.79,2.79,0,1,0,3.77-4.11l-33.45-30.66a2.87,2.87,0,0,0-2-.73,2.76,2.76,0,0,0-1.93.91l-27.3,29.9L246.2,233.1a2.8,2.8,0,0,0-3.82-.13L195,274.74a2.79,2.79,0,0,0,1.85,4.88Z"/><path class="cls-5" d="M287.18,283.16a2.81,2.81,0,0,0,1.84-.69l45.46-40,28.72,28.71a2.79,2.79,0,0,0,3.94-3.94l-13.4-13.4,25.59-28,31.39,28.78a2.79,2.79,0,1,0,3.76-4.11L381,219.79a2.87,2.87,0,0,0-2-.73,2.77,2.77,0,0,0-1.93.9l-27.3,29.9-13.22-13.22a2.8,2.8,0,0,0-3.82-.12l-47.43,41.76a2.79,2.79,0,0,0,1.85,4.88Z"/><path class="cls-5" d="M384.55,129.76H372.27v-.09a4.47,4.47,0,1,0-8.94,0v.09H351.05a1.43,1.43,0,0,0,0,2.86H361.8v1.71H312.87v-1.71h10.76a1.43,1.43,0,1,0,0-2.86H311.35v-.09a4.48,4.48,0,1,0-9,0v.09H290.12a1.43,1.43,0,1,0,0,2.86h10.76v1.62a6,6,0,0,0,11.21,2.95h9l1.33,4a7.5,7.5,0,0,0,7.13,5.15h.28v4.76h-.1a9.07,9.07,0,0,0-7.75,4.39l-2.35,3.91a1.4,1.4,0,0,0,0,1.44,1.43,1.43,0,0,0,1.24.73h33a1.43,1.43,0,0,0,1.23-2.17l-2.35-3.91a9.1,9.1,0,0,0-7.76-4.39h-.09v-4.76h.27a7.53,7.53,0,0,0,7.14-5.15l1.33-4h9a6,6,0,0,0,11.22-2.95v-1.62h10.75a1.43,1.43,0,0,0,0-2.86Zm-79.29-.09a1.62,1.62,0,1,1,3.23,0v.09h-3.23Zm1.62,7.71a3.15,3.15,0,0,1-3.15-3.14v-1.62H310v1.62A3.15,3.15,0,0,1,306.88,137.38ZM350.26,157l1.05,1.75H323.36l1.06-1.75a6.2,6.2,0,0,1,5.3-3H345A6.21,6.21,0,0,1,350.26,157ZM342,151.09h-9.33v-4.76H342Zm7.56-10.81a4.67,4.67,0,0,1-4.43,3.19H329.54a4.64,4.64,0,0,1-4.42-3.19l-1-3.09h26.5Zm16.62-10.61a1.62,1.62,0,0,1,3.24,0v.09h-3.24Zm4.76,4.57a3.14,3.14,0,0,1-6.28,0v-1.62h6.28Z"/><path class="cls-5" d="M337.34,181.45a1.53,1.53,0,1,0,1.52,1.53A1.54,1.54,0,0,0,337.34,181.45Z"/><path class="cls-5" d="M337.34,169.27a1.52,1.52,0,1,0,1.52,1.52A1.53,1.53,0,0,0,337.34,169.27Z"/><path class="cls-5" d="M337.34,163.17a1.53,1.53,0,1,0,1.52,1.53A1.54,1.54,0,0,0,337.34,163.17Z"/><path class="cls-5" d="M337.34,187.54a1.53,1.53,0,1,0,1.52,1.53A1.54,1.54,0,0,0,337.34,187.54Z"/><path class="cls-5" d="M337.34,175.36a1.53,1.53,0,1,0,1.52,1.52A1.53,1.53,0,0,0,337.34,175.36Z"/><path class="cls-5" d="M337.34,211.91a1.53,1.53,0,1,0,1.52,1.53A1.54,1.54,0,0,0,337.34,211.91Z"/><path class="cls-5" d="M337.34,193.64a1.52,1.52,0,1,0,1.52,1.52A1.53,1.53,0,0,0,337.34,193.64Z"/><path class="cls-5" d="M337.34,199.73a1.53,1.53,0,1,0,1.52,1.52A1.53,1.53,0,0,0,337.34,199.73Z"/><path class="cls-5" d="M337.34,205.82a1.53,1.53,0,1,0,1.52,1.52A1.53,1.53,0,0,0,337.34,205.82Z"/><path class="cls-5" d="M350.33,163.37a1.53,1.53,0,0,0-.55,2.09,1.49,1.49,0,0,0,1.31.76,1.47,1.47,0,0,0,.76-.2,1.53,1.53,0,0,0,.57-2.08A1.55,1.55,0,0,0,350.33,163.37Z"/><path class="cls-5" d="M354.14,171.49a1.47,1.47,0,0,0,.76-.2,1.52,1.52,0,1,0-1.52-2.63,1.49,1.49,0,0,0-.55,2.07A1.47,1.47,0,0,0,354.14,171.49Z"/><path class="cls-5" d="M370.69,195.59a1.52,1.52,0,0,0-2.08-.55,1.52,1.52,0,0,0,.76,2.83,1.47,1.47,0,0,0,.76-.2A1.51,1.51,0,0,0,370.69,195.59Z"/><path class="cls-5" d="M360.24,182.05a1.52,1.52,0,1,0-.77-2.84,1.53,1.53,0,0,0,.77,2.84Z"/><path class="cls-5" d="M367.65,190.32a1.52,1.52,0,0,0-2.09-.55,1.52,1.52,0,0,0,.76,2.83,1.47,1.47,0,0,0,.76-.2A1.53,1.53,0,0,0,367.65,190.32Z"/><path class="cls-5" d="M364.6,185.05a1.54,1.54,0,0,0-2.09-.57,1.52,1.52,0,0,0-.54,2.09,1.52,1.52,0,0,0,2.63-1.52Z"/><path class="cls-5" d="M373.74,200.87a1.52,1.52,0,1,0-1.31,2.29,1.48,1.48,0,0,0,.75-.2A1.53,1.53,0,0,0,373.74,200.87Z"/><path class="cls-5" d="M374.7,205.59a1.5,1.5,0,0,0-.55,2.07,1.51,1.51,0,0,0,1.33.77,1.45,1.45,0,0,0,.74-.2,1.52,1.52,0,1,0-1.52-2.64Z"/><path class="cls-5" d="M356.42,173.93a1.53,1.53,0,0,0,.76,2.85,1.55,1.55,0,0,0,1.33-2.29A1.54,1.54,0,0,0,356.42,173.93Z"/><path class="cls-5" d="M348.27,170a1.53,1.53,0,1,0-1.44,2,1.76,1.76,0,0,0,.45-.07A1.52,1.52,0,0,0,348.27,170Z"/><path class="cls-5" d="M355.75,193.23a1.53,1.53,0,1,0-1.46,2,1.45,1.45,0,0,0,.47-.08A1.51,1.51,0,0,0,355.75,193.23Z"/><path class="cls-5" d="M350.15,175.83a1.53,1.53,0,1,0-1.47,2,1.55,1.55,0,0,0,1.47-2Z"/><path class="cls-5" d="M353.88,187.42a1.52,1.52,0,1,0-1.45,2,1.6,1.6,0,0,0,.47-.08A1.53,1.53,0,0,0,353.88,187.42Z"/><path class="cls-5" d="M352,181.63a1.52,1.52,0,1,0-1.44,2,1.34,1.34,0,0,0,.47-.07A1.52,1.52,0,0,0,352,181.63Z"/><path class="cls-5" d="M359.44,209.63a1.53,1.53,0,0,0,.47,3,1.9,1.9,0,0,0,.46-.07,1.53,1.53,0,0,0,1-1.92A1.54,1.54,0,0,0,359.44,209.63Z"/><path class="cls-5" d="M357.61,199a1.52,1.52,0,1,0-1.45,2,1.26,1.26,0,0,0,.47-.08A1.51,1.51,0,0,0,357.61,199Z"/><path class="cls-5" d="M346.4,164.23a1.52,1.52,0,1,0-1.45,2,1.72,1.72,0,0,0,.48-.08A1.51,1.51,0,0,0,346.4,164.23Z"/><path class="cls-5" d="M359.48,204.82a1.52,1.52,0,1,0-1.44,2,1.76,1.76,0,0,0,.45-.07A1.52,1.52,0,0,0,359.48,204.82Z"/><path class="cls-5" d="M319,198a1.52,1.52,0,1,0-.94,2.89,1.29,1.29,0,0,0,.47.08,1.54,1.54,0,0,0,1.45-1A1.52,1.52,0,0,0,319,198Z"/><path class="cls-5" d="M317.11,203.84a1.52,1.52,0,1,0-.94,2.9,2,2,0,0,0,.47.07,1.5,1.5,0,0,0,1.44-1.05A1.52,1.52,0,0,0,317.11,203.84Z"/><path class="cls-5" d="M315.24,209.63a1.54,1.54,0,0,0-1.92,1,1.52,1.52,0,0,0,1,1.92,1.76,1.76,0,0,0,.45.07,1.53,1.53,0,0,0,.48-3Z"/><path class="cls-5" d="M322.72,186.45a1.52,1.52,0,0,0-1,2.89,1.65,1.65,0,0,0,.47.08,1.52,1.52,0,0,0,.48-3Z"/><path class="cls-5" d="M320.84,192.24a1.52,1.52,0,1,0-.93,2.9,1.48,1.48,0,0,0,.46.08,1.53,1.53,0,0,0,.47-3Z"/><path class="cls-5" d="M326.45,174.84a1.53,1.53,0,0,0-.93,2.91,1.45,1.45,0,0,0,.47.08,1.56,1.56,0,0,0,1.45-1.07A1.53,1.53,0,0,0,326.45,174.84Z"/><path class="cls-5" d="M328.32,169.05a1.54,1.54,0,0,0-1.92,1,1.52,1.52,0,0,0,1,1.92,1.83,1.83,0,0,0,.46.07,1.49,1.49,0,0,0,1.44-1.06A1.52,1.52,0,0,0,328.32,169.05Z"/><path class="cls-5" d="M330.19,163.25a1.52,1.52,0,1,0-.94,2.89,1.65,1.65,0,0,0,.47.08,1.52,1.52,0,0,0,.47-3Z"/><path class="cls-5" d="M324.59,180.64a1.53,1.53,0,0,0-1.92,1,1.52,1.52,0,0,0,1,1.91,1.33,1.33,0,0,0,.48.07,1.52,1.52,0,0,0,.47-3Z"/><path class="cls-5" d="M306,195a1.52,1.52,0,1,0-.78,2.83A1.52,1.52,0,0,0,306,195Z"/><path class="cls-5" d="M322.75,166a1.37,1.37,0,0,0,.74.2,1.53,1.53,0,0,0,1.33-.76,1.52,1.52,0,1,0-2.64-1.52A1.52,1.52,0,0,0,322.75,166Z"/><path class="cls-5" d="M302.93,200.31a1.53,1.53,0,0,0-1.51,2.65,1.43,1.43,0,0,0,.75.2,1.53,1.53,0,0,0,.76-2.85Z"/><path class="cls-5" d="M309,189.77a1.52,1.52,0,1,0-.74,2.83,1.51,1.51,0,0,0,.74-2.83Z"/><path class="cls-5" d="M299.9,205.59a1.53,1.53,0,0,0-1.54,2.64,1.49,1.49,0,0,0,.76.2,1.53,1.53,0,0,0,.78-2.84Z"/><path class="cls-5" d="M319.7,171.29a1.52,1.52,0,0,0,2.07-.56,1.52,1.52,0,1,0-2.07.56Z"/><path class="cls-5" d="M318.18,173.93a1.54,1.54,0,0,0-2.09.56,1.5,1.5,0,0,0,.56,2.07,1.45,1.45,0,0,0,.75.22,1.51,1.51,0,0,0,1.32-.77A1.52,1.52,0,0,0,318.18,173.93Z"/><path class="cls-5" d="M313.61,181.85a1.49,1.49,0,0,0,.74.2,1.52,1.52,0,0,0,1.33-.77,1.49,1.49,0,0,0-.57-2.07,1.51,1.51,0,0,0-2.07.55A1.54,1.54,0,0,0,313.61,181.85Z"/><path class="cls-5" d="M312.08,184.48a1.53,1.53,0,0,0-2.08.57,1.52,1.52,0,1,0,2.63,1.52A1.53,1.53,0,0,0,312.08,184.48Z"/><path class="cls-4" d="M279,387.51v-49A42.17,42.17,0,0,0,271.89,315l-13.64-20.47a14.09,14.09,0,0,0-2.36-2.63,11.53,11.53,0,0,0-11.51-11.23H179V265.3h-8L168.21,232a15.39,15.39,0,1,0-16.92,0l-2.77,33.33h-8v15.39H75.12a11.53,11.53,0,0,0-11.51,11.23,13.51,13.51,0,0,0-2.36,2.64L47.61,315a42.17,42.17,0,0,0-7.11,23.47v49a41.87,41.87,0,0,0,1.27,10.27l5.35,21.4H40.5v23.08H94.35V419.17H86.66V403.59a19.09,19.09,0,0,1,3.68-11.31l2.82-3.88H226.34l2.82,3.88a19.09,19.09,0,0,1,3.68,11.31v15.58h-7.69v23.08H279V419.17h-6.62l5.35-21.4A41.85,41.85,0,0,0,279,387.51ZM159.75,211.44a7.7,7.7,0,1,1-7.69,7.7A7.7,7.7,0,0,1,159.75,211.44Zm3.52,53.86h-7l2.57-30.87c.32,0,.62.09.94.09s.62-.07.94-.09ZM148.21,273h23.08v7.7H148.21ZM86.66,434.56H48.19v-7.7H86.66Zm-2.54-46.8A26.7,26.7,0,0,0,79,403.59v15.58H55L49.22,395.9a34.91,34.91,0,0,1-1-8.39v-49A34.44,34.44,0,0,1,54,319.29l9.57-14.36v67.45A11.47,11.47,0,0,1,60,373H55.89v7.69H60a19.18,19.18,0,0,0,15-7.21l23-28.8a6.55,6.55,0,0,1,11.66,4.09v1.61a6.52,6.52,0,0,1-1.25,3.86Zm19.08-53.22a14.21,14.21,0,0,0-11.13,5.34l-5.36,6.71c0-.18,0-.34,0-.51a19.24,19.24,0,1,1,23.71,18.65l4.34-6a14.18,14.18,0,0,0,2.73-8.38v-1.61A14.26,14.26,0,0,0,103.2,334.54Zm52.7,46.16H140.52V365.31H155.9Zm14.41-37v7H149.19v-7Zm-21.12-7v-7h21.12v7Zm29.79,44H163.6V365.31H179Zm25.81-21.93,4.34,6a19.21,19.21,0,1,1,23.71-18.65c0,.17-.05.34-.05.51l-5.37-6.71a14.24,14.24,0,0,0-25.36,8.9v1.61A14.18,14.18,0,0,0,204.79,358.77Zm66.52,75.79H232.84v-7.7h38.47Zm0-47.06a34.45,34.45,0,0,1-1,8.4l-5.81,23.27H240.53V403.59a26.7,26.7,0,0,0-5.15-15.83L211,354.25a6.52,6.52,0,0,1-1.25-3.86v-1.61a6.54,6.54,0,0,1,11.65-4.09l23,28.8a19.18,19.18,0,0,0,15,7.21h4.14V373h-4.14a11.47,11.47,0,0,1-3.55-.63V304.93l9.57,14.36a34.46,34.46,0,0,1,5.82,19.2Z"/><path class="cls-4" d="M279,387.51v-49A42.17,42.17,0,0,0,271.89,315l-13.64-20.47a14.09,14.09,0,0,0-2.36-2.63,11.53,11.53,0,0,0-11.51-11.23H179V265.3h-8L168.21,232a15.39,15.39,0,1,0-16.92,0l-2.77,33.33h-8v15.39H75.12a11.53,11.53,0,0,0-11.51,11.23,13.51,13.51,0,0,0-2.36,2.64L47.61,315a42.17,42.17,0,0,0-7.11,23.47v49a41.87,41.87,0,0,0,1.27,10.27l5.35,21.4H40.5v23.08H94.35V419.17H86.66V403.59a19.09,19.09,0,0,1,3.68-11.31l2.82-3.88H226.34l2.82,3.88a19.09,19.09,0,0,1,3.68,11.31v15.58h-7.69v23.08H279V419.17h-6.62l5.35-21.4A41.85,41.85,0,0,0,279,387.51Zm-46.21-40.92"/><rect class="cls-6" x="43.46" y="425.34" width="48.21" height="14.38"/><rect class="cls-6" x="227.83" y="425.34" width="48.21" height="14.38"/><polygon class="cls-8" points="252.36 386.43 71.37 386.43 71.37 284.1 144.06 284.1 144.95 268.87 152.06 268.87 157.11 230.45 147.49 217.28 160.17 207.13 171.17 217.28 162.15 230.34 165.43 268.87 173.71 268.87 178.98 284.1 252.36 284.1 252.36 386.43"/><polygon class="cls-4" points="67.14 376.28 91.67 347.53 99.28 339.07 107.74 340.76 109.43 348.37 108.58 354.29 96.55 373.01 84.06 391.5 74.77 397.21 65.45 376.28 67.14 376.28"/><circle class="cls-8" cx="105.62" cy="346.26" r="22.41"/><polygon class="cls-4" points="250.67 377.13 226.14 348.37 218.53 339.92 210.07 341.61 208.38 349.22 209.23 355.14 221.26 373.85 233.75 392.35 243.04 398.06 261.66 378.82 250.67 377.13"/><polygon class="cls-4" points="68.83 377.13 93.36 348.37 100.97 339.92 109.43 341.61 111.12 349.22 110.27 355.14 98.24 373.85 85.75 392.35 76.46 398.06 57.84 378.82 68.83 377.13"/><path class="cls-9" d="M279,387.51v-49A42.17,42.17,0,0,0,271.89,315l-13.64-20.47a14.09,14.09,0,0,0-2.36-2.63,11.53,11.53,0,0,0-11.51-11.23H179V265.3h-8L168.21,232a15.39,15.39,0,1,0-16.92,0l-2.77,33.33h-8v15.39H75.12a11.53,11.53,0,0,0-11.51,11.23,13.51,13.51,0,0,0-2.36,2.64L47.61,315a42.17,42.17,0,0,0-7.11,23.47v49a41.87,41.87,0,0,0,1.27,10.27l5.35,21.4H40.5v23.08H94.35V419.17H86.66V403.59a19.09,19.09,0,0,1,3.68-11.31l2.82-3.88H226.34l2.82,3.88a19.09,19.09,0,0,1,3.68,11.31v15.58h-7.69v23.08H279V419.17h-6.62l5.35-21.4A41.85,41.85,0,0,0,279,387.51ZM159.75,211.44a7.7,7.7,0,1,1-7.69,7.7A7.7,7.7,0,0,1,159.75,211.44Zm3.52,53.86h-7l2.57-30.87c.32,0,.62.09.94.09s.62-.07.94-.09ZM148.21,273h23.08v7.7H148.21Zm36.09,15.39-3.85,7.69h-41.4l-3.85-7.69ZM86.66,434.56H48.19v-7.7H86.66Zm-2.54-46.8A26.7,26.7,0,0,0,79,403.59v15.58H55L49.22,395.9a34.91,34.91,0,0,1-1-8.39v-49A34.44,34.44,0,0,1,54,319.29l9.57-14.36v67.45A11.47,11.47,0,0,1,60,373H55.89v7.69H60a19.18,19.18,0,0,0,15-7.21l23-28.8a6.55,6.55,0,0,1,11.66,4.09v1.61a6.52,6.52,0,0,1-1.25,3.86Zm19.08-53.22a14.21,14.21,0,0,0-11.13,5.34l-5.36,6.71c0-.18,0-.34,0-.51a19.24,19.24,0,1,1,23.71,18.65l4.34-6a14.18,14.18,0,0,0,2.73-8.38v-1.61A14.26,14.26,0,0,0,103.2,334.54Zm52.7,46.16H140.52V365.31H155.9Zm23.08,0H163.6V365.31H179Zm7.7,0V357.62H132.82V380.7H98.76l5.68-7.8c.49,0,1,.11,1.46.11A26.93,26.93,0,1,0,79,346.08a26.59,26.59,0,0,0,1.38,8.46l-9.08,11.35V292.23a3.86,3.86,0,0,1,3.85-3.85H126.6l7.69,15.39h50.92l7.69-15.39h51.48a3.86,3.86,0,0,1,3.85,3.85v73.66l-9.08-11.35a26.59,26.59,0,0,0,1.38-8.46A26.93,26.93,0,1,0,213.6,373c.49,0,1-.09,1.46-.11l5.68,7.8Zm18.11-21.93,4.34,6a19.21,19.21,0,1,1,23.71-18.65c0,.17-.05.34-.05.51l-5.37-6.71a14.24,14.24,0,0,0-25.36,8.9v1.61A14.18,14.18,0,0,0,204.79,358.77Zm66.52,75.79H232.84v-7.7h38.47Zm0-47.06a34.45,34.45,0,0,1-1,8.4l-5.81,23.27H240.53V403.59a26.7,26.7,0,0,0-5.15-15.83L211,354.25a6.52,6.52,0,0,1-1.25-3.86v-1.61a6.54,6.54,0,0,1,11.65-4.09l23,28.8a19.18,19.18,0,0,0,15,7.21h4.14V373h-4.14a11.47,11.47,0,0,1-3.55-.63V304.93l9.57,14.36a34.46,34.46,0,0,1,5.82,19.2ZM142.15,357.78h35.2V322.59h-35.2Zm7-7v-7h21.12v7Zm21.12-21.12v7H149.19v-7Z"/></g></g></svg>