<svg id="Layer_1" data-name="Layer 1" xmlns="http://www.w3.org/2000/svg" xmlns:xlink="http://www.w3.org/1999/xlink" viewBox="0 0 500 500"><defs><style>.cls-1{fill:none;}.cls-2{fill:#ffd9d9;}.cls-3{fill:#606060;}.cls-4{fill:#fff;}.cls-5{fill:#ededed;}.cls-6{fill:#d1d1d1;}.cls-7{fill:#e0e0e0;}.cls-8{clip-path:url(#clip-path);}.cls-9{fill:#c60104;}.cls-10{fill:#f7d43f;}</style><clipPath id="clip-path"><circle class="cls-1" cx="151.77" cy="172.62" r="36.92"/></clipPath></defs><title>howitworks-03</title><circle class="cls-2" cx="250" cy="250" r="249"/><rect class="cls-3" x="68.48" y="99" width="360.15" height="260.42" rx="9.69" ry="9.69"/><path class="cls-3" d="M418.94,361.92H78.16A12.2,12.2,0,0,1,66,349.73v-241A12.2,12.2,0,0,1,78.16,96.5H418.94a12.2,12.2,0,0,1,12.18,12.19v241A12.2,12.2,0,0,1,418.94,361.92ZM78.16,101.5A7.19,7.19,0,0,0,71,108.69v241a7.2,7.2,0,0,0,7.18,7.19H418.94a7.2,7.2,0,0,0,7.18-7.19v-241a7.19,7.19,0,0,0-7.18-7.19Z"/><path class="cls-4" d="M40.23,356H456.87a0,0,0,0,1,0,0v7.94A22.14,22.14,0,0,1,434.73,386H62.37a22.14,22.14,0,0,1-22.14-22.14V356a0,0,0,0,1,0,0Z"/><path class="cls-3" d="M434.73,390H62.37a26.17,26.17,0,0,1-26.14-26.13V352H460.87v12A26.17,26.17,0,0,1,434.73,390ZM44.23,360v4A18.16,18.16,0,0,0,62.37,382H434.73a18.16,18.16,0,0,0,18.14-18.13v-4Z"/><path class="cls-5" d="M197.24,356H299.86a0,0,0,0,1,0,0v5.16a9.82,9.82,0,0,1-9.82,9.82h-83a9.82,9.82,0,0,1-9.82-9.82V356A0,0,0,0,1,197.24,356Z"/><path class="cls-3" d="M290.05,373.44h-83a12.32,12.32,0,0,1-12.31-12.31v-7.67H302.36v7.67A12.32,12.32,0,0,1,290.05,373.44Zm-90.31-15v2.67a7.32,7.32,0,0,0,7.31,7.31h83a7.32,7.32,0,0,0,7.31-7.31v-2.67Z"/><rect class="cls-5" x="91.16" y="119.91" width="314.77" height="216.37"/><path class="cls-4" d="M319.09,134.62h63.73a8.38,8.38,0,0,1,8.35,8.35v26a8.37,8.37,0,0,1-8.35,8.35H379v13.32l-13.31-13.32H319.09a8.36,8.36,0,0,1-8.35-8.35V143A8.37,8.37,0,0,1,319.09,134.62Z"/><path class="cls-3" d="M379,192.65a2,2,0,0,1-1.41-.59l-12.73-12.73H319.09A10.36,10.36,0,0,1,308.74,169V143a10.36,10.36,0,0,1,10.35-10.35h63.73A10.36,10.36,0,0,1,393.17,143v26a10.36,10.36,0,0,1-10.35,10.35H381v11.32a2,2,0,0,1-1.23,1.85A2.07,2.07,0,0,1,379,192.65Zm-59.88-56a6.36,6.36,0,0,0-6.35,6.35v26a6.36,6.36,0,0,0,6.35,6.35h46.57a2,2,0,0,1,1.41.59l9.9,9.9v-8.49a2,2,0,0,1,2-2h3.85a6.36,6.36,0,0,0,6.35-6.35V143a6.36,6.36,0,0,0-6.35-6.35Z"/><rect class="cls-6" x="91.06" y="119.64" width="124.26" height="215.24"/><circle class="cls-7" cx="151.77" cy="172.62" r="36.92"/><path class="cls-3" d="M151.77,211a38.42,38.42,0,1,1,38.42-38.42A38.46,38.46,0,0,1,151.77,211Zm0-73.84a35.42,35.42,0,1,0,35.42,35.42A35.45,35.45,0,0,0,151.77,137.2Z"/><g class="cls-8"><path class="cls-3" d="M175.92,175.46c0-13.7-10.83-24.85-24.15-24.85s-24.14,11.15-24.14,24.85A22.78,22.78,0,0,0,138.2,195a20.74,20.74,0,0,0-7.12,12.94,4.55,4.55,0,0,0,4.5,5.18H168a4.54,4.54,0,0,0,4.5-5.18A20.73,20.73,0,0,0,165.35,195,22.78,22.78,0,0,0,175.92,175.46Z"/><path class="cls-4" d="M160.25,192.65a2.21,2.21,0,0,0-.24,4,16.61,16.61,0,0,1,8.06,11.92s0,8.78,0,8.82,0-8.7-.06-8.7H135.58s-.89,15.12-.92,15.09.81-15.19.82-15.21a16.58,16.58,0,0,1,8.06-11.92,2.22,2.22,0,0,0-.24-4,18.18,18.18,0,0,1-11.24-17.19c0-11.26,8.85-20.41,19.71-20.41s19.71,9.15,19.71,20.41A18.17,18.17,0,0,1,160.25,192.65Z"/><polygon class="cls-4" points="148.85 201.02 140.34 209.18 143.88 223.03 155.95 223.03 158.08 220.19 164.47 213.8 165.89 210.96 156.66 201.02 148.85 201.02"/></g><path class="cls-3" d="M151.77,212a39.42,39.42,0,1,1,39.42-39.42A39.46,39.46,0,0,1,151.77,212Zm0-73.84a34.42,34.42,0,1,0,34.42,34.42A34.46,34.46,0,0,0,151.77,138.2Z"/><path class="cls-3" d="M408.44,338.78H88.66V117.42H408.44Zm-314.78-5H403.44V122.42H93.66Z"/><rect class="cls-3" x="119.35" y="226.43" width="66.57" height="5"/><rect class="cls-3" x="119.9" y="240.85" width="66.57" height="5"/><rect class="cls-3" x="119.9" y="254.16" width="66.57" height="5"/><circle class="cls-9" cx="334.03" cy="157.36" r="3.33"/><circle class="cls-9" cx="366.21" cy="157.36" r="3.33"/><circle class="cls-9" cx="350.12" cy="157.36" r="3.33"/><path class="cls-4" d="M309.49,335.38v-24.9a8.38,8.38,0,0,0-8.36-8.35H237.4a8.38,8.38,0,0,0-8.35,8.35v24.9Z"/><path class="cls-3" d="M309.49,337.38H229.05a2,2,0,0,1-2-2v-24.9a10.36,10.36,0,0,1,10.35-10.35h63.73a10.37,10.37,0,0,1,10.36,10.35v24.9A2,2,0,0,1,309.49,337.38Zm-78.44-4h76.44v-22.9a6.36,6.36,0,0,0-6.36-6.35H237.4a6.36,6.36,0,0,0-6.35,6.35Z"/><rect class="cls-4" x="227.92" y="207.16" width="162.86" height="81.69"/><polygon class="cls-6" points="390.26 242.32 365.44 219.57 337.52 244.38 319.95 229.91 265.14 286.78 390.26 287.81 390.26 242.32"/><circle class="cls-9" cx="252.35" cy="324.87" r="3.33"/><circle class="cls-9" cx="284.52" cy="324.87" r="3.33"/><circle class="cls-9" cx="268.44" cy="324.87" r="3.33"/><path class="cls-9" d="M316.84,268.1a2,2,0,0,1-1.41-3.42l47.91-47.9a2,2,0,0,1,2.83,0L392,242.63a2,2,0,1,1-2.83,2.82L364.75,221l-46.49,46.49A2,2,0,0,1,316.84,268.1Z"/><path class="cls-9" d="M264.8,289.12a2,2,0,0,1-1.41-3.41L320.6,228.5a2,2,0,0,1,2.83,0l14.82,14.82a2,2,0,1,1-2.83,2.82L322,232.74l-55.8,55.8A2,2,0,0,1,264.8,289.12Z"/><path class="cls-9" d="M393.12,289.9H226.73V203.63H393.12Zm-161.39-5H388.12V208.63H231.73Z"/><circle class="cls-10" cx="264.63" cy="234.56" r="16.03"/></svg>