<?xml version="1.0" encoding="UTF-8"?>
<!-- Generator: Adobe Illustrator 19.1.0, SVG Export Plug-In . SVG Version: 6.00 Build 0)  -->
<svg version="1.1" xmlns="http://www.w3.org/2000/svg" xmlns:xlink="http://www.w3.org/1999/xlink" x="0px" y="0px" width="500px" height="200px" viewBox="0 0 500 200" enable-background="new 0 0 500 200" xml:space="preserve">
<g id="Layer_2" display="none">
	<rect display="inline" fill-rule="evenodd" clip-rule="evenodd" fill="#CDDDC5" width="500" height="150"/>
</g>
<g id="Layer_1">
	<g>
		<path fill-rule="evenodd" clip-rule="evenodd" fill="#848485" d="M31.874,18.079c1.173-4.668,2.072-10.475,2.6-16.095L13.97,1.401    c-0.222,2.608-1.19,12.114-3.917,17.786c-0.166,0.346-0.59,0.495-0.947,0.334c-0.357-0.161-0.511-0.572-0.345-0.918    c3.003-6.248,3.831-17.842,3.839-17.958c0.025-0.37,0.333-0.673,0.732-0.644l21.939,0.623c0.196,0.005,0.381,0.089,0.511,0.231    c0.131,0.142,0.195,0.329,0.178,0.519c-0.262,2.946-0.908,9.052-2.149,14.771L31.874,18.079z M21.648,21.811    c0.849,1.714,1.681,3.044,2.472,4.007l-1.006,1.004c-0.841-0.993-1.691-2.327-2.559-4.031L2.583,22.388    c0.561,1.603,2.111,4.899,5.391,4.974c3.959,0.091,10.217,0.166,14.389,0.209l-1.369,1.367c-4.091-0.045-9.5-0.113-13.054-0.195    c-5.443-0.125-6.948-6.644-7.009-6.922c-0.046-0.206,0.009-0.422,0.148-0.585c0.14-0.163,0.355-0.255,0.565-0.25l19.378,0.434    C21.29,21.426,21.532,21.577,21.648,21.811z M17.834,6.331l11.189,0.382c0.393,0.013,0.701,0.334,0.687,0.715    c-0.014,0.373-0.33,0.666-0.712,0.666c-0.008,0-0.017,0-0.025,0L17.784,7.711c-0.393-0.013-0.701-0.334-0.687-0.715    C17.111,6.616,17.435,6.325,17.834,6.331z M22.343,17.078c-0.014,0.373-0.33,0.666-0.712,0.666c-0.008,0-0.017,0-0.025,0    l-5.97-0.204c-0.393-0.014-0.701-0.334-0.687-0.714c0.014-0.381,0.339-0.68,0.737-0.666l5.97,0.204    C22.049,16.377,22.357,16.697,22.343,17.078z M17.011,11.237l10.459,0.357c0.393,0.013,0.701,0.333,0.687,0.714    c-0.014,0.373-0.33,0.666-0.712,0.666c-0.008,0-0.017,0-0.026,0l-10.459-0.357c-0.393-0.014-0.701-0.333-0.687-0.715    C16.288,11.521,16.605,11.227,17.011,11.237z"/>
		<path fill="#848485" d="M18.933,37.189l-1.318-2.493c-0.724-1.459-3.014-3.767-6.499-2.061L9.2,33.574    c-0.031,0.016-0.063,0.032-0.095,0.047c-0.351,0.153-4.183,1.733-5.622-1.072l-1.895-3.962c-0.201-0.418-0.697-0.594-1.116-0.392    c-0.415,0.203-0.589,0.708-0.388,1.128l1.906,3.984c1.636,3.186,5.272,2.806,7.336,2.044c0.045-0.012,0.089-0.027,0.132-0.043    l0.007,0.014c0.012-0.006,0.083-0.041,0.255-0.125c0.038-0.018,0.074-0.036,0.108-0.052c0.01-0.005,0.02-0.01,0.029-0.015    c0.343-0.169,0.953-0.468,1.986-0.974c2.812-1.376,4.139,1.024,4.289,1.317L17.467,38"/>
		<path fill="#848485" d="M48.592,16.163l-4.54-4.71c-0.276-0.286-0.648-0.449-1.051-0.462c-0.403-0.011-0.785,0.131-1.074,0.399    L23.938,27.893c-0.145,0.132-0.264,0.298-0.345,0.478l-3.412,7.566c-0.246,0.54-0.136,1.167,0.279,1.597    c0.271,0.281,0.653,0.449,1.047,0.461c0,0,0.003,0,0.004,0c0.192,0.006,0.382-0.024,0.564-0.09l7.957-2.858    c0.194-0.072,0.366-0.177,0.504-0.308l17.906-16.425l0.088-0.08c0.287-0.266,0.459-0.638,0.471-1.021    C49.011,16.832,48.864,16.45,48.592,16.163z M24.457,29.254l4.719,4.898l-5.753,2.066l-1.435-1.489L24.457,29.254z M47.737,17.412    L30.165,33.531l-1.318-1.368c0.045-0.023,0.091-0.043,0.129-0.078L44.53,17.816c0.233-0.213,0.244-0.57,0.025-0.797    c-0.219-0.227-0.584-0.238-0.817-0.025L28.184,31.264c-0.038,0.035-0.061,0.079-0.088,0.121l-2.945-3.056l17.57-16.118    c0.089-0.082,0.193-0.092,0.246-0.091c0.093,0.003,0.179,0.041,0.243,0.107l4.536,4.706c0.064,0.068,0.1,0.157,0.097,0.246    C47.841,17.267,47.801,17.354,47.737,17.412z"/>
	</g>
	<g>
		<path fill="#858585" d="M217.66,59.373V57.45v-0.288l-0.3,0.001l-2.003,0.007l0.007,2.211L217.66,59.373z"/>
		<path fill="#858585" d="M212.438,64.478c1.318,0,2.392-1.03,2.392-2.295c0-0.5-0.169-0.962-0.453-1.339    c-0.435-0.578-1.141-0.958-1.939-0.958c-0.799,0-1.504,0.38-1.939,0.958c-0.284,0.377-0.453,0.839-0.453,1.339    C210.046,63.448,211.12,64.478,212.438,64.478z"/>
		<path fill="#858585" d="M212.5,50c-6.903,0-12.5,5.372-12.5,11.999c0,6.628,5.597,12,12.5,12c6.903,0,12.5-5.372,12.5-12    C225,55.372,219.403,50,212.5,50z M219.233,60.844v5.341c0,1.39-1.178,2.521-2.626,2.521h-8.338c-1.448,0-2.626-1.13-2.626-2.521    v-5.341V58.18c0-1.39,1.178-2.52,2.626-2.52h8.338c1.448,0,2.626,1.131,2.626,2.52V60.844z"/>
		<path fill="#858585" d="M216.154,62.183c0,1.966-1.667,3.567-3.716,3.567c-2.049,0-3.716-1.601-3.716-3.567    c0-0.474,0.098-0.925,0.273-1.339h-2.028v5.341c0,0.69,0.584,1.25,1.302,1.25h8.338c0.718,0,1.302-0.56,1.302-1.25v-5.341h-2.03    C216.055,61.257,216.154,61.709,216.154,62.183z"/>
	</g>
	<g>
		<path fill="#858585" d="M112.5,50c-6.903,0-12.5,5.372-12.5,11.999c0,4.913,3.078,9.135,7.482,10.99    c-0.035-0.838-0.006-1.844,0.218-2.755c0.24-0.974,1.608-6.538,1.608-6.538s-0.399-0.766-0.399-1.899    c0-1.778,1.074-3.105,2.411-3.105c1.137,0,1.686,0.819,1.686,1.801c0,1.098-0.729,2.738-1.104,4.258    c-0.313,1.273,0.665,2.312,1.973,2.312c2.369,0,3.963-2.92,3.963-6.38c0-2.629-1.845-4.599-5.201-4.599    c-3.792,0-6.154,2.714-6.154,5.747c0,1.046,0.321,1.784,0.824,2.353c0.231,0.263,0.263,0.368,0.18,0.669    c-0.06,0.22-0.198,0.753-0.255,0.963c-0.083,0.305-0.34,0.412-0.626,0.301c-1.747-0.685-2.56-2.521-2.56-4.584    c0-3.408,2.995-7.496,8.934-7.496c4.772,0,7.913,3.315,7.913,6.874c0,4.707-2.726,8.224-6.744,8.224    c-1.35,0-2.619-0.701-3.054-1.496c0,0-0.726,2.765-0.879,3.298c-0.265,0.926-0.784,1.851-1.258,2.571    c1.124,0.319,2.312,0.493,3.543,0.493c6.903,0,12.5-5.372,12.5-12S119.403,50,112.5,50z"/>
	</g>
	<g>
		<path fill="#858585" d="M12.5,50C5.597,50,0,55.373,0,62c0,6.628,5.597,12,12.5,12C19.403,74,25,68.628,25,62    C25,55.373,19.403,50,12.5,50z M19.462,67.828c0,0.534-0.462,0.966-1.031,0.966H6.544c-0.57,0-1.031-0.432-1.031-0.966V56.285    c0-0.533,0.461-0.966,1.031-0.966h11.887c0.569,0,1.031,0.433,1.031,0.966V67.828z"/>
		<path fill="#858585" d="M14.913,60.372c-1.118,0-1.619,0.589-1.899,1.004v0.02H13c0.005-0.005,0.01-0.013,0.014-0.02v-0.861    h-2.106c0.027,0.57,0,6.084,0,6.084h2.106v-3.398c0-0.183,0.014-0.362,0.069-0.493c0.153-0.362,0.5-0.74,1.081-0.74    c0.763,0,1.067,0.558,1.067,1.376v3.255h2.107V63.11C17.339,61.241,16.299,60.372,14.913,60.372z"/>
		<path fill="#858585" d="M8.702,57.581c-0.72,0-1.192,0.455-1.192,1.052c0,0.583,0.457,1.051,1.164,1.051h0.014    c0.735,0,1.192-0.468,1.192-1.051C9.866,58.036,9.423,57.581,8.702,57.581z"/>
		<path fill="#858585" d="M7.635,66.599h2.107v-6.084H7.635V66.599z"/>
	</g>
	<g>
		<path fill="#858585" d="M162.5,50c-6.903,0-12.5,5.374-12.5,12c0,6.627,5.597,11.999,12.5,11.999c6.904,0,12.5-5.372,12.5-11.999    C175,55.374,169.403,50,162.5,50z M165.809,61.95h-2.164c0,3.32,0,7.41,0,7.41h-3.209c0,0,0-4.048,0-7.41h-1.525v-2.616h1.525    v-1.695c0-1.214,0.6-3.108,3.238-3.108l2.375,0.009v2.541c0,0-1.444,0-1.725,0c-0.281,0-0.68,0.135-0.68,0.712v1.541h2.445    L165.809,61.95z"/>
	</g>
	<g>
		<path fill="#858585" d="M62.5,50C55.597,50,50,55.374,50,62c0,6.627,5.597,11.999,12.5,11.999C69.404,73.999,75,68.627,75,62    C75,55.374,69.404,50,62.5,50z M68.798,59.58c0.006,0.13,0.009,0.261,0.009,0.392c0,3.996-3.169,8.604-8.963,8.604    c-1.779,0-3.435-0.501-4.829-1.359c0.247,0.027,0.497,0.042,0.751,0.042c1.476,0,2.835-0.484,3.913-1.294    c-1.379-0.025-2.542-0.899-2.943-2.1c0.192,0.036,0.389,0.055,0.593,0.055c0.287,0,0.566-0.037,0.83-0.107    c-1.442-0.278-2.528-1.5-2.528-2.964c0-0.014,0-0.026,0.001-0.039c0.425,0.226,0.91,0.362,1.427,0.378    c-0.845-0.543-1.401-1.468-1.401-2.517c0-0.555,0.155-1.074,0.426-1.52c1.554,1.829,3.875,3.033,6.494,3.159    c-0.054-0.221-0.082-0.452-0.082-0.689c0-1.669,1.411-3.024,3.15-3.024c0.906,0,1.725,0.368,2.299,0.955    c0.718-0.135,1.392-0.387,2.001-0.734c-0.235,0.706-0.735,1.299-1.385,1.673c0.638-0.073,1.245-0.236,1.81-0.476    C69.948,58.621,69.413,59.154,68.798,59.58z"/>
	</g>
	<g>
		<path fill="#00B22D" d="M217.66,109.373v-1.924v-0.288l-0.3,0.001l-2.003,0.007l0.007,2.211L217.66,109.373z"/>
		<path fill="#00B22D" d="M212.438,114.478c1.318,0,2.392-1.03,2.392-2.295c0-0.5-0.169-0.962-0.453-1.339    c-0.435-0.578-1.141-0.958-1.939-0.958c-0.799,0-1.504,0.38-1.939,0.958c-0.284,0.377-0.453,0.839-0.453,1.339    C210.046,113.448,211.12,114.478,212.438,114.478z"/>
		<path fill="#00B22D" d="M212.5,100c-6.903,0-12.5,5.372-12.5,11.999c0,6.628,5.597,12,12.5,12c6.903,0,12.5-5.372,12.5-12    C225,105.372,219.403,100,212.5,100z M219.233,110.844v5.341c0,1.39-1.178,2.521-2.626,2.521h-8.338    c-1.448,0-2.626-1.13-2.626-2.521v-5.341v-2.664c0-1.39,1.178-2.52,2.626-2.52h8.338c1.448,0,2.626,1.131,2.626,2.52V110.844z"/>
		<path fill="#00B22D" d="M216.154,112.183c0,1.966-1.667,3.567-3.716,3.567c-2.049,0-3.716-1.601-3.716-3.567    c0-0.474,0.098-0.925,0.273-1.339h-2.028v5.341c0,0.69,0.584,1.25,1.302,1.25h8.338c0.718,0,1.302-0.56,1.302-1.25v-5.341h-2.03    C216.055,111.257,216.154,111.709,216.154,112.183z"/>
	</g>
	<g>
		<path fill="#00B22D" d="M112.5,100c-6.903,0-12.5,5.372-12.5,11.999c0,4.913,3.078,9.135,7.482,10.99    c-0.035-0.838-0.006-1.844,0.218-2.755c0.24-0.974,1.608-6.538,1.608-6.538s-0.399-0.766-0.399-1.899    c0-1.778,1.074-3.105,2.411-3.105c1.137,0,1.686,0.819,1.686,1.801c0,1.098-0.729,2.738-1.104,4.258    c-0.313,1.273,0.665,2.312,1.973,2.312c2.369,0,3.963-2.92,3.963-6.38c0-2.629-1.845-4.599-5.201-4.599    c-3.792,0-6.154,2.714-6.154,5.747c0,1.046,0.321,1.784,0.824,2.353c0.231,0.263,0.263,0.368,0.18,0.669    c-0.06,0.22-0.198,0.753-0.255,0.963c-0.083,0.305-0.34,0.412-0.626,0.301c-1.747-0.685-2.56-2.521-2.56-4.584    c0-3.408,2.995-7.496,8.934-7.496c4.772,0,7.913,3.315,7.913,6.874c0,4.707-2.726,8.224-6.744,8.224    c-1.35,0-2.619-0.701-3.054-1.496c0,0-0.726,2.765-0.879,3.298c-0.265,0.926-0.784,1.851-1.258,2.571    c1.124,0.319,2.312,0.493,3.543,0.493c6.903,0,12.5-5.372,12.5-12C125,105.372,119.403,100,112.5,100z"/>
	</g>
	<g>
		<path fill="#00B22D" d="M12.5,100C5.597,100,0,105.373,0,112c0,6.628,5.597,12,12.5,12c6.903,0,12.5-5.372,12.5-12    C25,105.373,19.403,100,12.5,100z M19.462,117.828c0,0.534-0.462,0.966-1.031,0.966H6.544c-0.57,0-1.031-0.432-1.031-0.966    v-11.544c0-0.533,0.461-0.966,1.031-0.966h11.887c0.569,0,1.031,0.433,1.031,0.966V117.828z"/>
		<path fill="#00B22D" d="M14.913,110.372c-1.118,0-1.619,0.589-1.899,1.004v0.02H13c0.005-0.005,0.01-0.013,0.014-0.02v-0.861    h-2.106c0.027,0.57,0,6.084,0,6.084h2.106v-3.398c0-0.183,0.014-0.362,0.069-0.493c0.153-0.362,0.5-0.74,1.081-0.74    c0.763,0,1.067,0.558,1.067,1.376v3.255h2.107v-3.489C17.339,111.241,16.299,110.372,14.913,110.372z"/>
		<path fill="#00B22D" d="M8.702,107.581c-0.72,0-1.192,0.455-1.192,1.052c0,0.583,0.457,1.051,1.164,1.051h0.014    c0.735,0,1.192-0.468,1.192-1.051C9.866,108.036,9.423,107.581,8.702,107.581z"/>
		<path fill="#00B22D" d="M7.635,116.599h2.107v-6.084H7.635V116.599z"/>
	</g>
	<g>
		<path fill="#00B22D" d="M162.5,100c-6.903,0-12.5,5.374-12.5,12c0,6.627,5.597,11.999,12.5,11.999c6.904,0,12.5-5.372,12.5-11.999    C175,105.374,169.403,100,162.5,100z M165.809,111.95h-2.164c0,3.32,0,7.41,0,7.41h-3.209c0,0,0-4.048,0-7.41h-1.525v-2.616h1.525    v-1.695c0-1.214,0.6-3.108,3.238-3.108l2.375,0.009v2.541c0,0-1.444,0-1.725,0c-0.281,0-0.68,0.135-0.68,0.712v1.541h2.445    L165.809,111.95z"/>
	</g>
	<g>
		<path fill="#00B22D" d="M62.5,100c-6.904,0-12.5,5.374-12.5,12c0,6.627,5.597,11.999,12.5,11.999c6.904,0,12.5-5.372,12.5-11.999    C75,105.374,69.404,100,62.5,100z M68.798,109.58c0.006,0.13,0.009,0.261,0.009,0.392c0,3.996-3.169,8.604-8.963,8.604    c-1.779,0-3.435-0.501-4.829-1.359c0.247,0.027,0.497,0.042,0.751,0.042c1.476,0,2.835-0.484,3.913-1.294    c-1.379-0.025-2.542-0.899-2.943-2.1c0.192,0.036,0.389,0.055,0.593,0.055c0.287,0,0.566-0.037,0.83-0.107    c-1.442-0.278-2.528-1.5-2.528-2.964c0-0.014,0-0.026,0.001-0.039c0.425,0.226,0.91,0.362,1.427,0.378    c-0.845-0.543-1.401-1.468-1.401-2.517c0-0.555,0.155-1.074,0.426-1.52c1.554,1.829,3.875,3.033,6.494,3.159    c-0.054-0.221-0.082-0.452-0.082-0.689c0-1.669,1.411-3.024,3.15-3.024c0.906,0,1.725,0.368,2.299,0.955    c0.718-0.135,1.392-0.387,2.001-0.734c-0.235,0.706-0.735,1.299-1.385,1.673c0.638-0.073,1.245-0.236,1.81-0.476    C69.948,108.621,69.413,109.154,68.798,109.58z"/>
	</g>
	<g>
		<g>
			<path fill="#A8A8A8" d="M257.807,52c3.202,0,5.807,2.739,5.807,6.105c0,3.367-2.605,6.106-5.807,6.106     c-3.202,0-5.807-2.739-5.807-6.106C252,54.739,254.605,52,257.807,52 M257.807,50c-4.312,0-7.807,3.629-7.807,8.105     c0,4.477,3.495,8.106,7.807,8.106c4.312,0,7.807-3.629,7.807-8.106C265.614,53.629,262.119,50,257.807,50L257.807,50z"/>
		</g>
		<path fill-rule="evenodd" clip-rule="evenodd" fill="#A8A8A8" d="M263.941,62.308l5.711,5.622c0,0,0.782,0.887,0,1.66    c-0.782,0.924-1.68,0-1.68,0l-5.711-5.622L263.941,62.308z"/>
	</g>
	<g>
		<path fill="#8C8C8C" d="M305.855,52c2.126,0,3.855,1.83,3.855,4.079c0,2.249-1.729,4.079-3.855,4.079    c-2.126,0-3.855-1.83-3.855-4.079C302,53.83,303.729,52,305.855,52 M305.855,50c-3.234,0-5.855,2.722-5.855,6.079    c0,3.357,2.621,6.079,5.855,6.079c3.234,0,5.855-2.722,5.855-6.079C311.71,52.722,309.089,50,305.855,50L305.855,50z"/>
	</g>
	<path fill-rule="evenodd" clip-rule="evenodd" fill="#8C8C8C" d="M310.456,59.231l4.283,4.216c0,0,0.587,0.665,0,1.245   c-0.587,0.693-1.26,0-1.26,0l-4.283-4.216L310.456,59.231z"/>
	<g>
		<path opacity="0.4" fill-rule="evenodd" clip-rule="evenodd" d="M380,50c16.568,0,30,13.431,30,30s-13.432,30-30,30    c-16.569,0-30-13.431-30-30S363.431,50,380,50z"/>
		<g>
			<path fill="#FFFFFF" d="M380,55.449c13.537,0,24.551,11.014,24.551,24.551S393.537,104.551,380,104.551     c-13.538,0-24.551-11.014-24.551-24.551S366.462,55.449,380,55.449 M380,52.449c-15.216,0-27.551,12.335-27.551,27.551     c0,15.216,12.335,27.551,27.551,27.551c15.216,0,27.551-12.335,27.551-27.551C407.551,64.784,395.216,52.449,380,52.449     L380,52.449z"/>
		</g>
		<path fill="#FFFFFF" d="M395.72,73.747c-0.312-0.201-0.706-0.232-1.045-0.082l-9.156,4.021c-0.396,0.175-0.653,0.565-0.653,0.995    v4.476c0,0.43,0.257,0.82,0.653,0.994l9.156,4.022c0.143,0.062,0.295,0.093,0.445,0.093c0.21,0,0.418-0.059,0.6-0.176    c0.311-0.201,0.499-0.544,0.499-0.912V74.659C396.22,74.291,396.032,73.948,395.72,73.747z"/>
		<path fill="#FFFFFF" d="M381.635,73.975h-15.838c-0.607,0-1.099,0.487-1.099,1.088v11.71c0,0.601,0.492,1.088,1.099,1.088h15.838    c0.606,0,1.098-0.488,1.098-1.088v-11.71C382.733,74.462,382.242,73.975,381.635,73.975z"/>
	</g>
	<g>
		<path fill="#AAAAAA" d="M208,20L208,20c-1.317,0-2.394-1.077-2.394-2.394V3.394C205.606,2.077,206.683,1,208,1l0,0    c1.317,0,2.394,1.077,2.394,2.394v14.213C210.394,18.923,209.317,20,208,20z"/>
		<path fill="#AAAAAA" d="M213.606,20L213.606,20c-1.317,0-2.394-1.077-2.394-2.394V7.167c0-1.317,1.077-2.394,2.394-2.394h0    c1.317,0,2.394,1.077,2.394,2.394v10.44C216,18.923,214.923,20,213.606,20z"/>
		<path fill="#AAAAAA" d="M202.394,20L202.394,20c-1.317,0-2.394-1.077-2.394-2.394v-4.51c0-1.317,1.077-2.394,2.394-2.394h0    c1.317,0,2.394,1.077,2.394,2.394v4.51C204.787,18.923,203.71,20,202.394,20z"/>
	</g>
	<g>
		<path fill="#858585" d="M258,20L258,20c-1.317,0-2.394-1.077-2.394-2.394V3.394C255.606,2.077,256.683,1,258,1l0,0    c1.317,0,2.394,1.077,2.394,2.394v14.213C260.394,18.923,259.317,20,258,20z"/>
		<path fill="#858585" d="M263.606,20L263.606,20c-1.317,0-2.394-1.077-2.394-2.394V7.167c0-1.317,1.077-2.394,2.394-2.394l0,0    c1.317,0,2.394,1.077,2.394,2.394v10.44C266,18.923,264.923,20,263.606,20z"/>
		<path fill="#858585" d="M252.394,20L252.394,20c-1.317,0-2.394-1.077-2.394-2.394v-4.51c0-1.317,1.077-2.394,2.394-2.394h0    c1.317,0,2.394,1.077,2.394,2.394v4.51C254.787,18.923,253.71,20,252.394,20z"/>
	</g>
	<path fill-rule="evenodd" clip-rule="evenodd" fill="#AAAAAA" d="M310.5,1c5.799,0,10.5,3.509,10.5,7.838   c0,4.329-4.701,7.838-10.5,7.838c-0.434,0-0.863-0.02-1.283-0.058l-3.854,3.233c-0.368,0.311-0.964,0.118-0.981-0.404v-4.239   c-2.654-1.422-4.382-3.745-4.382-6.37C300,4.509,304.701,1,310.5,1L310.5,1z"/>
	<path fill-rule="evenodd" clip-rule="evenodd" fill="#858585" d="M360.5,1c5.799,0,10.5,3.509,10.5,7.838   c0,4.329-4.701,7.838-10.5,7.838c-0.434,0-0.863-0.02-1.283-0.058l-3.854,3.233c-0.368,0.311-0.964,0.118-0.981-0.404v-4.239   c-2.654-1.422-4.382-3.745-4.382-6.37C350,4.509,354.701,1,360.5,1L360.5,1z"/>
	<g>
		<path fill="#AAAAAA" d="M416.684,15.567h-12.46c-1.005,0-1.82-0.813-1.82-1.815l-1.422-6.714    c-0.205-0.966,0.409-1.929,1.379-2.127c0.118-0.024,0.241-0.037,0.367-0.037h15.452c1.005,0,1.82,0.813,1.82,1.815l-1.496,7.063    C418.504,14.754,417.689,15.567,416.684,15.567z"/>
		<g>
			<path fill="#AAAAAA" d="M406.811,16.225c-1.093-0.035-1.99,0.859-1.955,1.949c0.031,0.961,0.865,1.793,1.829,1.824     c1.093,0.035,1.991-0.859,1.955-1.95C408.609,17.088,407.775,16.257,406.811,16.225z"/>
			<path fill="#AAAAAA" d="M414.257,16.225c-1.093-0.035-1.99,0.859-1.955,1.949c0.031,0.961,0.865,1.793,1.829,1.824     c1.093,0.035,1.991-0.859,1.955-1.95C416.055,17.088,415.221,16.256,414.257,16.225z"/>
		</g>
		<path fill="#AAAAAA" d="M402.131,1.853c-0.122-0.581-0.694-0.952-1.276-0.83l0,0c-0.582,0.122-0.955,0.692-0.832,1.272    l1.275,6.238l1.823-1.986L402.131,1.853z"/>
	</g>
	<g>
		<path fill="#858585" d="M466.684,15.567h-12.46c-1.005,0-1.82-0.813-1.82-1.815l-1.422-6.714    c-0.205-0.966,0.409-1.929,1.379-2.127c0.118-0.024,0.241-0.037,0.367-0.037h15.452c1.005,0,1.82,0.813,1.82,1.815l-1.496,7.063    C468.504,14.754,467.689,15.567,466.684,15.567z"/>
		<g>
			<path fill="#858585" d="M456.811,16.225c-1.093-0.035-1.99,0.859-1.955,1.949c0.031,0.961,0.865,1.793,1.829,1.824     c1.093,0.035,1.991-0.859,1.955-1.95C458.609,17.088,457.775,16.257,456.811,16.225z"/>
			<path fill="#858585" d="M464.257,16.225c-1.093-0.035-1.99,0.859-1.955,1.949c0.031,0.961,0.865,1.793,1.829,1.824     c1.093,0.035,1.991-0.859,1.955-1.95C466.055,17.088,465.221,16.256,464.257,16.225z"/>
		</g>
		<path fill="#858585" d="M452.131,1.853c-0.122-0.581-0.694-0.952-1.276-0.83l0,0c-0.582,0.122-0.955,0.692-0.832,1.272    l1.275,6.238l1.823-1.986L452.131,1.853z"/>
	</g>
	<g>
		<path fill="#AAAAAA" d="M123.335,15.634c-0.549,0.222-1.178-0.033-1.406-0.569l-5.767-13.61c-0.228-0.537,0.033-1.152,0.582-1.374    c0.549-0.222,1.179,0.033,1.407,0.57l5.767,13.609C124.145,14.796,123.884,15.411,123.335,15.634z M115.41,2.218l5.435,12.826    l-7.294,0.838l0.187,1.315c0.149,1.16-0.68,2.231-1.853,2.392l-2.83,0.39c-1.172,0.16-2.242-0.649-2.391-1.81l-0.21-1.471    l-2.177,0.25c0.142,0.338-1.257,2.785-1.957,1.135l-2.202-5.197c-0.698-1.648,1.923-0.907,2.094-0.504L115.41,2.218z     M112.132,16.046l-4.259,0.49l0.206,1.439c0.05,0.387,0.407,0.658,0.797,0.603l2.831-0.389c0.389-0.053,0.667-0.41,0.617-0.798    L112.132,16.046z"/>
	</g>
	<g>
		<path fill="#848484" d="M173.335,15.634c-0.549,0.222-1.178-0.033-1.406-0.569l-5.767-13.61c-0.228-0.537,0.033-1.152,0.582-1.374    c0.549-0.222,1.179,0.033,1.407,0.57l5.767,13.609C174.145,14.796,173.884,15.411,173.335,15.634z M165.41,2.218l5.435,12.826    l-7.294,0.838l0.187,1.315c0.149,1.16-0.68,2.231-1.853,2.392l-2.83,0.39c-1.173,0.16-2.242-0.649-2.391-1.81l-0.21-1.471    l-2.177,0.25c0.142,0.338-1.257,2.785-1.957,1.135l-2.202-5.197c-0.698-1.648,1.923-0.907,2.094-0.504L165.41,2.218z     M162.132,16.046l-4.259,0.49l0.206,1.439c0.05,0.387,0.407,0.658,0.797,0.603l2.831-0.389c0.389-0.053,0.667-0.41,0.617-0.798    L162.132,16.046z"/>
	</g>
	<path fill="#E8302C" d="M271.484,101c-2.468,0-4.762,1.155-6.484,3.258c-1.72-2.101-4.01-3.255-6.474-3.255   c-3.648,0-7.525,2.749-7.525,7.846c0,5.243,4.632,8.902,8.015,11.574c1.28,1.014,2.22,1.733,2.984,2.317   c1.208,0.923,1.814,1.387,2.467,2.039c0.142,0.143,0.332,0.222,0.533,0.222c0.201,0,0.391-0.078,0.533-0.221   c0.864-0.862,1.649-1.459,3.752-3.059l1.69-1.289c2.805-2.139,8.025-6.122,8.025-11.634C279,103.732,275.127,101,271.484,101z"/>
	<path opacity="0.05" fill="none" stroke="#000000" stroke-miterlimit="10" d="M321.715,100.5c-2.556,0-4.932,1.203-6.716,3.393   c-1.782-2.189-4.153-3.39-6.706-3.39c-3.778,0-7.794,2.864-7.794,8.173c0,5.461,4.798,9.273,8.301,12.056   c1.326,1.056,2.299,1.805,3.091,2.413c1.251,0.962,1.879,1.445,2.556,2.124c0.147,0.149,0.344,0.231,0.552,0.231   c0.209,0,0.405-0.081,0.552-0.23c0.895-0.898,1.708-1.52,3.886-3.186l1.751-1.343c2.905-2.229,8.312-6.377,8.312-12.119   C329.5,103.346,325.489,100.5,321.715,100.5z"/>
	<g>
		<path fill="#FFFFFF" d="M321.484,102c3.159,0,6.516,2.382,6.516,6.797c0,5.018-4.965,8.805-7.632,10.839l-1.689,1.288    c-2.002,1.523-2.832,2.155-3.679,2.976c-0.642-0.617-1.29-1.113-2.393-1.955c-0.761-0.582-1.696-1.297-2.972-2.307    c-3.222-2.545-7.634-6.03-7.634-10.789c0-4.447,3.362-6.846,6.525-6.846c2.151,0,4.176,1.026,5.701,2.888l0.774,0.945l0.774-0.945    C317.3,103.027,319.328,102,321.484,102 M321.484,101c-2.468,0-4.762,1.155-6.484,3.258c-1.72-2.101-4.01-3.255-6.474-3.255    c-3.648,0-7.525,2.749-7.525,7.846c0,5.243,4.632,8.902,8.015,11.574c1.28,1.014,2.22,1.733,2.984,2.317    c1.208,0.923,1.814,1.387,2.467,2.039c0.142,0.143,0.332,0.222,0.533,0.222c0.201,0,0.391-0.078,0.533-0.221    c0.864-0.862,1.649-1.459,3.752-3.059l1.69-1.289c2.805-2.139,8.025-6.122,8.025-11.634C329,103.732,325.127,101,321.484,101    L321.484,101z"/>
	</g>
	<g>
		<path fill-rule="evenodd" clip-rule="evenodd" fill="#FFDA72" d="M456.543,53.956c1.405,0,2.543,1.139,2.543,2.543    c0,1.404-1.139,2.543-2.543,2.543c-1.405,0-2.543-1.139-2.543-2.543C454,55.095,455.139,53.956,456.543,53.956z"/>
		<path fill="#F0692A" d="M456.53,53.956c-1.403,0-2.543,1.141-2.543,2.543c0,1.403,1.141,2.543,2.543,2.543    c1.402,0,2.543-1.14,2.543-2.543C459.073,55.097,457.932,53.956,456.53,53.956z M456.53,57.763c-0.697,0-1.263-0.566-1.263-1.263    c0-0.696,0.566-1.263,1.263-1.263c0.696,0,1.263,0.567,1.263,1.263C457.793,57.196,457.226,57.763,456.53,57.763z"/>
		<path fill="#F0692A" d="M462.36,55.859h-1.477c-0.354,0-0.64,0.286-0.64,0.64c0,0.354,0.286,0.64,0.64,0.64h1.477    c0.354,0,0.64-0.286,0.64-0.64C463,56.146,462.714,55.859,462.36,55.859z"/>
		<path fill="#F0692A" d="M452.757,56.5c0-0.354-0.287-0.64-0.641-0.64h-1.477c-0.353,0-0.64,0.286-0.64,0.64    c0,0.354,0.287,0.64,0.64,0.64h1.477C452.47,57.14,452.757,56.853,452.757,56.5z"/>
		<path fill="#F0692A" d="M456.5,60.243c-0.353,0-0.64,0.286-0.64,0.64v1.477c0,0.354,0.287,0.64,0.64,0.64    c0.354,0,0.64-0.286,0.64-0.64v-1.477C457.14,60.529,456.854,60.243,456.5,60.243z"/>
		<path fill="#F0692A" d="M456.5,52.757c0.354,0,0.64-0.286,0.64-0.64V50.64c0-0.353-0.286-0.64-0.64-0.64    c-0.353,0-0.64,0.286-0.64,0.64v1.477C455.86,52.471,456.146,52.757,456.5,52.757z"/>
		<path fill="#F0692A" d="M460.052,59.146c-0.25-0.25-0.655-0.25-0.905,0c-0.25,0.25-0.25,0.656,0,0.906l1.044,1.044    c0.125,0.125,0.289,0.187,0.453,0.187c0.163,0,0.328-0.063,0.453-0.187c0.25-0.25,0.25-0.655,0-0.906L460.052,59.146z"/>
		<path fill="#F0692A" d="M452.948,53.853c0.125,0.125,0.289,0.187,0.452,0.187c0.164,0,0.328-0.062,0.452-0.187    c0.25-0.25,0.25-0.655,0-0.905l-1.044-1.044c-0.25-0.25-0.655-0.25-0.905,0c-0.251,0.25-0.251,0.655,0,0.905L452.948,53.853z"/>
		<path fill="#F0692A" d="M459.599,54.04c0.164,0,0.327-0.062,0.453-0.187l1.044-1.044c0.25-0.25,0.25-0.655,0-0.905    c-0.25-0.25-0.655-0.25-0.905,0l-1.044,1.044c-0.25,0.25-0.25,0.655,0,0.905C459.272,53.978,459.435,54.04,459.599,54.04z"/>
		<path fill="#F0692A" d="M452.948,59.146l-1.044,1.045c-0.251,0.25-0.251,0.655,0,0.905c0.125,0.125,0.288,0.187,0.452,0.187    c0.164,0,0.327-0.063,0.452-0.187l1.044-1.044c0.25-0.25,0.25-0.656,0-0.906C453.604,58.896,453.198,58.896,452.948,59.146z"/>
	</g>
	<g>
		<path fill="#FFFFFF" d="M491.041,55.478c-1.942,0-3.521,1.58-3.521,3.521c0,1.942,1.579,3.521,3.521,3.521    c1.941,0,3.521-1.579,3.521-3.521C494.563,57.058,492.983,55.478,491.041,55.478z M491.041,60.748    c-0.964,0-1.749-0.784-1.749-1.749c0-0.964,0.784-1.749,1.749-1.749c0.964,0,1.749,0.785,1.749,1.749    C492.79,59.964,492.005,60.748,491.041,60.748z"/>
		<path fill="#FFFFFF" d="M499.114,58.113h-2.045c-0.49,0-0.886,0.397-0.886,0.886c0,0.49,0.396,0.886,0.886,0.886h2.045    c0.49,0,0.886-0.397,0.886-0.886C500,58.51,499.604,58.113,499.114,58.113z"/>
		<path fill="#FFFFFF" d="M485.818,59c0-0.49-0.398-0.886-0.887-0.886h-2.045C482.397,58.113,482,58.51,482,59    c0,0.49,0.397,0.886,0.886,0.886h2.045C485.421,59.886,485.818,59.489,485.818,59z"/>
		<path fill="#FFFFFF" d="M491,64.182c-0.489,0-0.886,0.397-0.886,0.886v2.045c0,0.49,0.397,0.887,0.886,0.887    c0.49,0,0.886-0.397,0.886-0.887v-2.045C491.886,64.579,491.49,64.182,491,64.182z"/>
		<path fill="#FFFFFF" d="M491,53.817c0.49,0,0.886-0.397,0.886-0.887v-2.045c0-0.489-0.396-0.886-0.886-0.886    c-0.489,0-0.886,0.396-0.886,0.886v2.045C490.113,53.421,490.51,53.817,491,53.817z"/>
		<path fill="#FFFFFF" d="M495.918,62.664c-0.346-0.346-0.907-0.346-1.253,0c-0.347,0.346-0.347,0.908,0,1.254l1.446,1.446    c0.173,0.172,0.4,0.259,0.627,0.259c0.226,0,0.453-0.087,0.627-0.259c0.346-0.346,0.346-0.907,0-1.254L495.918,62.664z"/>
		<path fill="#FFFFFF" d="M486.082,55.335c0.173,0.173,0.4,0.259,0.626,0.259c0.227,0,0.454-0.086,0.627-0.259    c0.346-0.346,0.346-0.907,0-1.253l-1.446-1.445c-0.347-0.346-0.907-0.346-1.253,0c-0.347,0.346-0.347,0.907,0,1.253    L486.082,55.335z"/>
		<path fill="#FFFFFF" d="M495.291,55.594c0.227,0,0.453-0.086,0.627-0.259l1.446-1.446c0.346-0.347,0.346-0.907,0-1.253    c-0.347-0.346-0.907-0.346-1.253,0l-1.446,1.445c-0.347,0.347-0.347,0.907,0,1.253C494.838,55.508,495.064,55.594,495.291,55.594z    "/>
		<path fill="#FFFFFF" d="M486.082,62.664l-1.446,1.447c-0.347,0.346-0.347,0.907,0,1.253c0.173,0.172,0.399,0.259,0.626,0.259    c0.227,0,0.453-0.087,0.627-0.259l1.446-1.446c0.346-0.346,0.346-0.908,0-1.254C486.99,62.318,486.428,62.318,486.082,62.664z"/>
	</g>
	<g>
		<path fill="#BBBBBB" d="M456.636,102c2.556,0,4.636,2.193,4.636,4.889c0,2.696-2.08,4.89-4.636,4.89    c-2.556,0-4.636-2.194-4.636-4.89C452,104.193,454.08,102,456.636,102 M456.636,100c-3.665,0-6.636,3.085-6.636,6.889    c0,3.805,2.971,6.89,6.636,6.89s6.636-3.085,6.636-6.89C463.272,103.085,460.301,100,456.636,100L456.636,100z"/>
	</g>
	<path fill-rule="evenodd" clip-rule="evenodd" fill="#BBBBBB" d="M461.85,110.462l4.855,4.778c0,0,0.665,0.754,0,1.411   c-0.665,0.785-1.428,0-1.428,0l-4.854-4.778L461.85,110.462z"/>
	<g>
		<g>
			<path fill="#FFFFFF" d="M489.636,102c2.556,0,4.636,2.193,4.636,4.889c0,2.696-2.08,4.89-4.636,4.89     c-2.556,0-4.636-2.194-4.636-4.89C485,104.193,487.08,102,489.636,102 M489.636,100c-3.665,0-6.636,3.085-6.636,6.889     c0,3.805,2.971,6.89,6.636,6.89s6.636-3.085,6.636-6.89C496.272,103.085,493.301,100,489.636,100L489.636,100z"/>
		</g>
		<path fill-rule="evenodd" clip-rule="evenodd" fill="#FFFFFF" d="M494.85,110.462l4.855,4.778c0,0,0.665,0.754,0,1.411    c-0.665,0.785-1.428,0-1.428,0l-4.854-4.778L494.85,110.462z"/>
	</g>
	<path fill-rule="evenodd" clip-rule="evenodd" fill="#BABABB" d="M458.667,125.129l1.156,1.154c0.168,0.168,0.172,0.435,0.01,0.598   l-7.073,7.336c-0.163,0.162-0.431,0.158-0.599-0.01l-1.156-1.154c-0.168-0.168-0.172-0.435-0.009-0.598l7.073-7.336   C458.231,124.957,458.499,124.961,458.667,125.129z"/>
	<path fill-rule="evenodd" clip-rule="evenodd" fill="#BABABB" d="M459.87,140.705l-1.168,1.165c-0.17,0.169-0.441,0.174-0.605,0.01   l-7.977-8.1c-0.164-0.164-0.16-0.434,0.01-0.604l1.168-1.165c0.169-0.169,0.44-0.174,0.605-0.009l7.977,8.1   C460.044,140.265,460.04,140.535,459.87,140.705z"/>
	<g>
		<rect x="0.5" y="150.5" fill="#FFFFFF" width="14" height="14"/>
		<path fill="#CCCCCC" d="M14,151v13H1v-13H14 M15,150H0v15h15V150L15,150z"/>
	</g>
	<g>
		<rect x="0.5" y="175.5" fill="#FFFFFF" width="19" height="19"/>
		<path fill="#CCCCCC" d="M19,176v18H1v-18H19 M20,175H0v20h20V175L20,175z"/>
	</g>
	<g>
		<g>
			<rect x="50" y="150" fill="#515151" width="15" height="15"/>
		</g>
		<g>
			<path fill="#FFFFFF" d="M62.801,156.02l-5.138,4.875l-0.965,0.916C56.57,161.933,56.393,162,56.215,162     c-0.177,0-0.355-0.067-0.483-0.189l-0.965-0.916l-2.569-2.438C52.071,158.337,52,158.168,52,158s0.071-0.337,0.199-0.458     l0.965-0.916c0.128-0.121,0.305-0.189,0.483-0.189c0.177,0,0.355,0.067,0.483,0.189l2.086,1.987l4.655-4.424     c0.128-0.121,0.305-0.189,0.483-0.189c0.177,0,0.355,0.067,0.483,0.189l0.965,0.916c0.128,0.121,0.199,0.29,0.199,0.458     S62.929,155.899,62.801,156.02z"/>
		</g>
	</g>
	<g>
		<g>
			<rect x="50" y="175" fill="#515151" width="20" height="20"/>
		</g>
		<g>
			<path fill="#FFFFFF" d="M67.068,183.027l-6.851,6.501l-1.287,1.221C58.76,190.91,58.524,191,58.287,191     c-0.237,0-0.473-0.09-0.643-0.251l-1.287-1.221l-3.425-3.25c-0.17-0.162-0.265-0.386-0.265-0.611     c0-0.224,0.095-0.449,0.265-0.611l1.287-1.221c0.17-0.162,0.407-0.251,0.643-0.251c0.237,0,0.473,0.09,0.643,0.251l2.782,2.649     l6.207-5.899c0.17-0.162,0.407-0.251,0.643-0.251c0.237,0,0.473,0.09,0.643,0.251l1.287,1.221     c0.17,0.162,0.265,0.386,0.265,0.611C67.333,182.641,67.239,182.865,67.068,183.027z"/>
		</g>
	</g>
	<g id="XMLID_2_">
		<g id="XMLID_5_">
			<path fill-rule="evenodd" clip-rule="evenodd" fill="#FFFFFF" d="M108,165.5c-4.136,0-7.5-3.364-7.5-7.5s3.364-7.5,7.5-7.5     s7.5,3.364,7.5,7.5S112.136,165.5,108,165.5z"/>
			<path fill="#B0AFB0" d="M108,151c3.86,0,7,3.14,7,7s-3.14,7-7,7s-7-3.14-7-7S104.14,151,108,151 M108,150c-4.418,0-8,3.582-8,8     c0,4.418,3.582,8,8,8c4.418,0,8-3.582,8-8C116,153.582,112.418,150,108,150L108,150z"/>
		</g>
		<path id="XMLID_3_" fill-rule="evenodd" clip-rule="evenodd" fill="#08BD35" d="M108,154c2.209,0,4,1.791,4,4c0,2.209-1.791,4-4,4    c-2.209,0-4-1.791-4-4C104,155.791,105.791,154,108,154z"/>
	</g>
	<path id="XMLID_68_" fill-rule="evenodd" clip-rule="evenodd" fill="#FFFFFF" d="M158.75,167.5c1.657,0,3,1.343,3,3   c0,1.657-1.343,3-3,3c-1.657,0-3-1.343-3-3C155.75,168.843,157.093,167.5,158.75,167.5z"/>
	<g id="XMLID_70_">
		<path fill-rule="evenodd" clip-rule="evenodd" fill="#FFFFFF" d="M133,165.5c-4.136,0-7.5-3.364-7.5-7.5s3.364-7.5,7.5-7.5    s7.5,3.364,7.5,7.5S137.136,165.5,133,165.5z"/>
		<path fill="#B0AFB0" d="M133,151c3.86,0,7,3.14,7,7s-3.14,7-7,7s-7-3.14-7-7S129.14,151,133,151 M133,150c-4.418,0-8,3.582-8,8    c0,4.418,3.582,8,8,8c4.418,0,8-3.582,8-8C141,153.582,137.418,150,133,150L133,150z"/>
	</g>
	<g id="XMLID_67_">
		<path fill-rule="evenodd" clip-rule="evenodd" fill="#FFFFFF" d="M183,165.5c-4.136,0-7.5-3.364-7.5-7.5s3.364-7.5,7.5-7.5    s7.5,3.364,7.5,7.5S187.136,165.5,183,165.5z"/>
		<path fill="#C0C0C0" d="M183,151c3.86,0,7,3.14,7,7s-3.14,7-7,7s-7-3.14-7-7S179.14,151,183,151 M183,150c-4.418,0-8,3.582-8,8    c0,4.418,3.582,8,8,8c4.418,0,8-3.582,8-8C191,153.582,187.418,150,183,150L183,150z"/>
	</g>
	<g id="XMLID_66_">
		<g id="XMLID_77_">
			<path fill-rule="evenodd" clip-rule="evenodd" fill="#515151" d="M158,165.5c-4.136,0-7.5-3.364-7.5-7.5s3.364-7.5,7.5-7.5     s7.5,3.364,7.5,7.5S162.136,165.5,158,165.5z"/>
			<path fill="#515151" d="M158,151c3.86,0,7,3.14,7,7s-3.14,7-7,7s-7-3.14-7-7S154.14,151,158,151 M158,150c-4.418,0-8,3.582-8,8     c0,4.418,3.582,8,8,8c4.418,0,8-3.582,8-8C166,153.582,162.418,150,158,150L158,150z"/>
		</g>
		<path id="XMLID_1_" fill-rule="evenodd" clip-rule="evenodd" fill="#FFFFFF" d="M158,155c1.657,0,3,1.343,3,3c0,1.657-1.343,3-3,3    c-1.657,0-3-1.343-3-3C155,156.343,156.343,155,158,155z"/>
	</g>
	<g>
		<polygon fill="#7D8082" points="215.1,158.95 207.7,151.85 207.7,156.05 199.8,156.05 199.8,162.45 207.7,162.45 207.7,165.95       "/>
		<polygon fill="#7D8082" points="221.1,149.75 214.6,149.75 214.6,153.45 221.1,153.45 221.1,165.05 214.6,165.05 214.6,168.75     221.1,168.75 225,168.75 225,165.05 225,153.45 225,149.75   "/>
	</g>
	<g>
		<path fill="#7D8082" d="M270.1,150H263c-0.8,0-1.5,0.7-1.5,1.6v5.3c0,0.8,0.7,1.6,1.5,1.6h7.1c0.8,0,1.5-0.7,1.5-1.6v-5.3    C271.6,150.7,270.9,150,270.1,150z"/>
		<path fill="#7D8082" d="M258.6,150h-7.1c-0.8,0-1.5,0.7-1.5,1.6v5.3c0,0.8,0.7,1.6,1.5,1.6h7.1c0.8,0,1.5-0.7,1.5-1.6v-5.3    C260.1,150.7,259.4,150,258.6,150z"/>
		<path fill="#7D8082" d="M270.1,160.1H263c-0.8,0-1.5,0.7-1.5,1.6v5.9c0,0.8,0.7,1.6,1.5,1.6h7.1c0.8,0,1.5-0.7,1.5-1.6v-5.9    C271.6,160.8,270.9,160.1,270.1,160.1z"/>
		<path fill="#7D8082" d="M258.6,160.1h-7.1c-0.8,0-1.5,0.7-1.5,1.6v5.9c0,0.8,0.7,1.6,1.5,1.6h7.1c0.8,0,1.5-0.7,1.5-1.6v-5.9    C260.1,160.8,259.4,160.1,258.6,160.1z"/>
	</g>
</g>
</svg>