<svg xmlns="http://www.w3.org/2000/svg" width="225" height="37.5" viewBox="0 0 225 37.5"><circle fill="#3B5999" cx="18.8" cy="18.8" r="18.8"/><path fill="#FFF" d="M20.2 29.9V19.7h3.4l.5-4h-3.9v-2.5c0-1.1.3-1.9 2-1.9h2.1V7.8c-.4 0-1.6-.2-3.1-.2-3 0-5.1 1.8-5.1 5.2v2.9h-3.4v4h3.4v10.1h4.1v.1z"/><circle fill="#5FA9DD" cx="56.2" cy="18.8" r="18.8"/><path fill="#FFF" d="M53.2 27.8c-2.4 0-4.6-.7-6.4-1.9.3 0 .7.1 1 .1 2 0 3.8-.7 5.2-1.8-1.8 0-3.4-1.2-3.9-2.9.3 0 .5.1.8.1.4 0 .8-.1 1.1-.1-1.9-.4-3.4-2.1-3.4-4.1v-.1c.6.3 1.2.5 1.9.5-1.1-.8-1.9-2-1.9-3.5 0-.8.2-1.5.6-2.1 2.1 2.5 5.2 4.2 8.6 4.4-.1-.3-.1-.6-.1-1 0-2.3 1.9-4.2 4.2-4.2 1.2 0 2.3.5 3.1 1.3 1-.2 1.9-.5 2.7-1-.3 1-1 1.8-1.8 2.3.8-.1 1.7-.3 2.4-.7-.6.8-1.3 1.6-2.1 2.2v.5c-.1 5.6-4.3 12-12 12"/><circle fill="#CD3E2F" cx="93.8" cy="18.8" r="18.8"/><path fill="#FFF" d="M97.8 19.7v-1.3h6.6v1.3h-6.6zm2.7 2.6v-6.6h1.4v6.6h-1.4zM90.6 10c-.7 0-1.4.3-1.9.8-.5.6-.6 1.3-.6 2 0 1.8 1 4.7 3.3 4.7.7 0 1.4-.4 1.8-.8.6-.6.7-1.4.7-1.9.1-1.9-1-4.8-3.3-4.8zm-1.5 12.1c-.6.2-2.3.8-2.3 2.7 0 1.9 1.8 3.2 4.7 3.2 2.6 0 3.9-1.2 3.9-2.8 0-1.3-.9-2.1-2.9-3.5h-.6c-.2-.1-1.6 0-2.8.4zm7-12h-1.6c.6.5 1.8 1.5 1.8 3.5 0 1.9-1.1 2.9-2.2 3.7-.3.3-.7.7-.7 1.3 0 .6.4.9.7 1.1l1 .7c1.2 1 2.2 1.9 2.2 3.7 0 2.5-2.5 5-7.1 5-3.9 0-5.7-1.8-5.7-3.8 0-.9.5-2.3 2.1-3.2 1.7-1 3.9-1.1 5.1-1.2-.4-.5-.8-1-.8-1.8 0-.4.1-.7.3-1-.3 0-.6.1-.9.1-2.8 0-4.4-2.1-4.4-4.1 0-1.2.4-2.6 1.5-3.6C88.9 9.2 90.8 9 92.3 9h5.6l-1.8 1.1z"/><circle fill="#0177B5" cx="131.2" cy="18.8" r="18.8"/><path fill="#FFF" d="M140.7 27.2h-3.8v-6c0-1.4 0-3.3-2-3.3s-2.3 1.6-2.3 3.2v6.1h-3.8V14.9h3.7v1.7h.1c.5-1 1.8-2 3.6-2 3.9 0 4.6 2.5 4.6 5.9v6.7h-.1zm-16.2-14c-1.2 0-2.2-1-2.2-2.2 0-1.2 1-2.2 2.2-2.2 1.2 0 2.2 1 2.2 2.2 0 1.2-1 2.2-2.2 2.2zm1.9 14h-3.8V14.9h3.8v12.3m79.8 9.8c-10.1 0-18.2-8.2-18.2-18.2S196.2.6 206.2.6s18.2 8.2 18.2 18.2S216.3 37 206.2 37z"/><path fill="#CCC" d="M206.2 1C216 1 224 9 224 18.8s-8 17.8-17.8 17.8-17.8-8-17.8-17.8S196.5 1 206.2 1m0-1c-10.4 0-18.8 8.4-18.8 18.8s8.4 18.8 18.8 18.8S225 29.1 225 18.7 216.6 0 206.2 0z"/><path fill="#CCC" d="M214.6 10.5c-1.8-1.8-4.8-1.8-6.7 0l-3.4 3.4c1-.2 2.1-.1 3 .3l1.5-1.4c.9-.9 2.4-.9 3.3 0 .9.9.9 2.4 0 3.3l-3.1 3.1c-.9.9-2.4.9-3.4 0l-.1-.1c-.5-.4-1.2-.4-1.7.1l-1.2 1.2c.2.4.5.7.8 1 1.8 1.8 4.8 1.8 6.7 0l4.3-4.2c1.8-2 1.8-4.9 0-6.7zm-5.7 5.7c-1.8-1.8-4.8-1.8-6.7 0l-4.3 4.2c-1.8 1.8-1.8 4.8 0 6.6 1.8 1.8 4.8 1.8 6.7 0l3.4-3.4c-1 .2-2 .1-3-.3l-1.5 1.4c-.9.9-2.4.9-3.4 0-.9-.9-.9-2.4 0-3.3l3.1-3.1c.9-.9 2.4-.9 3.3 0l.1.1c.5.4 1.2.4 1.7-.1l1.2-1.1c0-.3-.3-.7-.6-1z"/><path fill="#FFF" d="M168.8 37c-10.1 0-18.2-8.2-18.2-18.2S158.8.6 168.8.6 187 8.7 187 18.7 178.8 37 168.8 37z"/><path fill="#CCC" d="M168.8 1c9.8 0 17.8 8 17.8 17.8s-8 17.8-17.8 17.8-17.8-8-17.8-17.8S159 1 168.8 1m0-1C158.4 0 150 8.4 150 18.7s8.4 18.8 18.8 18.8 18.8-8.4 18.8-18.8S179.1 0 168.8 0z"/><path fill="#CCC" d="M158.7 23.2v-9c0-1.2 1-2.2 2.3-2.2h15.4c1.3 0 2.3 1 2.3 2.2v9c0 1.2-1 2.2-2.3 2.2H161c-1.2 0-2.3-1-2.3-2.2zm18-9c0-.2-.1-.3-.3-.3H161c-.2 0-.3.1-.3.3v9c0 .2.1.3.3.3h15.4c.2 0 .3-.1.3-.3v-9z"/><path fill="#CCC" d="M168.6 21.1c-.2 0-.5-.1-.7-.2l-5.2-3.6c-.5-.4-.6-1-.2-1.5.4-.5 1.1-.5 1.6-.2l4.5 3.1 4.8-3.1c.5-.4 1.2-.3 1.6.2.4.5.3 1.1-.2 1.5l-5.5 3.6c-.3.1-.5.2-.7.2z"/></svg>