<?xml version="1.0" encoding="UTF-8" standalone="no"?>
<!-- Created with Inkscape (http://www.inkscape.org/) -->

<svg
   xmlns:dc="http://purl.org/dc/elements/1.1/"
   xmlns:cc="http://creativecommons.org/ns#"
   xmlns:rdf="http://www.w3.org/1999/02/22-rdf-syntax-ns#"
   xmlns:svg="http://www.w3.org/2000/svg"
   xmlns="http://www.w3.org/2000/svg"
   xmlns:sodipodi="http://sodipodi.sourceforge.net/DTD/sodipodi-0.dtd"
   xmlns:inkscape="http://www.inkscape.org/namespaces/inkscape"
   width="744.09448"
   height="744"
   id="svg2"
   version="1.1"
   inkscape:version="0.48.4 r9939"
   sodipodi:docname="revenue-cycle.svg">
  <defs
     id="defs4" />
  <sodipodi:namedview
     id="base"
     pagecolor="#ffffff"
     bordercolor="#666666"
     borderopacity="1.0"
     inkscape:pageopacity="0.0"
     inkscape:pageshadow="2"
     inkscape:zoom="0.49317622"
     inkscape:cx="688.3642"
     inkscape:cy="363.96727"
     inkscape:document-units="px"
     inkscape:current-layer="g3918"
     showgrid="false"
     inkscape:window-width="1366"
     inkscape:window-height="706"
     inkscape:window-x="-8"
     inkscape:window-y="-8"
     inkscape:window-maximized="1" />
  <metadata
     id="metadata7">
    <rdf:RDF>
      <cc:Work
         rdf:about="">
        <dc:format>image/svg+xml</dc:format>
        <dc:type
           rdf:resource="http://purl.org/dc/dcmitype/StillImage" />
        <dc:title></dc:title>
      </cc:Work>
    </rdf:RDF>
  </metadata>
  <g
     inkscape:label="Layer 1"
     inkscape:groupmode="layer"
     id="layer1"
     transform="translate(0,-308.36172)">
    <flowRoot
       xml:space="preserve"
       id="flowRoot3763"
       style="font-size:40px;font-style:normal;font-weight:normal;line-height:125%;letter-spacing:0px;word-spacing:0px;fill:#000000;fill-opacity:1;stroke:none;font-family:Sans"><flowRegion
         id="flowRegion3765"><rect
           id="rect3767"
           width="120.93078"
           height="161.03537"
           x="309.73087"
           y="26.918543" /></flowRegion><flowPara
         id="flowPara3769"></flowPara></flowRoot>    <flowRoot
       xml:space="preserve"
       id="flowRoot3771"
       style="font-size:40px;font-style:normal;font-weight:normal;line-height:125%;letter-spacing:0px;word-spacing:0px;fill:#000000;fill-opacity:1;stroke:none;font-family:Sans"><flowRegion
         id="flowRegion3773"><rect
           id="rect3775"
           width="135.73863"
           height="160.41838"
           x="298.008"
           y="32.471485" /></flowRegion><flowPara
         id="flowPara3777">SDFSDFSDFSDFS</flowPara></flowRoot>    <g
       id="g3918"
       transform="translate(0,322)">
      <path
         transform="matrix(0.79908674,0,0,0.79908674,296.11474,72.680328)"
         d="m 223.96873,48.513325 c 0,72.240325 -60.49602,130.802675 -135.121631,130.802675 -74.625614,0 -135.121628,-58.56235 -135.121628,-130.802675 0,-72.240322 60.496014,-130.802674 135.121628,-130.802674 74.625611,0 135.121631,58.562352 135.121631,130.802674 z"
         sodipodi:ry="130.80267"
         sodipodi:rx="135.12163"
         sodipodi:cy="48.513325"
         sodipodi:cx="88.847099"
         id="path3755"
         style="opacity:0.48672563;fill:#1255ff;fill-opacity:1;fill-rule:nonzero;stroke:none"
         sodipodi:type="arc" />
      <path
         sodipodi:type="arc"
         style="opacity:0.48672563;fill:#1255ff;fill-opacity:1;fill-rule:nonzero;stroke:none"
         id="path3757"
         sodipodi:cx="88.847099"
         sodipodi:cy="48.513325"
         sodipodi:rx="135.12163"
         sodipodi:ry="130.80267"
         d="m 223.96873,48.513325 c 0,72.240325 -60.49602,130.802675 -135.121631,130.802675 -74.625614,0 -135.121628,-58.56235 -135.121628,-130.802675 0,-72.240322 60.496014,-130.802674 135.121628,-130.802674 74.625611,0 135.121631,58.562352 135.121631,130.802674 z"
         transform="matrix(0.79908674,0,0,0.79908674,553.40114,317.62685)" />
      <path
         transform="matrix(0.79908674,0,0,0.79908674,306.60364,563.80737)"
         d="m 223.96873,48.513325 c 0,72.240325 -60.49602,130.802675 -135.121631,130.802675 -74.625614,0 -135.121628,-58.56235 -135.121628,-130.802675 0,-72.240322 60.496014,-130.802674 135.121628,-130.802674 74.625611,0 135.121631,58.562352 135.121631,130.802674 z"
         sodipodi:ry="130.80267"
         sodipodi:rx="135.12163"
         sodipodi:cy="48.513325"
         sodipodi:cx="88.847099"
         id="path3759"
         style="opacity:0.48672563;fill:#1255ff;fill-opacity:1;fill-rule:nonzero;stroke:none"
         sodipodi:type="arc" />
      <path
         transform="matrix(0.79908674,0,0,0.79908674,49.40114,317.62685)"
         d="m 223.96873,48.513325 c 0,72.240325 -60.49602,130.802675 -135.121631,130.802675 -74.625614,0 -135.121628,-58.56235 -135.121628,-130.802675 0,-72.240322 60.496014,-130.802674 135.121628,-130.802674 74.625611,0 135.121631,58.562352 135.121631,130.802674 z"
         sodipodi:ry="130.80267"
         sodipodi:rx="135.12163"
         sodipodi:cy="48.513325"
         sodipodi:cx="88.847099"
         id="path3761"
         style="opacity:0.48672563;fill:#1255ff;fill-opacity:1;fill-rule:nonzero;stroke:none"
         sodipodi:type="arc" />
      <text
         xml:space="preserve"
         style="font-size:22px;font-style:normal;font-weight:normal;line-height:125%;letter-spacing:0px;word-spacing:0px;fill:#000000;fill-opacity:1;stroke:none;font-family:Sans"
         x="296.44922"
         y="66.101364"
         id="text3948"
         sodipodi:linespacing="125%"><tspan
           sodipodi:role="line"
           x="299.5"
           y="66.101364"
           id="tspan3950"
           style="text-anchor:start;text-align:start;fill:#ffffff;-inkscape-font-specification:arial;font-family:arial"><tspan
             x="296.44922"
             y="66.101364"
             style="text-align:start;text-anchor:start;fill:#ffffff;-inkscape-font-specification:arial;font-family:arial"
             id="tspan3952">PHYSICIANS, </tspan></tspan><tspan
           sodipodi:role="line"
           x="320.29688"
           y="93.601364"
           id="tspan3954"
           style="text-anchor:start;text-align:start;fill:#ffffff;-inkscape-font-specification:arial;font-family:arial"><tspan
             x="317.24609"
             y="93.601364"
             style="text-align:start;text-anchor:start;fill:#ffffff;-inkscape-font-specification:arial;font-family:arial"
             id="tspan3956">MEDICAL </tspan></tspan><tspan
           sodipodi:role="line"
           x="302.59375"
           y="121.10137"
           id="tspan3958"
           style="text-anchor:start;text-align:start;fill:#ffffff;-inkscape-font-specification:arial;font-family:arial"><tspan
             x="299.54297"
             y="121.10137"
             style="text-align:start;text-anchor:start;fill:#ffffff;-inkscape-font-specification:arial;font-family:arial"
             id="tspan3960">GROUP AND </tspan></tspan><tspan
           sodipodi:role="line"
           x="327.04297"
           y="148.60136"
           id="tspan3962"
           style="text-anchor:start;text-align:start;fill:#ffffff;-inkscape-font-specification:arial;font-family:arial"><tspan
             x="323.99219"
             y="148.60136"
             style="text-align:start;text-anchor:start;fill:#ffffff;-inkscape-font-specification:arial;font-family:arial"
             id="tspan3964">BILLING </tspan></tspan><tspan
           sodipodi:role="line"
           x="323.99219"
           y="176.10136"
           id="tspan3966"
           style="text-anchor:start;text-align:start;fill:#ffffff;-inkscape-font-specification:arial;font-family:arial"><tspan
             x="323.99219"
             y="176.10136"
             style="text-align:start;text-anchor:start;fill:#ffffff;-inkscape-font-specification:arial;font-family:arial"
             id="tspan3968">HOUSE.</tspan></tspan></text>
      <text
         xml:space="preserve"
         style="font-size:22px;font-style:normal;font-weight:normal;line-height:125%;letter-spacing:0px;word-spacing:0px;fill:#000000;fill-opacity:1;stroke:none;font-family:Sans"
         x="594.20514"
         y="345.7352"
         id="text3980"
         sodipodi:linespacing="125%"><tspan
           sodipodi:role="line"
           x="594.20514"
           y="345.7352"
           id="tspan3982"
           style="text-align:start;text-anchor:start;fill:#ffffff;font-family:arial;-inkscape-font-specification:arial"><tspan
             x="594.20514"
             y="345.7352"
             style="text-align:start;text-anchor:start;fill:#ffffff;font-family:arial;-inkscape-font-specification:arial"
             id="tspan3984">CHDP </tspan></tspan><tspan
           sodipodi:role="line"
           x="570.35748"
           y="373.2352"
           id="tspan3986"
           style="text-align:start;text-anchor:start;fill:#ffffff;font-family:arial;-inkscape-font-specification:arial"><tspan
             x="570.35748"
             y="373.2352"
             style="text-align:start;text-anchor:start;fill:#ffffff;font-family:arial;-inkscape-font-specification:arial"
             id="tspan3988">GATEWAY</tspan></tspan></text>
      <text
         xml:space="preserve"
         style="font-size:22px;font-style:normal;font-weight:normal;line-height:125%;letter-spacing:0px;word-spacing:0px;fill:#000000;fill-opacity:1;stroke:none;font-family:Sans"
         x="313.0589"
         y="611.61279"
         id="text3990"
         sodipodi:linespacing="125%"><tspan
           sodipodi:role="line"
           x="313.0589"
           y="611.61279"
           id="tspan3992"
           style="text-anchor:start;text-align:start;fill:#ffffff;-inkscape-font-specification:arial;font-family:arial"><tspan
             x="313.0589"
             y="611.61279"
             style="text-align:start;text-anchor:start;fill:#ffffff;-inkscape-font-specification:arial;font-family:arial"
             id="tspan3994">INSURANCE</tspan></tspan></text>
      <text
         xml:space="preserve"
         style="font-size:22px;font-style:normal;font-weight:normal;line-height:125%;letter-spacing:0px;word-spacing:0px;fill:#000000;fill-opacity:1;stroke:none;font-family:Sans"
         x="85.395714"
         y="346.36823"
         id="text3996"
         sodipodi:linespacing="125%"><tspan
           sodipodi:role="line"
           x="85.395714"
           y="346.36823"
           id="tspan3998"
           style="text-align:start;text-anchor:start;fill:#ffffff;font-family:arial;-inkscape-font-specification:arial"><tspan
             x="85.395714"
             y="346.36823"
             style="text-align:start;text-anchor:start;fill:#ffffff;font-family:arial;-inkscape-font-specification:arial"
             id="tspan4000">CHDP </tspan></tspan><tspan
           sodipodi:role="line"
           x="61.548058"
           y="373.86823"
           id="tspan4002"
           style="text-align:start;text-anchor:start;fill:#ffffff;font-family:arial;-inkscape-font-specification:arial"><tspan
             x="61.548058"
             y="373.86823"
             style="text-align:start;text-anchor:start;fill:#ffffff;font-family:arial;-inkscape-font-specification:arial"
             id="tspan4004">GATEWAY</tspan></tspan></text>
      <path
         sodipodi:nodetypes="csssscccssssscsccc"
         inkscape:connector-curvature="0"
         id="path3886"
         d="m 108.4586,220.76215 c -1.70638,-25.24158 2.56181,-49.1769 12.51515,-70.18304 10.40536,-21.96012 28.72091,-41.17221 51.1261,-53.62871 2.29059,-1.273488 4.16471,-2.577619 4.16471,-2.898069 0,-0.32045 -3.91222,-5.176492 -8.69383,-10.791203 -4.78161,-5.614712 -8.59026,-10.312142 -8.46367,-10.438734 0.31269,-0.312683 66.75681,0.988759 67.08974,1.314088 0.23588,0.230503 -4.23996,75.035998 -4.50711,75.328038 -0.10642,0.11633 -19.43549,-23.46212 -20.20841,-24.65112 -0.22029,-0.33887 -2.35756,0.53939 -4.93595,2.02831 -9.90002,5.71689 -18.18132,12.75007 -24.7756,20.96794 -13.26909,16.53608 -19.70746,37.86894 -18.7587,62.92635 0.19916,5.25987 0.79229,11.9234 1.31808,14.80785 0.52578,2.88445 0.95635,5.45268 0.95682,5.70719 4.6e-4,0.25451 -10.36892,0.46275 -23.04307,0.46275 l -23.04391,0 -0.74035,-10.95164 z"
         style="fill:#000080;fill-opacity:1;fill-rule:nonzero;stroke:#ffffff;stroke-opacity:1" />
      <path
         sodipodi:nodetypes="csssscccssssscsccc"
         inkscape:connector-curvature="0"
         id="path3886-0"
         d="m 502.80615,101.16334 c 25.28239,-0.92177 49.07365,4.0876 69.76058,14.68841 21.62643,11.08225 40.26053,29.98553 52.0153,52.76671 1.20175,2.32903 2.44706,4.24274 2.76735,4.25269 0.3203,0.01 5.29548,-3.74959 11.05596,-8.35455 5.76048,-4.60496 10.57391,-8.26591 10.69651,-8.13545 0.30282,0.32225 -3.06119,66.69391 -3.3967,67.01658 -0.23772,0.22861 -74.86816,-6.56791 -75.15176,-6.844 -0.11297,-0.10998 24.05431,-18.69758 25.26673,-19.4332 0.34555,-0.20966 -0.46592,-2.37317 -1.87406,-4.99655 -5.40672,-10.07277 -12.17936,-18.56847 -20.1885,-25.41475 -16.11607,-13.77616 -37.23873,-20.87385 -62.31352,-20.70362 -5.26352,0.0357 -11.94225,0.42167 -14.84164,0.85764 -2.89938,0.43596 -5.47975,0.78657 -5.73415,0.77914 -0.2544,-0.007 -0.14055,-10.37829 0.253,-23.04633 l 0.71555,-23.03279 10.96935,-0.39993 z"
         style="fill:#000080;fill-opacity:1;fill-rule:nonzero;stroke:#ffffff;stroke-opacity:1" />
      <path
         style="fill:#000080;fill-opacity:1;fill-rule:nonzero;stroke:#ffffff;stroke-width:1;stroke-opacity:1"
         d="m 627.26582,489.28021 c 1.56015,25.25103 -2.84661,49.16124 -12.92145,70.10937 -10.5324,21.89948 -28.95892,41.00516 -51.43588,53.33167 -2.29793,1.26021 -4.17957,2.55346 -4.18143,2.8739 -0.002,0.32045 3.88217,5.19907 8.63118,10.84138 4.74901,5.64231 8.53039,10.36173 8.40307,10.48758 -0.3145,0.31087 -66.74996,-1.37541 -67.081,-1.70266 -0.23455,-0.23187 4.67451,-75.01019 4.94335,-75.30067 0.10709,-0.11571 19.29927,23.5743 20.06528,24.76775 0.21832,0.34015 2.36064,-0.52572 4.94761,-1.99968 9.93298,-5.65945 18.25488,-12.64455 24.89665,-20.82408 13.36464,-16.45893 19.92647,-37.75415 19.12287,-62.81664 -0.16866,-5.26094 -0.72322,-11.92779 -1.23229,-14.81524 -0.50907,-2.88744 -0.92475,-5.45813 -0.92375,-5.71264 5.7e-4,-0.25449 10.37143,-0.40267 23.04537,-0.32927 l 23.04351,0.13348 0.67691,10.95575 z"
         id="path3914"
         inkscape:connector-curvature="0"
         sodipodi:nodetypes="csssscccssssscsccc" />
      <path
         sodipodi:nodetypes="csssscccssssscsccc"
         inkscape:connector-curvature="0"
         id="path3916"
         d="m 236.81349,608.187 c -25.25406,1.51023 -49.15552,-2.94378 -70.08369,-13.06001 -21.87862,-10.57567 -40.94784,-29.03992 -53.22989,-51.54121 -1.25566,-2.30041 -2.54519,-4.18461 -2.86563,-4.1871 -0.32044,-0.003 -5.20673,3.87189 -10.858419,8.60973 -5.65169,4.73785 -10.37857,8.50989 -10.50417,8.38233 -0.31025,-0.31512 1.50736,-66.74711 1.83526,-67.07751 0.23233,-0.23409 75.000799,4.82278 75.290749,5.09219 0.1155,0.10732 -23.6124,19.25264 -24.80736,20.01629 -0.34059,0.21764 0.52105,2.36167 1.98989,4.95155 5.63981,9.94415 12.60844,18.27984 20.77483,24.93776 16.43248,13.39715 37.71468,20.00107 62.77871,19.24701 5.26126,-0.15826 11.9292,-0.69964 14.81765,-1.203 2.88844,-0.50336 5.45995,-0.91396 5.71445,-0.91246 0.25449,10e-4 0.38217,10.37221 0.28372,23.04598 l -0.17903,23.0432 -10.95707,0.65525 z"
         style="fill:#000080;fill-opacity:1;fill-rule:nonzero;stroke:#ffffff;stroke-width:1;stroke-opacity:1" />
    </g>
  </g>
</svg>
