<svg id="Layer_1" data-name="Layer 1" xmlns="http://www.w3.org/2000/svg" viewBox="0 0 200 200"><defs><style>.cls-1{fill:#c60104;}</style></defs><title>category08-security</title><path class="cls-1" d="M101.54,65.17a2.56,2.56,0,1,0,2.55,2.56A2.55,2.55,0,0,0,101.54,65.17Z"/><path class="cls-1" d="M67.73,99a2.56,2.56,0,1,0,2.56,2.56A2.56,2.56,0,0,0,67.73,99Z"/><path class="cls-1" d="M132.27,34.44A33.29,33.29,0,0,0,103,51.93L90.67,55a2.57,2.57,0,0,0-1.94,2.49v3.33A28.2,28.2,0,0,0,60.82,88.73H57.49A2.57,2.57,0,0,0,55,90.67L51.93,103a33.29,33.29,0,1,0,31.6,0L80.46,90.67A2.56,2.56,0,0,0,78,88.73H76.19A12.78,12.78,0,0,1,88.73,76.19V78a2.56,2.56,0,0,0,1.94,2.48L103,83.53a33.29,33.29,0,1,0,29.31-49.09ZM49.81,132.27a17.93,17.93,0,1,1,17.92,17.92A17.94,17.94,0,0,1,49.81,132.27Zm29-27A2.62,2.62,0,0,0,80.19,107a28.17,28.17,0,0,1-9.9,53.32v-5.15a23.05,23.05,0,1,0-5.12,0v5.15A28.17,28.17,0,0,1,55.27,107a2.56,2.56,0,0,0,1.35-1.68l2.87-11.47H76Zm9.89-34.25A17.9,17.9,0,0,0,71.07,88.73H65.94A23.09,23.09,0,0,1,88.73,65.94ZM132.27,95.9A28,28,0,0,1,107,80.19a2.58,2.58,0,0,0-1.67-1.35L93.85,76V59.49l11.47-2.87A2.52,2.52,0,0,0,107,55.27a28.18,28.18,0,0,1,53.33,9.9h-5.15a23.06,23.06,0,1,0,0,5.1h5.15A28.22,28.22,0,0,1,132.27,95.9Zm17.92-28.17a17.93,17.93,0,1,1-17.92-17.92A17.94,17.94,0,0,1,150.19,67.73Z"/></svg>