<svg id="Layer_1" data-name="Layer 1" xmlns="http://www.w3.org/2000/svg" viewBox="0 0 200 200"><defs><style>.cls-1{fill:#c60104;}</style></defs><title>category04-assetinspection</title><path class="cls-1" d="M148.67,65.93H109.73V53.77H121.9V56.2a2.44,2.44,0,0,0,4.87,0V53.77h7.3a2.3,2.3,0,0,0,2.43-2.44V41.6a2.29,2.29,0,0,0-2.43-2.43H109.73v-3.9A8.2,8.2,0,0,0,101.46,27H98.54a8.2,8.2,0,0,0-8.27,8.27v3.9H65.93A2.29,2.29,0,0,0,63.5,41.6v9.73a2.3,2.3,0,0,0,2.43,2.44h7.3V56.2a2.44,2.44,0,0,0,4.87,0V53.77H90.27V65.93H51.33a2.3,2.3,0,0,0-2.43,2.44V78.1a2.29,2.29,0,0,0,2.43,2.43H56.2V83a2.44,2.44,0,0,0,4.87,0V80.53H73.23V83a2.44,2.44,0,0,0,4.87,0V80.53H90.27v87.6H85.4a2.44,2.44,0,0,0,0,4.87h29.2a2.44,2.44,0,0,0,0-4.87h-4.87V80.53H121.9V83a2.44,2.44,0,0,0,4.87,0V80.53h12.16V83a2.44,2.44,0,0,0,4.87,0V80.53h4.87a2.29,2.29,0,0,0,2.43-2.43V68.37A2.3,2.3,0,0,0,148.67,65.93ZM95.13,35.27a3.33,3.33,0,0,1,3.41-3.4h2.92a3.33,3.33,0,0,1,3.41,3.4v3.9H95.13v-3.9ZM68.37,44h63.26V48.9H68.37V44Zm26.76,9.74h9.74V65.93H95.13V53.77Zm9.74,114.36H95.13v-4.86h2.44a2.44,2.44,0,0,0,0-4.87H95.13V156h2.44a2.44,2.44,0,0,0,0-4.87H95.13V80.53h9.74Zm41.36-92.46H53.77V70.8h92.46Z"/></svg>