<svg id="Layer_1" data-name="Layer 1" xmlns="http://www.w3.org/2000/svg" viewBox="0 0 200 200"><defs><style>.cls-1{fill:#c60104;}</style></defs><title>category07-equipment</title><path class="cls-1" d="M188.15,63.21H156.69v-3a2.67,2.67,0,1,0-5.33,0v3H119.91a2.67,2.67,0,1,0,0,5.33h31.45v3.64a8.36,8.36,0,0,0-5.68,7.91v3h-15a8.35,8.35,0,0,0-7.91-5.69H77.25a8.35,8.35,0,0,0-7.91,5.69h-15v-3a8.36,8.36,0,0,0-5.68-7.91V68.54H80.09a2.67,2.67,0,1,0,0-5.33H48.64v-3a2.67,2.67,0,1,0-5.33,0v3H11.85a2.67,2.67,0,1,0,0,5.33H43.31v3.64a8.36,8.36,0,0,0-5.69,7.91V91.47a8.35,8.35,0,0,0,16.7,0v-3h15a8.36,8.36,0,0,0,7.91,5.68h3v8.92a11.18,11.18,0,0,0-10.06,8.45L63.8,137.14H60.19a2.67,2.67,0,0,0,0,5.34H71.56a2.67,2.67,0,0,0,0-5.34H69.29l6.09-24.34a5.84,5.84,0,0,1,5.34-4.43A8.37,8.37,0,0,0,88.63,114h22.74a8.37,8.37,0,0,0,7.91-5.67,5.84,5.84,0,0,1,5.34,4.43l6.09,24.34h-2.27a2.67,2.67,0,0,0,0,5.34h11.37a2.67,2.67,0,0,0,0-5.34H136.2l-6.41-25.64a11.18,11.18,0,0,0-10.06-8.45V94.13h3a8.36,8.36,0,0,0,7.91-5.68h15v3a8.35,8.35,0,0,0,16.7,0V80.09a8.36,8.36,0,0,0-5.69-7.91V68.54h31.46a2.67,2.67,0,1,0,0-5.33ZM49,91.47a3,3,0,0,1-6,0V80.09a3,3,0,1,1,6,0Zm73.76-2.67H111.37a2.67,2.67,0,0,0,0,5.33h3v11.56a3,3,0,0,1-3,3H88.63a3,3,0,0,1-3-3V94.13H100a2.67,2.67,0,1,0,0-5.33H77.25a3,3,0,0,1,0-6h45.5a3,3,0,0,1,0,6Zm34.3,2.67a3,3,0,1,1-6,0V80.09a3,3,0,0,1,6,0Z"/></svg>