<svg id="Layer_1" data-name="Layer 1" xmlns="http://www.w3.org/2000/svg" viewBox="0 0 200 200"><defs><style>.cls-1{fill:#c60104;}</style></defs><title>category06-assessment</title><path class="cls-1" d="M70.32,111.54l-5.77-5.77a2.91,2.91,0,0,0-4.12,4.12l7.83,7.84a3,3,0,0,0,4.12,0l15.67-15.67a2.92,2.92,0,0,0,0-4.12,3,3,0,0,0-4.13,0Z"/><path class="cls-1" d="M70.32,142.87l-5.77-5.77a2.91,2.91,0,0,0-4.12,4.12l7.83,7.83a3,3,0,0,0,4.12,0l15.67-15.66a2.94,2.94,0,0,0,0-4.13,3,3,0,0,0-4.13,0Z"/><path class="cls-1" d="M84.13,82.28l-5.77-5.77,5.77-5.77A2.92,2.92,0,0,0,80,66.61l-5.77,5.77-5.77-5.77a2.92,2.92,0,0,0-5,2.06,2.92,2.92,0,0,0,.86,2.07l5.77,5.77-5.77,5.76a2.92,2.92,0,0,0,0,4.13,3,3,0,0,0,4.12,0l5.77-5.77L80,86.4a2.91,2.91,0,0,0,4.12-4.12Z"/><path class="cls-1" d="M172.68,72.94a10.76,10.76,0,0,0-15.2,0l-1.36,1.36L138.38,92l-1.71,1.7v-41A10.76,10.76,0,0,0,125.93,42H112.8l-.24-.66a10.77,10.77,0,0,0-10.13-7.17h-24a10.76,10.76,0,0,0-10.13,7.17l-.24.66H54.92A10.77,10.77,0,0,0,44.17,52.75V155.08a10.77,10.77,0,0,0,10.75,10.75h71a10.76,10.76,0,0,0,10.74-10.75V124.15l22.88-22.88,3.47,3.48a4.91,4.91,0,0,1,0,7l-16.61,16.61a2.92,2.92,0,0,0,4.12,4.13l16.62-16.61a10.76,10.76,0,0,0,0-15.2l-3.48-3.48,9-9A10.76,10.76,0,0,0,172.68,72.94ZM78.42,40h24a4.92,4.92,0,1,1,0,9.83h-24a4.92,4.92,0,1,1,0-9.83Zm52.42,115.08a4.92,4.92,0,0,1-4.91,4.92h-71A4.92,4.92,0,0,1,50,155.08V52.75a4.92,4.92,0,0,1,4.91-4.92H68.05l.24.67a10.76,10.76,0,0,0,10.13,7.17h24a10.77,10.77,0,0,0,10.13-7.17l.24-.67h13.13a4.92,4.92,0,0,1,4.91,4.92V99.58l-28.73,28.73a3,3,0,0,0-.71,1.15l-5.53,16.61a2.91,2.91,0,0,0,3.68,3.68l16.62-5.53a3.09,3.09,0,0,0,1.14-.71L130.84,130ZM109.71,129l7,6.95-3,3-10.43,3.48L106.72,132Zm11.07,2.83-7-6.95L148.47,90.2l6.95,7ZM168.56,84l-9,9-7-7,9-9a4.93,4.93,0,0,1,6.95,0,4.91,4.91,0,0,1,0,7Z"/></svg>