<svg id="Layer_1" data-name="Layer 1" xmlns="http://www.w3.org/2000/svg" viewBox="0 0 500 500"><defs><style>.cls-1{fill:#ffd9d9;}.cls-2{fill:#f7d43f;}.cls-3{fill:#606060;}.cls-4{fill:#d1d1d1;}.cls-5{fill:#fff;}</style></defs><title>whydronework05-serviceguarantee</title><polygon class="cls-1" points="251.5 99.55 274 122.05 317.5 109.55 332.5 157.55 366.5 179.55 350.5 215.55 361.5 251.55 335.5 278.55 317.5 316.55 274.5 309.55 250.5 342.55 216.5 315.55 178.5 315.55 162.5 270.55 130.5 252.55 149.5 214.55 128.5 175.55 164.5 152.55 176.5 117.55 216.5 120.55 251.5 99.55"/><path class="cls-2" d="M450.5,251.18A38.53,38.53,0,0,1,412,289.71a38.53,38.53,0,0,1,38.53-38.53Z"/><path class="cls-3" d="M412,294.71h-5v-5a43.53,43.53,0,0,1,43.53-43.53h5v5A43.58,43.58,0,0,1,412,294.71Zm33.09-38.09a33.58,33.58,0,0,0-27.66,27.64A33.6,33.6,0,0,0,445.06,256.62Z"/><path class="cls-2" d="M420.49,320.23a38.43,38.43,0,0,1,15.1,3.09A38.52,38.52,0,0,1,385,343.65,38.53,38.53,0,0,1,420.49,320.23Z"/><path class="cls-3" d="M400.09,351.74a43.29,43.29,0,0,1-17-3.49l-4.6-2,2-4.61a43.52,43.52,0,0,1,57.11-23l4.6,2-2,4.6A43.58,43.58,0,0,1,400.09,351.74Zm-7.91-11a33.61,33.61,0,0,0,36.28-14.59,33.55,33.55,0,0,0-36.28,14.59Z"/><path class="cls-2" d="M363.21,318.08a38.53,38.53,0,0,1-9.92,53.58A38.54,38.54,0,0,1,363.21,318.08Z"/><path class="cls-3" d="M352,378.61l-2.84-4.12A43.53,43.53,0,0,1,360.38,314l4.12-2.83,2.83,4.12a43.53,43.53,0,0,1-11.2,60.53Zm9.8-53a33.55,33.55,0,0,0-7.12,38.45,33.56,33.56,0,0,0,7.12-38.45Z"/><path class="cls-2" d="M385.78,393A38.53,38.53,0,0,1,331.33,391,38.52,38.52,0,0,1,385.78,393Z"/><path class="cls-3" d="M359.55,408.31c-.52,0-1.05,0-1.57,0a43.22,43.22,0,0,1-30.31-13.83l-3.41-3.66,3.66-3.41a43.52,43.52,0,0,1,61.52,2.18l3.4,3.66-3.65,3.41A43.25,43.25,0,0,1,359.55,408.31Zm-20.54-17a33.54,33.54,0,0,0,39.08,1.39A33.54,33.54,0,0,0,339,391.31Z"/><path class="cls-4" d="M277.67,417a5.93,5.93,0,0,1-5.87-5.77c-.24-2.67.75-6.13,1.63-8.56,1.8-5,3.45-7,6.08-7.52A152.23,152.23,0,0,0,404.18,245.23a10.69,10.69,0,0,1,21.38,0,173.6,173.6,0,0,1-142.2,170.9c-1.57.29-2.85.5-4,.69A10.32,10.32,0,0,1,277.67,417Z"/><path class="cls-3" d="M414.87,239.54a5.69,5.69,0,0,1,5.69,5.69,168.61,168.61,0,0,1-138.1,166c-1.52.28-2.76.49-3.9.67a5.42,5.42,0,0,1-.89.07c-2.76,0,1.54-11.71,2.74-11.93A157.22,157.22,0,0,0,409.18,245.23a5.69,5.69,0,0,1,5.69-5.69m0-10a15.71,15.71,0,0,0-15.69,15.69,147.23,147.23,0,0,1-120.58,145c-6.43,1.18-8.76,7.64-9.88,10.75-1.52,4.23-2.16,7.83-1.9,10.71.55,6,5.11,10.31,10.85,10.31a15.21,15.21,0,0,0,2.43-.19c1.25-.2,2.57-.42,4.16-.71a178.62,178.62,0,0,0,146.3-175.82,15.7,15.7,0,0,0-15.69-15.69Z"/><path class="cls-2" d="M76.74,262.46A38.37,38.37,0,0,1,88,289.71,38.53,38.53,0,0,1,49.5,251.18,38.4,38.4,0,0,1,76.74,262.46Z"/><path class="cls-3" d="M93,294.71H88A43.58,43.58,0,0,1,44.5,251.18v-5h5a43.24,43.24,0,0,1,30.78,12.75h0A43.24,43.24,0,0,1,93,289.71ZM54.94,256.62A33.6,33.6,0,0,0,82.6,284.26a33.58,33.58,0,0,0-27.66-27.64Z"/><path class="cls-2" d="M115,343.65a38.52,38.52,0,0,1-50.55-20.33A38.52,38.52,0,0,1,115,343.65Z"/><path class="cls-3" d="M99.91,351.74a43.58,43.58,0,0,1-40.1-26.46l-2-4.6,4.6-2a43.52,43.52,0,0,1,57.11,23l2,4.61-4.6,2A43.5,43.5,0,0,1,99.91,351.74ZM71.54,326.19a33.63,33.63,0,0,0,36.28,14.59,33.55,33.55,0,0,0-36.28-14.59Z"/><path class="cls-2" d="M146.71,371.66a38.53,38.53,0,0,1-9.92-53.58A38.54,38.54,0,0,1,146.71,371.66Z"/><path class="cls-3" d="M148,378.61l-4.12-2.83a43.53,43.53,0,0,1-11.2-60.53l2.83-4.12,4.12,2.83a43.53,43.53,0,0,1,11.21,60.53Zm-9.8-53a33.56,33.56,0,0,0,7.12,38.45,33.55,33.55,0,0,0-7.12-38.45Z"/><path class="cls-2" d="M142.42,380.7A38.37,38.37,0,0,1,168.67,391,38.53,38.53,0,0,1,114.22,393,38.41,38.41,0,0,1,142.42,380.7Z"/><path class="cls-3" d="M140.45,408.31a43.25,43.25,0,0,1-29.64-11.68l-3.65-3.41,3.4-3.66a43.52,43.52,0,0,1,61.52-2.18l3.66,3.41-3.41,3.66A43.22,43.22,0,0,1,142,408.28C141.5,408.3,141,408.31,140.45,408.31ZM121.91,392.7A33.54,33.54,0,0,0,161,391.31a33.54,33.54,0,0,0-39.08,1.39Z"/><path class="cls-4" d="M222.33,417a10.32,10.32,0,0,1-1.66-.13c-1.18-.19-2.46-.4-4-.69a173.6,173.6,0,0,1-142.2-170.9,10.69,10.69,0,0,1,21.38,0A152.23,152.23,0,0,0,220.49,395.1c2.63.48,4.28,2.52,6.08,7.52.88,2.43,1.87,5.89,1.63,8.56A5.93,5.93,0,0,1,222.33,417Z"/><path class="cls-3" d="M85.13,239.54a5.69,5.69,0,0,1,5.69,5.69A157.22,157.22,0,0,0,219.59,400c1.2.22,5.5,11.93,2.74,11.93a5.42,5.42,0,0,1-.89-.07c-1.14-.18-2.38-.39-3.9-.67a168.61,168.61,0,0,1-138.1-166,5.69,5.69,0,0,1,5.69-5.69m0-10a15.7,15.7,0,0,0-15.69,15.69,178.62,178.62,0,0,0,146.3,175.82c1.59.29,2.91.51,4.15.71a15.43,15.43,0,0,0,2.44.19c5.74,0,10.3-4.34,10.85-10.31.26-2.88-.38-6.48-1.9-10.71-1.12-3.11-3.45-9.57-9.88-10.75a147.23,147.23,0,0,1-120.58-145,15.71,15.71,0,0,0-15.69-15.69Z"/><polygon class="cls-5" points="242 154.05 238 189.05 223 202.05 218 254.05 254 258.05 288.33 255.72 309 203.05 296 192.05 265 190.05 263 175.05 262 158.05 254 158.05 242 154.05"/><polygon class="cls-4" points="216 198.05 219 260.05 196 256.05 195 194.05 216 198.05"/><path class="cls-3" d="M370.33,186.07a13.09,13.09,0,0,0-5.74-17.62l-28.14-14.28a2.65,2.65,0,0,1-1.45-2L330.1,121a13,13,0,0,0-12.93-11,14.66,14.66,0,0,0-2.08.15l-31.16,5a2.71,2.71,0,0,1-2.4-.78L259.28,91.91a13.07,13.07,0,0,0-18.55,0l-22.3,22.3a2.85,2.85,0,0,1-2,.83A1.08,1.08,0,0,1,216,115L184.87,110a14.46,14.46,0,0,0-2.08-.16,13,13,0,0,0-12.92,11.05L165,152.09a2.81,2.81,0,0,1-1.46,2L135.37,168.4a12.86,12.86,0,0,0-6.51,7.61,13,13,0,0,0,.78,10L144,214.1a2.69,2.69,0,0,1,0,2.5l-14.33,28.09a13.09,13.09,0,0,0,5.73,17.61l28.14,14.28a2.68,2.68,0,0,1,1.46,2l4.9,31.16a13,13,0,0,0,12.92,11.05,14.46,14.46,0,0,0,2.08-.16l31.16-5a2.74,2.74,0,0,1,2.4.78l22.3,22.3a13.07,13.07,0,0,0,18.55,0l22.31-22.3a2.72,2.72,0,0,1,2.39-.78l31.16,5a14.71,14.71,0,0,0,2.09.16,13,13,0,0,0,12.92-11.05l4.9-31.16a2.78,2.78,0,0,1,1.46-2l28.14-14.28a12.92,12.92,0,0,0,6.51-7.61,13.11,13.11,0,0,0-.78-10L356.05,216.6a2.64,2.64,0,0,1,0-2.5Zm-23.56,35.27,14.33,28.09a2.77,2.77,0,0,1,.16,2.13,2.56,2.56,0,0,1-1.41,1.62l-28.14,14.28a13,13,0,0,0-7,9.64l-4.9,31.16a2.78,2.78,0,0,1-3.18,2.29l-31.16-4.95a13.92,13.92,0,0,0-2.08-.16,13,13,0,0,0-9.28,3.86L252,331.6a2.82,2.82,0,0,1-3.91,0l-22.3-22.3a13.24,13.24,0,0,0-9.28-3.86,14.57,14.57,0,0,0-2.08.16l-31.16,4.95a2.78,2.78,0,0,1-3.18-2.29l-4.9-31.16a13.09,13.09,0,0,0-7-9.64l-28.14-14.28a2.71,2.71,0,0,1-1.41-1.62,3,3,0,0,1,.16-2.13l14.33-28.09a13,13,0,0,0,0-11.93l-14.33-28.09a2.76,2.76,0,0,1-.16-2.13,2.56,2.56,0,0,1,1.41-1.62l28.14-14.28a13,13,0,0,0,7-9.64l4.9-31.16a2.78,2.78,0,0,1,3.18-2.29l31.16,5a12.8,12.8,0,0,0,2.08.16h0a13,13,0,0,0,9.28-3.86L248,99.2a2.84,2.84,0,0,1,3.91,0l22.3,22.3a12.92,12.92,0,0,0,9.27,3.86,13.37,13.37,0,0,0,2.09-.16l31.16-5a2.81,2.81,0,0,1,3.18,2.3l4.89,31.16a13.17,13.17,0,0,0,7,9.64L360,177.62a2.75,2.75,0,0,1,1.4,1.62,2.79,2.79,0,0,1-.15,2.14l-14.33,28.08A12.94,12.94,0,0,0,346.77,221.34Z"/><path class="cls-3" d="M250,345.15A15.34,15.34,0,0,1,239,340.54l-22.29-22.28a.27.27,0,0,0-.19-.09l-31.21,5a16.69,16.69,0,0,1-2.47.19,15.49,15.49,0,0,1-15.4-13.17L162.5,279a.29.29,0,0,0-.17-.22l-28.09-14.25a15.58,15.58,0,0,1-6.82-21l14.32-28.08c0-.08,0-.14,0-.18l-14.35-28.13a15.62,15.62,0,0,1-.93-11.92,15.4,15.4,0,0,1,7.77-9.07l28.13-14.27a.29.29,0,0,0,.12-.23l4.9-31.12a15.47,15.47,0,0,1,15.39-13.16,16.66,16.66,0,0,1,2.46.19l31.24,5a.26.26,0,0,0,.17-.09L239,90.14a15.52,15.52,0,0,1,11-4.59,15.35,15.35,0,0,1,11.06,4.61L283.3,112.5a.25.25,0,0,0,.2.08l31.2-5a16.9,16.9,0,0,1,2.47-.18,15.47,15.47,0,0,1,15.4,13.16l4.9,31.15a.27.27,0,0,0,.16.22l28.09,14.25a15.59,15.59,0,0,1,6.83,21l-14.27,28a.2.2,0,0,0,0,.19l14.35,28.13a15.62,15.62,0,0,1,.94,11.92,15.45,15.45,0,0,1-7.78,9.07l-28.12,14.27s-.1.07-.13.23l-4.89,31.12a15.48,15.48,0,0,1-15.39,13.16,16.69,16.69,0,0,1-2.47-.19l-31.17-4.95a.27.27,0,0,0-.24.08l-22.3,22.3A15.52,15.52,0,0,1,250,345.15Zm-33.52-32a5.31,5.31,0,0,1,3.71,1.55L242.5,337a10.4,10.4,0,0,0,7.51,3.12,10.6,10.6,0,0,0,7.51-3.12l22.3-22.31a5.25,5.25,0,0,1,4.6-1.47l31.12,4.94a11.36,11.36,0,0,0,1.69.13,10.51,10.51,0,0,0,10.45-8.93l4.9-31.17a5.37,5.37,0,0,1,2.75-3.85l28.18-14.3a10.42,10.42,0,0,0,5.27-6.16,10.58,10.58,0,0,0-.64-8.11l-14.32-28.06a5.14,5.14,0,0,1,0-4.82l14.26-28a10.58,10.58,0,0,0-4.63-14.23L335.32,156.4a5.24,5.24,0,0,1-2.81-4l-4.88-31.06a10.51,10.51,0,0,0-10.46-8.93,11.83,11.83,0,0,0-1.7.12l-31.15,5a5.23,5.23,0,0,1-4.56-1.48L257.51,93.67a10.36,10.36,0,0,0-7.5-3.12,10.56,10.56,0,0,0-7.51,3.12L220.2,116a5.37,5.37,0,0,1-3.75,1.56,3.81,3.81,0,0,1-1-.11l-31-4.92a11.57,11.57,0,0,0-1.69-.13,10.5,10.5,0,0,0-10.45,8.93l-4.9,31.17a5.35,5.35,0,0,1-2.76,3.85l-28.18,14.3a10.46,10.46,0,0,0-5.27,6.16,10.64,10.64,0,0,0,.64,8.1L146.19,213a5.14,5.14,0,0,1,0,4.82l-14.31,28a10.59,10.59,0,0,0,4.63,14.24l28.15,14.29a5.22,5.22,0,0,1,2.81,4l4.88,31.06a10.51,10.51,0,0,0,10.46,8.94,11.71,11.71,0,0,0,1.7-.13l31.15-4.95A4.88,4.88,0,0,1,216.49,313.17ZM250,334.88a5.29,5.29,0,0,1-3.72-1.51L224,311.07a10.69,10.69,0,0,0-7.51-3.13,11.82,11.82,0,0,0-1.7.13L183.65,313a5.29,5.29,0,0,1-6.05-4.41l-4.89-31.12a10.65,10.65,0,0,0-5.64-7.8l-28.14-14.28a5.14,5.14,0,0,1-2.63-3l-.05-.16a5.55,5.55,0,0,1,.29-3.87l14.37-28.17a10.58,10.58,0,0,0,0-9.66l-14.34-28.09a5.32,5.32,0,0,1-.31-4A5.07,5.07,0,0,1,139,175.3l28.06-14.24a10.46,10.46,0,0,0,5.64-7.78l4.9-31.17a5.27,5.27,0,0,1,6.07-4.37l31.13,4.94a11.47,11.47,0,0,0,1.69.13,10.53,10.53,0,0,0,7.51-3.13l22.25-22.25a5.34,5.34,0,0,1,7.44,0L276,119.74a10.4,10.4,0,0,0,7.51,3.12,12,12,0,0,0,1.71-.13l31.15-5a5.29,5.29,0,0,1,6,4.33l4.9,31.21a10.71,10.71,0,0,0,5.65,7.8l28.14,14.27a5.2,5.2,0,0,1,2.63,3,5.27,5.27,0,0,1-.24,4L349.1,210.6a10.42,10.42,0,0,0-.1,9.61l14.33,28.08a5.32,5.32,0,0,1,.31,4,5.1,5.1,0,0,1-2.74,3.12l-28.06,14.24a10.46,10.46,0,0,0-5.64,7.78l-4.9,31.18a5.21,5.21,0,0,1-2.1,3.42,5.28,5.28,0,0,1-4,.95l-31.13-4.95a11.57,11.57,0,0,0-1.69-.13,10.55,10.55,0,0,0-7.51,3.13l-22.14,22.29A5.28,5.28,0,0,1,250,334.88ZM216.5,302.94a15.75,15.75,0,0,1,11,4.59l22.31,22.3a.67.67,0,0,0,.37,0l22.14-22.3a15.64,15.64,0,0,1,13.51-4.41l31.18,4.95a.32.32,0,0,0,.21-.05.36.36,0,0,0,.1-.12l4.9-31.2a15.46,15.46,0,0,1,8.33-11.49l28.27-14.35,0-.15s0-.1-.07-.24l-14.29-28a15.39,15.39,0,0,1,.13-14.19l14.31-28a.47.47,0,0,0,0-.15.77.77,0,0,0-.1-.2l-28.22-14.31a15.54,15.54,0,0,1-8.33-11.5l-4.89-31.15a.33.33,0,0,0-.29-.21l-31.19,5a15.84,15.84,0,0,1-2.48.19,15.35,15.35,0,0,1-11.06-4.61L250.17,101a.37.37,0,0,0-.38,0l-22.25,22.25a15.48,15.48,0,0,1-11,4.59,15.23,15.23,0,0,1-2.46-.19l-31.18-5a.34.34,0,0,0-.21,0,.29.29,0,0,0-.1.13L177.65,154a15.44,15.44,0,0,1-8.33,11.49l-28.27,14.35,0,.15s0,.08.07.25l14.29,28a15.59,15.59,0,0,1,0,14.21L141,250.56a.41.41,0,0,0,0,.24l.06.11,28.23,14.32a15.53,15.53,0,0,1,8.32,11.49l4.9,31.15a.24.24,0,0,0,.1.16.3.3,0,0,0,.18.06l31.2-5A16.9,16.9,0,0,1,216.5,302.94Z"/><path class="cls-3" d="M290.76,184.29h-23V168.35c0-8.44-2.56-14.59-7.61-18.29-7.77-5.73-17.93-2.76-19.07-2.4a5.15,5.15,0,0,0-3.6,4.9v20.37c0,14.33-17.09,19.39-17.77,19.6a6.43,6.43,0,0,0-1,.41,10.32,10.32,0,0,0-6.1-2H197.85a10.17,10.17,0,0,0-10.16,10.16V252a10.17,10.17,0,0,0,10.16,10.16h14.74a10.34,10.34,0,0,0,6.62-2.45A18.43,18.43,0,0,0,231,264h49.92c12.09,0,20.16-6.67,21.57-17.82l6.72-42.63a4.09,4.09,0,0,0,.05-.78A18.49,18.49,0,0,0,290.76,184.29Zm-78.27,67.64H198V201.28h14.49Zm79.83-7.19v.16c-.31,2.39-1.09,8.85-11.36,8.85H231a8.25,8.25,0,0,1-8.23-8.23V202.43c2.92-.89,25-8.24,25-29.44V156.94a9.65,9.65,0,0,1,6.25,1.46c2.24,1.66,3.34,5,3.34,9.95v21.1a5.13,5.13,0,0,0,5.16,5.16H290.7a8.16,8.16,0,0,1,8.18,7.87Z"/></svg>