<svg xmlns="http://www.w3.org/2000/svg" xmlns:xlink="http://www.w3.org/1999/xlink" viewBox="0 0 500 500"><defs><style>.cls-1{fill:none;}.cls-2{isolation:isolate;}.cls-3{fill:#ffd9d9;}.cls-4{clip-path:url(#clip-path);}.cls-5{fill:#606060;}.cls-6{fill:#fff;}.cls-7{fill:#f7d43f;}.cls-8{fill:#d1d1d1;}.cls-9{mix-blend-mode:multiply;}.cls-10{fill:#c60104;}</style><clipPath id="clip-path"><circle class="cls-1" cx="238" cy="205.09" r="111"/></clipPath></defs><title>whydronework02-userrated</title><g class="cls-2"><g id="Layer_1" data-name="Layer 1"><circle class="cls-3" cx="238" cy="205.09" r="111"/><g class="cls-4"><path class="cls-5" d="M310.6,213.62c0-41.19-32.57-74.7-72.6-74.7s-72.6,33.51-72.6,74.7c0,24.5,11.93,46.11,31.79,58.68a62.25,62.25,0,0,0-21.4,38.9,13.65,13.65,0,0,0,13.53,15.57h97.36a13.67,13.67,0,0,0,13.53-15.57,62.3,62.3,0,0,0-21.4-38.9C298.67,259.73,310.6,238.12,310.6,213.62Z"/><path class="cls-6" d="M263.47,265.33a6.68,6.68,0,0,0-.72,11.91A49.82,49.82,0,0,1,287,313.07c0,.05-.05,26.4-.14,26.5s-.13-26.15-.18-26.15H189.32s-2.69,45.48-2.79,45.37S189,313.12,189,313.07a49.82,49.82,0,0,1,24.25-35.83,6.68,6.68,0,0,0-.72-11.91c-21.16-9.05-33.79-28.38-33.79-51.71,0-33.83,26.58-61.35,59.26-61.35s59.26,27.52,59.26,61.35C297.26,237,284.63,256.28,263.47,265.33Z"/><polygon class="cls-6" points="229.22 290.48 203.61 315.02 214.28 356.65 250.57 356.65 256.98 348.11 276.19 328.9 280.45 320.36 252.71 290.48 229.22 290.48"/></g><path class="cls-5" d="M238,318.59a113.5,113.5,0,1,1,113.5-113.5A113.63,113.63,0,0,1,238,318.59Zm0-222a108.5,108.5,0,1,0,108.5,108.5A108.63,108.63,0,0,0,238,96.59Z"/><polygon class="cls-7" points="108.57 357.01 116.51 373.11 134.27 375.69 121.42 388.22 124.45 405.91 108.57 397.56 92.68 405.91 95.72 388.22 82.86 375.69 100.63 373.11 108.57 357.01"/><polygon class="cls-7" points="218.22 357.01 226.16 373.11 243.92 375.69 231.07 388.22 234.1 405.91 218.22 397.56 202.33 405.91 205.37 388.22 192.51 375.69 210.27 373.11 218.22 357.01"/><polygon class="cls-7" points="273.04 357.01 280.99 373.11 298.75 375.69 285.89 388.22 288.93 405.91 273.04 397.56 257.16 405.91 260.19 388.22 247.34 375.69 265.1 373.11 273.04 357.01"/><polygon class="cls-7" points="163.39 357.01 171.34 373.11 189.1 375.69 176.25 388.22 179.28 405.91 163.39 397.56 147.51 405.91 150.54 388.22 137.69 375.69 155.45 373.11 163.39 357.01"/><polygon class="cls-8" points="327.87 357.01 335.81 373.11 353.57 375.69 340.72 388.22 343.75 405.91 327.87 397.56 311.98 405.91 315.01 388.22 302.16 375.69 319.92 373.11 327.87 357.01"/><polygon class="cls-7" points="328.14 357.56 327.87 357.01 319.92 373.11 302.16 375.69 315.01 388.22 311.98 405.91 327.87 397.56 328.14 397.7 328.14 357.56"/><g class="cls-9"><path class="cls-10" d="M374.16,367.17c-4.54,4-6.27,8.62-6.27,15.31s1.73,11.24,6.27,15.28L373,398.92c-4.79-4.1-7.2-9.56-7.2-16.44s2.41-12.36,7.2-16.48Z"/><path class="cls-10" d="M384,369.09v23.39h-2V374.9c0-1,0-2,.06-3.12a12.18,12.18,0,0,1-6.12,3.69l-.54-1.81c1.95-.46,5.57-2.52,6.84-4.57Z"/><path class="cls-10" d="M389.73,380.78c0-7.8,3-12,8.58-12s8.57,4.25,8.57,12-3,12.05-8.57,12.05S389.73,388.58,389.73,380.78Zm15.06,0c0-6.62-2.27-10.24-6.48-10.24s-6.49,3.62-6.49,10.24S394.13,391,398.31,391,404.79,387.41,404.79,380.78Z"/><path class="cls-10" d="M417.14,382.48c0,6.88-2.41,12.34-7.2,16.44l-1.13-1.16c4.54-4,6.27-8.61,6.27-15.28s-1.73-11.27-6.27-15.31l1.13-1.17C414.73,370.12,417.14,375.57,417.14,382.48Z"/></g><path class="cls-5" d="M238,323.59a118.5,118.5,0,1,1,118.5-118.5A118.64,118.64,0,0,1,238,323.59Zm0-222a103.5,103.5,0,1,0,103.5,103.5A103.62,103.62,0,0,0,238,101.59Z"/><polygon class="cls-6" points="327.74 258.53 323.57 263.86 320.05 269.33 318.81 287.27 344.47 311.37 346.84 313.23 352.63 318.53 397.54 307.05 394.7 287.25 383.03 241.61 375.85 238.09 373.97 247.32 366.93 241.43 362.12 238.05 358.14 244.11 351.03 238.54 344.56 239.97 341.78 243.53 331.31 213.93 323.94 209.69 318.64 215.48 321.5 228.42 327.74 258.53"/><path class="cls-5" d="M382.11,239.31a8.25,8.25,0,0,0-10.59,2.11,9.27,9.27,0,0,0-14.73-.08,9.27,9.27,0,0,0-10.45-4.19,9.13,9.13,0,0,0-4.59,2.94L335,215.6a9.28,9.28,0,0,0-17.89,5l10.53,37.88a13.43,13.43,0,0,0-2.23.41,8.38,8.38,0,0,0-5.82,10.29,8.66,8.66,0,0,0,.38,1.08,6.66,6.66,0,0,1-.08,5.44l-1.8,3.86a10.39,10.39,0,0,0,1.54,11.13L332,305.17a17.61,17.61,0,0,0,7.88,5.26,35,35,0,0,0,4.42,1.19,4.17,4.17,0,0,1,2.1,1,4.25,4.25,0,0,1,1.22,2l2,7.16a2,2,0,0,0,1,1.22,2,2,0,0,0,1.54.19l46.55-12.94a2,2,0,0,0,1.42-2.5,47.63,47.63,0,0,1-1.74-13.43A37.55,37.55,0,0,0,397,283.87l-11-39.55a8.23,8.23,0,0,0-3.91-5Zm12.19,54.94a51.92,51.92,0,0,0,1.38,12.61L353,318.72l-1.45-5.2a8.19,8.19,0,0,0-6.55-5.91,29.78,29.78,0,0,1-3.84-1.05,13.48,13.48,0,0,1-6.06-4L322.66,288a6.3,6.3,0,0,1-.93-6.76l1.8-3.87a10.7,10.7,0,0,0,.12-8.76,4.11,4.11,0,0,1-.19-.56,4.29,4.29,0,0,1,3-5.28,8.32,8.32,0,0,1,2.26-.31l5.68,20.45a2,2,0,0,0,3.92-1.09L321,219.48a5.23,5.23,0,0,1,3.63-6.42,5.23,5.23,0,0,1,6.42,3.63l11.39,41a2,2,0,0,0,3.92-1.09l-2.55-9.19a5.21,5.21,0,0,1,10-2.74l1.34,4.82a2,2,0,0,0,3.92-1.09,5.21,5.21,0,1,1,10-2.79l.91,3.27a2,2,0,1,0,3.92-1.08,4.34,4.34,0,0,1,2.85-5.34,4.22,4.22,0,0,1,5.28,2.93l11,39.55h0a33.15,33.15,0,0,1,1.2,9.29Zm0,0"/><path class="cls-5" d="M351.59,324.26a3.12,3.12,0,0,1-1.48-.39,3.08,3.08,0,0,1-1.44-1.84l-2-7.16a3.13,3.13,0,0,0-.92-1.49,3.17,3.17,0,0,0-1.6-.78,33.35,33.35,0,0,1-4.56-1.22,18.58,18.58,0,0,1-8.33-5.56l-12.45-14.51a11.34,11.34,0,0,1-1.68-12.2l1.8-3.87a5.65,5.65,0,0,0,.06-4.61,10.25,10.25,0,0,1-.42-1.21,9.35,9.35,0,0,1,6.52-11.52c.4-.11.81-.21,1.22-.28L316.1,220.84a10.28,10.28,0,1,1,19.81-5.51l6.35,22.85a10.26,10.26,0,0,1,14.63,1.54,10.09,10.09,0,0,1,4.48-2.6,10.22,10.22,0,0,1,10.17,2.78,9,9,0,0,1,3.85-2.28,9.23,9.23,0,0,1,7.21.82h0a9.28,9.28,0,0,1,4.39,5.61l11,39.56a38,38,0,0,1,1.39,10.71,46.74,46.74,0,0,0,1.7,13.15,3,3,0,0,1-2.11,3.74l-46.55,12.93A2.91,2.91,0,0,1,351.59,324.26ZM326,209.8a8.43,8.43,0,0,0-2.22.31A8.28,8.28,0,0,0,318,220.3l10.85,39-1.2.11a11.36,11.36,0,0,0-2.05.38,7.35,7.35,0,0,0-4.79,10,7.65,7.65,0,0,1-.09,6.25L319,280A9.39,9.39,0,0,0,320.33,290l12.46,14.51a16.62,16.62,0,0,0,7.43,5,32.31,32.31,0,0,0,4.28,1.15,5.15,5.15,0,0,1,4.11,3.71l2,7.16a1,1,0,0,0,1.27.72l46.56-12.94a1,1,0,0,0,.72-1.27,48.55,48.55,0,0,1-1.78-13.72,36.33,36.33,0,0,0-1.32-10.15l-11-39.55a7.28,7.28,0,0,0-3.44-4.41h0a7.26,7.26,0,0,0-5.67-.64,7.13,7.13,0,0,0-3.64,2.5l-.79,1-.79-1a8.23,8.23,0,0,0-8.82-3,8.15,8.15,0,0,0-4.32,2.9l-.9,1.16-.75-1.26a8.28,8.28,0,0,0-13.43-1.12l-1.22,1.45L334,215.87a8.24,8.24,0,0,0-3.9-5A8.32,8.32,0,0,0,326,209.8ZM352.31,320l-1.71-6.17a7.27,7.27,0,0,0-5.75-5.19,30.88,30.88,0,0,1-4-1.08,14.39,14.39,0,0,1-6.5-4.34L321.9,288.66a7.32,7.32,0,0,1-1.08-7.83l1.8-3.87a9.72,9.72,0,0,0,.12-7.94,7.24,7.24,0,0,1-.25-.69,5.3,5.3,0,0,1,3.69-6.51,9.46,9.46,0,0,1,2.52-.35h.77l5.89,21.19a1,1,0,0,0,.48.62,1,1,0,0,0,.79.1,1.08,1.08,0,0,0,.62-.49,1,1,0,0,0,.1-.78L320,219.75a6.21,6.21,0,1,1,12-3.33l11.4,41a1,1,0,0,0,.48.62,1,1,0,0,0,1.51-1.17l-2.55-9.19a6.21,6.21,0,0,1,12-3.28l1.34,4.82a1,1,0,0,0,1.27.72,1,1,0,0,0,.72-1.28,6.21,6.21,0,0,1,9-7.06,6.18,6.18,0,0,1,2.93,3.74l.91,3.28a1,1,0,0,0,1.27.71,1,1,0,0,0,.62-.48,1,1,0,0,0,.1-.79,5.33,5.33,0,0,1,3.53-6.56,5.2,5.2,0,0,1,4.06.46,5.26,5.26,0,0,1,2.47,3.16l11,39.56a34.29,34.29,0,0,1,1.24,9.56h0a50.89,50.89,0,0,0,1.36,12.37l.22.93ZM328,263.51a7.52,7.52,0,0,0-1.24.23,3.31,3.31,0,0,0-2.3,4.05,3.81,3.81,0,0,0,.15.44,11.73,11.73,0,0,1-.13,9.57l-1.81,3.87a5.33,5.33,0,0,0,.79,5.69l12.45,14.51a12.51,12.51,0,0,0,5.61,3.74,28.71,28.71,0,0,0,3.7,1,9.24,9.24,0,0,1,7.35,6.63l1.18,4.24,40.79-11.34a52.92,52.92,0,0,1-1.2-11.91,31.85,31.85,0,0,0-1.17-9l-11-39.55a3.2,3.2,0,0,0-1.53-2,3.23,3.23,0,0,0-2.51-.28,3.32,3.32,0,0,0-2.16,4.11,3.07,3.07,0,0,1-.28,2.3,3,3,0,0,1-5.57-.68l-.91-3.28A4.23,4.23,0,0,0,363,243a4.24,4.24,0,0,0-2.93,5.19,3,3,0,1,1-5.84,1.62L352.88,245a4.21,4.21,0,0,0-8.13,2.21l2.56,9.18a3,3,0,0,1-5.85,1.63l-11.4-41a4.21,4.21,0,0,0-7.72-1,4.12,4.12,0,0,0-.39,3.2l17.32,62.35a3,3,0,0,1-.28,2.31,3,3,0,0,1-4.13,1.14,3,3,0,0,1-1.43-1.82Z"/></g></g></svg>