<svg id="Layer_1" data-name="Layer 1" xmlns="http://www.w3.org/2000/svg" viewBox="0 0 200 200"><defs><style>.cls-1{fill:#c60104;}</style></defs><title>category05-surveying</title><path class="cls-1" d="M171.78,100A71.86,71.86,0,0,0,100,28.22c-19.94,0-36.52,6.91-50.67,21.12a2.4,2.4,0,0,0,0,3.38L62.78,66.16h0l35.53,35.52a2.39,2.39,0,0,0,3.38-3.38l-6.62-6.62A9.64,9.64,0,1,1,90.43,100a2.4,2.4,0,0,0-4.79,0A14.36,14.36,0,1,0,100,85.64a14.12,14.12,0,0,0-8.4,2.57L81.47,78.09a28.7,28.7,0,1,1,27.32,49.24,9.56,9.56,0,0,0-17.58,0,28.65,28.65,0,0,1-17-39.87,2.39,2.39,0,0,0-4.3-2.1,33.41,33.41,0,0,0,20.63,46.75,9.52,9.52,0,0,0,18.94,0A33.48,33.48,0,1,0,78.09,74.7L67.94,64.56a47.63,47.63,0,0,1,59.08-4A9.54,9.54,0,0,0,139.45,73a47.38,47.38,0,0,1,8.4,27A47.85,47.85,0,1,1,60,73.71a2.39,2.39,0,0,0-4-2.63,52.65,52.65,0,1,0,87.25-1,9.51,9.51,0,0,0-13.4-13.39,52.39,52.39,0,0,0-65.33,4.45L54.43,51.05C67.26,38.91,82.19,33,100,33a66.93,66.93,0,0,1,53.53,107.18,9.53,9.53,0,0,0-13.34,13.34,67,67,0,0,1-96.88-89.2,2.4,2.4,0,0,0-4.05-2.56A71.73,71.73,0,0,0,144,156.62,9.56,9.56,0,0,0,156.62,144,71.9,71.9,0,0,0,171.78,100ZM100,135.89a4.79,4.79,0,1,1,4.79-4.79A4.8,4.8,0,0,1,100,135.89Zm35.89-76.57a4.78,4.78,0,0,1,3.4,8.15,2.62,2.62,0,0,0-.65.32,2.06,2.06,0,0,0-.42.47,4.73,4.73,0,0,1-2.33.64,4.79,4.79,0,1,1,0-9.58Zm12,93.32a4.76,4.76,0,0,1-2-.43s0-.05,0-.07a2.37,2.37,0,0,0-1.17-.74,4.73,4.73,0,0,1-1.61-3.55,4.79,4.79,0,1,1,4.78,4.79Z"/></svg>