<svg id="Layer_1" data-name="Layer 1" xmlns="http://www.w3.org/2000/svg" viewBox="0 0 200 200"><defs><style>.cls-1{fill:#c60104;}</style></defs><title>category01-agriculture</title><path class="cls-1" d="M146.48,157.18h-7.71c-9-7.72-22.3-12.27-36.79-12.65V132.84l9.12-9.12a27.67,27.67,0,0,0,5.05.47,30.64,30.64,0,0,0,21.47-9.06C145,107.76,148.2,97.18,146,87.52A2,2,0,0,0,144.5,86c-9.66-2.21-20.24,1-27.61,8.37a30.16,30.16,0,0,0-8.59,26.52L102,127.24V90.72l6-6a21.32,21.32,0,0,0,3.48.29,22.79,22.79,0,0,0,16-6.74,22.39,22.39,0,0,0,6.23-20.56,2,2,0,0,0-1.49-1.49,22.79,22.79,0,0,0-27,25.7L102,85.11V81.28a22.94,22.94,0,0,0-6.65-16.21,22.79,22.79,0,0,0-27-25.69,2,2,0,0,0-1.49,1.48,22.4,22.4,0,0,0,6.23,20.57,22.79,22.79,0,0,0,16,6.74,20.39,20.39,0,0,0,3.49-.3A19,19,0,0,1,98,81.28v29.06L91.7,104A30.15,30.15,0,0,0,83.11,77.5c-7.37-7.37-18-10.58-27.61-8.37A2,2,0,0,0,54,70.62c-2.21,9.66,1,20.24,8.37,27.61a30.63,30.63,0,0,0,21.47,9,27.66,27.66,0,0,0,5.05-.46L98,115.94v28.59c-14.49.38-27.76,4.93-36.79,12.65H53.52a2,2,0,0,0,0,4h93a2,2,0,1,0,0-4Zm-26.79-60a26.19,26.19,0,0,1,22.68-7.55,26.19,26.19,0,0,1-7.55,22.68,26.51,26.51,0,0,1-20.18,7.85l18.5-18.49a2,2,0,1,0-2.8-2.81l-18.5,18.5A26.55,26.55,0,0,1,119.69,97.2Zm-5.33-31.91A18.56,18.56,0,0,1,130,59.89a18.55,18.55,0,0,1-5.4,15.63,18.82,18.82,0,0,1-13,5.58L123,69.71a2,2,0,0,0-2.8-2.8l-11.41,11.4A18.89,18.89,0,0,1,114.36,65.29ZM70.46,43a18.56,18.56,0,0,1,15.63,5.4,18.89,18.89,0,0,1,5.58,13L80.27,50a2,2,0,0,0-2.8,2.8L88.88,64.21a18.83,18.83,0,0,1-13-5.58A18.55,18.55,0,0,1,70.46,43ZM65.18,95.43a26.2,26.2,0,0,1-7.55-22.69A26.23,26.23,0,0,1,80.31,80.3a26.54,26.54,0,0,1,7.85,20.17L69.66,82a2,2,0,1,0-2.8,2.8l18.5,18.49A26.5,26.5,0,0,1,65.18,95.43Zm34.82,53c12.06,0,23.65,3.2,32.14,8.72H67.86C76.35,151.66,87.94,148.46,100,148.46Z"/></svg>