<svg id="Layer_1" data-name="Layer 1" xmlns="http://www.w3.org/2000/svg" viewBox="0 0 200 200"><defs><style>.cls-1{fill:#c60104;}</style></defs><title>category03-photographyvideography</title><path class="cls-1" d="M100,72.56a34.86,34.86,0,1,0,34.86,34.85A34.89,34.89,0,0,0,100,72.56Zm0,64.16a29.31,29.31,0,1,1,29.31-29.31A29.35,29.35,0,0,1,100,136.72Z"/><path class="cls-1" d="M100,85.66a21.75,21.75,0,1,0,21.75,21.75A21.78,21.78,0,0,0,100,85.66Zm0,38.24a16.49,16.49,0,1,1,16.49-16.49A16.51,16.51,0,0,1,100,123.9Z"/><path class="cls-1" d="M159.09,62.45H123.36l-3.65-9.94a7.49,7.49,0,0,0-7-4.89H87.29a7.49,7.49,0,0,0-7,4.89l-3.65,9.94H64.5v-3.9a5.7,5.7,0,0,0-5.7-5.69H50.39a5.69,5.69,0,0,0-5.69,5.69v3.9H40.91a8.78,8.78,0,0,0-8.77,8.76v72.4a8.78,8.78,0,0,0,8.77,8.77H159.09a8.78,8.78,0,0,0,8.77-8.77V71.21A8.78,8.78,0,0,0,159.09,62.45ZM162,130.27h-8.65V84.56H162ZM85.77,54.52a1.62,1.62,0,0,1,1.52-1.05h25.42a1.63,1.63,0,0,1,1.52,1.05l2.91,7.93H82.86Zm-35.52,4a.14.14,0,0,1,.14-.14H58.8a.15.15,0,0,1,.15.14v3.9h-8.7ZM38,84.56h8.65v45.71H38Zm121.1,62H40.91A2.92,2.92,0,0,1,38,143.61v-7.5H49.56a2.92,2.92,0,0,0,2.92-2.92V81.63a2.92,2.92,0,0,0-2.92-2.92H38v-7.5a2.92,2.92,0,0,1,2.92-2.92H159.09A2.92,2.92,0,0,1,162,71.21v7.5H150.44a2.92,2.92,0,0,0-2.92,2.92v51.56a2.92,2.92,0,0,0,2.92,2.92H162v7.5A2.92,2.92,0,0,1,159.09,146.53Z"/><path class="cls-1" d="M100,96.67a10.76,10.76,0,0,0-10.75,10.74,2.63,2.63,0,0,0,5.26,0,5.5,5.5,0,0,1,5.49-5.49,2.63,2.63,0,1,0,0-5.25Z"/></svg>