<svg id="Layer_1" data-name="Layer 1" xmlns="http://www.w3.org/2000/svg" viewBox="0 0 200 200"><defs><style>.cls-1{fill:#c60104;}</style></defs><title>agriculture02-advertising</title><path class="cls-1" d="M148.77,101.76a10.66,10.66,0,0,0,0-15.06l-44-43.95A10.65,10.65,0,0,0,88.45,56.24l.23.34-.14.72A82.4,82.4,0,0,1,66,99.5L45.8,119.66a10.65,10.65,0,0,0,0,15.06l11,11a10.65,10.65,0,0,0,15.06,0l3.46-3.45,19.93,19.93a10.65,10.65,0,0,0,15.07-15.06l-9-8.95,3.45-3.46a10.62,10.62,0,0,0,0-15.06l-2.7-2.71,1-.69A82.12,82.12,0,0,1,134.21,103l.72-.14.34.23A10.68,10.68,0,0,0,148.77,101.76Zm-81,39.87a4.89,4.89,0,0,1-6.91,0l-11-11a4.88,4.88,0,0,1,0-6.91L69.81,103.8l17.9,17.9Zm38.46,9.58a4.89,4.89,0,0,1,0,6.9,4.89,4.89,0,0,1-6.91,0L79.39,138.18l6.9-6.91Zm-5.5-20.56-3.45,3.45-6.91-6.91,1-1c1.14-1.15,2.87-2.88,5.43-5.07l.71-.6,3.21,3.22A4.88,4.88,0,0,1,100.73,130.65Zm27.5-32.23a87.51,87.51,0,0,0-35.62,18.7l-.71.61L73.78,99.61l.6-.71A87.4,87.4,0,0,0,93.09,63.28l.43-1.69L129.92,98Zm9.55-.74-43.95-44a4.88,4.88,0,1,1,6.9-6.9l44,43.94a4.9,4.9,0,0,1,0,6.91,4.89,4.89,0,0,1-6.91,0Z"/><path class="cls-1" d="M71.85,119.66a2.89,2.89,0,0,0-2-.85,2.85,2.85,0,0,0-2,.85l-5.49,5.49a2.87,2.87,0,0,0,0,4.08,3,3,0,0,0,4.08,0l5.49-5.49A2.88,2.88,0,0,0,71.85,119.66Z"/><path class="cls-1" d="M123.36,34.68a2.89,2.89,0,0,0-2.88,2.89v7.77a2.89,2.89,0,0,0,5.77,0V37.57A2.9,2.9,0,0,0,123.36,34.68Z"/><path class="cls-1" d="M154.44,65.76h-7.77a2.89,2.89,0,0,0,0,5.77h7.77a2.89,2.89,0,1,0,0-5.77Z"/><path class="cls-1" d="M148.71,43.3a2.87,2.87,0,0,0-4.08,0l-7.77,7.77a2.88,2.88,0,0,0,4.08,4.08l7.77-7.77A2.88,2.88,0,0,0,148.71,43.3Z"/></svg>