<svg id="Layer_1" data-name="Layer 1" xmlns="http://www.w3.org/2000/svg" viewBox="0 0 500 500"><defs><style>.cls-1{fill:#606060;}.cls-2{fill:#d1d1d1;}.cls-3{fill:#fff;}.cls-4{fill:#f7d43f;}.cls-5{fill:#ffd9d9;}.cls-6{fill:#c60104;}</style></defs><title>whydronework01-verifiedpilots</title><path class="cls-1" d="M124.68,332.33c-1.58,2.14-3.11,4.31-4.55,6.5h0c-26.51,40.43-17.22,73.5,20.64,73.5H256c37.86,0,90.54-33.07,117.05-73.5h0c1.44-2.19,2.75-4.36,4-6.5Z"/><path class="cls-1" d="M256,419.83H140.77c-18.12,0-31.85-6.95-38.66-19.56-9-16.6-4.69-40.49,11.75-65.55,1.42-2.17,3-4.4,4.79-6.85l2.25-3H390l-6.44,11.23c-1.4,2.45-2.78,4.7-4.21,6.88C351.5,385.34,296.18,419.83,256,419.83Zm-127.47-80c-.75,1.07-1.46,2.1-2.12,3.11-13.12,20-17.27,38.77-11.1,50.2,5.22,9.66,16.73,11.69,25.47,11.69H256c33.53,0,81.3-29.27,107.24-65Z"/><rect class="cls-2" x="120.52" y="255.33" width="265" height="76" rx="12.73" ry="12.73"/><path class="cls-1" d="M372.79,338.83H133.25A20.25,20.25,0,0,1,113,318.6V268.06a20.25,20.25,0,0,1,20.23-20.23H372.79A20.26,20.26,0,0,1,393,268.06V318.6A20.26,20.26,0,0,1,372.79,338.83Zm-239.54-76a5.3,5.3,0,0,0-5.23,5.23V318.6a5.3,5.3,0,0,0,5.23,5.23H372.79A5.31,5.31,0,0,0,378,318.6V268.06a5.31,5.31,0,0,0-5.23-5.23Z"/><path class="cls-3" d="M351.11,292.83H139.92A48,48,0,0,1,92,244.93v-28.2a48,48,0,0,1,47.9-47.9s190.79,34.5,211.19,37S399,224.14,399,256.73,377.46,292.83,351.11,292.83Z"/><path class="cls-1" d="M351.11,300.33H139.92a55.46,55.46,0,0,1-55.4-55.4v-28.2a55.46,55.46,0,0,1,55.4-55.4h.67l.66.12c1.91.34,190.82,34.49,210.78,36.94a67.43,67.43,0,0,1,35.66,16c12.31,10.9,18.83,25.54,18.83,42.35C406.52,300.33,370.48,300.33,351.11,300.33Zm-211.83-124a40.45,40.45,0,0,0-39.76,40.4v28.2a40.44,40.44,0,0,0,40.4,40.4H351.11c27.94,0,40.41-4.13,40.41-28.6,0-13.28-8.64-39.45-41.32-43.46C330.24,210.83,153.77,179,139.28,176.33Z"/><path class="cls-4" d="M157.52,213.53a6.47,6.47,0,0,1-4.6-1.9l-12.2-12.2a6.5,6.5,0,1,1,9.19-9.2l7.61,7.61,7.6-7.61a6.51,6.51,0,1,1,9.2,9.2l-12.21,12.2A6.47,6.47,0,0,1,157.52,213.53Z"/><polygon class="cls-5" points="92.02 250.83 389.52 250.83 397.02 275.04 382.02 287.81 120.02 289.83 104.02 283.11 94.02 275.71 93.02 266.97 92.02 250.83"/><rect class="cls-6" x="92.02" y="244.83" width="299" height="8"/><path class="cls-1" d="M351.11,300.33H139.92a55.46,55.46,0,0,1-55.4-55.4v-28.2a55.46,55.46,0,0,1,55.4-55.4h.67l.66.12c1.91.34,190.82,34.49,210.78,36.94a67.43,67.43,0,0,1,35.66,16c12.31,10.9,18.83,25.54,18.83,42.35C406.52,300.33,370.48,300.33,351.11,300.33Zm-211.83-124a40.45,40.45,0,0,0-39.76,40.4v28.2a40.44,40.44,0,0,0,40.4,40.4H351.11c27.94,0,40.41-4.13,40.41-28.6,0-13.28-8.64-39.45-41.32-43.46C330.24,210.83,153.77,179,139.28,176.33Z"/><path class="cls-4" d="M157.52,239.33a6.47,6.47,0,0,1-4.6-1.9L134.44,219a6.5,6.5,0,0,1,9.19-9.19l13.89,13.88,13.88-13.88a6.5,6.5,0,0,1,9.19,9.19l-18.48,18.48A6.47,6.47,0,0,1,157.52,239.33Z"/><path class="cls-4" d="M340.21,156.82c11.3-1.95,10.76-3.89,12.46-16.75,2.48,13,2.19,14.94,13.63,17.76-11.3,1.94-10.89,3.88-12.6,16.74C351.22,161.55,351.66,159.64,340.21,156.82Z"/><path class="cls-4" d="M342.42,90.65c28.22-5.73,26.7-10.57,30-43C379.65,80.17,379,85,408,91.23c-28.23,5.73-27,10.57-30.37,43C370.41,101.71,371.36,96.87,342.42,90.65Z"/><path class="cls-4" d="M285.86,111.23c16.69-3.39,15.79-6.25,17.76-25.4,4.25,19.2,3.89,22.07,21,25.74-16.69,3.39-16,6.25-18,25.4C302.41,117.77,303,114.9,285.86,111.23Z"/></svg>