<svg id="Layer_1" data-name="Layer 1" xmlns="http://www.w3.org/2000/svg" viewBox="0 0 500 500"><defs><style>.cls-1{fill:#fff;}.cls-2{fill:#606060;}.cls-3{fill:#c60104;}.cls-4{fill:#ffd9d9;}.cls-5{fill:#d1d1d1;}.cls-6{fill:#f7d43f;}</style></defs><title>whydronework03-numerousquotes</title><path class="cls-1" d="M180.42,83.67h121A23.62,23.62,0,0,1,325,107.23v73.34a23.62,23.62,0,0,1-23.55,23.56H290.57v37.54L253,204.13h-72.6a23.63,23.63,0,0,1-23.56-23.56V107.23A23.63,23.63,0,0,1,180.42,83.67Z"/><path class="cls-2" d="M298.07,259.78l-48.15-48.15h-69.5a31.09,31.09,0,0,1-31.06-31.06V107.23a31.09,31.09,0,0,1,31.06-31.06h121a31.09,31.09,0,0,1,31.05,31.06v73.34a31.09,31.09,0,0,1-31.05,31.06h-3.36ZM180.42,91.17a16.08,16.08,0,0,0-16.06,16.06v73.34a16.09,16.09,0,0,0,16.06,16.06h75.71l26.94,26.93V196.63h18.36a16.08,16.08,0,0,0,16.05-16.06V107.23a16.07,16.07,0,0,0-16.05-16.06Z"/><path class="cls-3" d="M238.63,170c-12.33-.43-19-3.26-24.84-8.14l7.79-11.9c3.86,4.7,9.6,7,17,7.36V149c-10-1.8-23.21-4.2-23.21-17.48,0-9.85,8.22-17,23.21-17.9v-6.94h5.57v6.85c12.84.43,18.76,4.28,24.24,9.26L260,133.57c-4.11-5-9.16-7-15.84-7.37v8.91c10,1.8,23.38,4.45,23.38,18.07,0,10.37-10.19,16.27-23.38,16.79v6.94h-5.57Zm0-43.43c-3.43.6-5.4,2-5.4,3.77s2.15,2.83,5.4,3.69ZM249.85,154c0-2-2.31-3.08-5.65-3.86v7.12C248.05,156.78,249.85,155.58,249.85,154Z"/><path class="cls-4" d="M202.13,241.67H121.71a15.7,15.7,0,0,0-15.65,15.66v48.74a15.69,15.69,0,0,0,15.65,15.65h7.22v24.95l24.95-24.95h48.25a15.7,15.7,0,0,0,15.66-15.65V257.33A15.71,15.71,0,0,0,202.13,241.67Z"/><path class="cls-2" d="M123.43,360V327.22h-1.72a21.18,21.18,0,0,1-21.15-21.15V257.33a21.18,21.18,0,0,1,21.15-21.16h80.42a21.18,21.18,0,0,1,21.16,21.16v48.74a21.18,21.18,0,0,1-21.16,21.15h-46Zm-1.72-112.78a10.17,10.17,0,0,0-10.15,10.16v48.74a10.16,10.16,0,0,0,10.15,10.15h12.72v17.17l17.17-17.17h50.53a10.17,10.17,0,0,0,10.16-10.15V257.33a10.17,10.17,0,0,0-10.16-10.16Z"/><path class="cls-2" d="M160.06,299.36c-8.19-.29-12.63-2.17-16.5-5.41l5.18-7.91c2.56,3.13,6.37,4.66,11.32,4.89v-5.52c-6.65-1.19-15.42-2.79-15.42-11.61,0-6.55,5.46-11.27,15.42-11.9v-4.61h3.7v4.55c8.54.29,12.47,2.85,16.11,6.15l-5.58,7.17c-2.73-3.3-6.09-4.66-10.53-4.89v5.92c6.66,1.19,15.54,3,15.54,12,0,6.89-6.77,10.82-15.54,11.16V304h-3.7Zm0-28.86c-2.27.4-3.58,1.31-3.58,2.5s1.42,1.88,3.58,2.45Zm7.46,18.21c0-1.31-1.54-2-3.76-2.56v4.73C166.32,290.59,167.52,289.79,167.52,288.71Z"/><path class="cls-5" d="M264.45,279.86H364.5A19.53,19.53,0,0,1,384,299.33V360a19.53,19.53,0,0,1-19.47,19.48h-9v31l-31-31h-60A19.54,19.54,0,0,1,245,360V299.33A19.53,19.53,0,0,1,264.45,279.86Z"/><path class="cls-2" d="M362.52,427.39l-40.94-40.94H264.45A26.51,26.51,0,0,1,238,360V299.33a26.5,26.5,0,0,1,26.48-26.47H364.5A26.49,26.49,0,0,1,391,299.33V360a26.5,26.5,0,0,1-26.47,26.48h-2ZM264.45,286.86A12.49,12.49,0,0,0,252,299.33V360a12.5,12.5,0,0,0,12.48,12.48h62.93l21.14,21.14V372.45h16A12.49,12.49,0,0,0,377,360V299.33a12.48,12.48,0,0,0-12.47-12.47Z"/><path class="cls-3" d="M312.68,351.62c-10.2-.35-15.72-2.69-20.54-6.73l6.45-9.84c3.18,3.89,7.93,5.81,14.09,6.09v-6.87c-8.28-1.48-19.19-3.47-19.19-14.45,0-8.14,6.8-14,19.19-14.79v-5.74h4.6V305c10.62.36,15.51,3.54,20,7.65l-6.94,8.92c-3.4-4.1-7.57-5.8-13.1-6.09v7.37c8.29,1.49,19.33,3.68,19.33,14.94,0,8.57-8.42,13.46-19.33,13.88v5.74h-4.6Zm0-35.9c-2.83.49-4.46,1.63-4.46,3.11s1.77,2.34,4.46,3.05ZM322,338.38c0-1.63-1.92-2.55-4.68-3.19v5.88C320.47,340.71,322,339.72,322,338.38Z"/><path class="cls-6" d="M355.17,180.66c11.3-1.94,10.75-3.89,12.46-16.75,2.48,13,2.18,14.94,13.63,17.76-11.31,2-10.89,3.89-12.6,16.75C366.18,185.4,366.61,183.48,355.17,180.66Z"/><path class="cls-6" d="M368.37,112.49c28.23-5.73,26.71-10.57,30-43,7.19,32.5,6.59,37.35,35.53,43.56-28.23,5.73-27.05,10.57-30.38,43C396.37,123.55,397.31,118.71,368.37,112.49Z"/></svg>