<svg id="Layer_1" data-name="Layer 1" xmlns="http://www.w3.org/2000/svg" viewBox="0 0 500 500"><defs><style>.cls-1{fill:#ffd9d9;}.cls-2{fill:#606060;}.cls-3{fill:#d1d1d1;}.cls-4{fill:#fff;}.cls-5{fill:#c60104;}</style></defs><title>whydronework04-licensed</title><path class="cls-1" d="M450.58,290.35l20.74-21.91a8.18,8.18,0,0,0-6.86-3.83l-58.75-.31a8.16,8.16,0,0,0-8.21,8.11l-.2,36.86a8.16,8.16,0,0,0,8.12,8.2l58.75.32a8.15,8.15,0,0,0,7.75-5.49Z"/><path class="cls-2" d="M464.22,322.79h-.08l-58.75-.32a13.16,13.16,0,0,1-13.09-13.23l.2-36.85a13.16,13.16,0,0,1,13.16-13.09h.07l58.75.31a13.14,13.14,0,0,1,11.07,6.16l2.07,3.28L457.51,290.3,477.65,311l-1,2.91A13.13,13.13,0,0,1,464.22,322.79ZM405.66,269.3a3.13,3.13,0,0,0-2.22.91,3.17,3.17,0,0,0-.94,2.23l-.2,36.86a3.15,3.15,0,0,0,.92,2.24,3.1,3.1,0,0,0,2.23.93l58.75.32a2.4,2.4,0,0,0,1.05-.18l-21.59-22.22,19.66-20.78-57.64-.31Z"/><path class="cls-1" d="M49.42,291.74,28.68,313.65a8.15,8.15,0,0,0,6.86,3.82l58.75.32a8.17,8.17,0,0,0,8.21-8.12l.2-36.85a8.17,8.17,0,0,0-8.12-8.21l-58.75-.31a8.15,8.15,0,0,0-7.75,5.49Z"/><path class="cls-2" d="M94.34,322.79h-.07l-58.75-.32a13.11,13.11,0,0,1-11.07-6.16L22.38,313l20.11-21.24L22.35,271.06l1-2.91a13.14,13.14,0,0,1,12.42-8.85h.08l58.75.31a13.19,13.19,0,0,1,13.09,13.23l-.2,36.86A13.18,13.18,0,0,1,94.34,322.79ZM36.68,312.48l57.64.31h0a3.17,3.17,0,0,0,3.16-3.15l.2-36.85a3.18,3.18,0,0,0-3.15-3.18L35.8,269.3a4.34,4.34,0,0,0-1,.17l21.59,22.22Z"/><rect class="cls-1" x="57.92" y="232.3" width="384.16" height="63" rx="10.85" ry="10.85"/><path class="cls-2" d="M431.23,300.3H68.77a15.87,15.87,0,0,1-15.85-15.85v-41.3A15.87,15.87,0,0,1,68.77,227.3H431.23a15.87,15.87,0,0,1,15.85,15.85v41.3A15.87,15.87,0,0,1,431.23,300.3Zm-362.46-63a5.85,5.85,0,0,0-5.85,5.85v41.3a5.86,5.86,0,0,0,5.85,5.85H431.23a5.86,5.86,0,0,0,5.85-5.85v-41.3a5.85,5.85,0,0,0-5.85-5.85Z"/><path class="cls-3" d="M250,79.3s-39.24,47.09-129.5,47.09V238.73c0,58.66,25.48,115.23,71.6,151.48A173.41,173.41,0,0,0,250,420.7a173.51,173.51,0,0,0,57.9-30.49C354,354,379.5,297.39,379.5,238.73V126.39C289.24,126.39,250,79.3,250,79.3Z"/><path class="cls-2" d="M250,428.53l-2.13-.64c-21.29-6.31-41.61-17-60.4-31.78a193.16,193.16,0,0,1-55.26-70.06A207.76,207.76,0,0,1,113,238.73V118.89h7.5c85.75,0,123.37-43.95,123.74-44.4L250,67.58l5.75,6.9c.27.32,9.8,11.34,29.52,22.21,18.38,10.12,49.64,22.2,94.23,22.2H387V238.73a207.76,207.76,0,0,1-19.21,87.32,193.16,193.16,0,0,1-55.26,70.06c-18.8,14.78-39.12,25.47-60.4,31.78ZM128,133.78v105a192.81,192.81,0,0,0,17.8,81,178.26,178.26,0,0,0,50.94,64.61A166.72,166.72,0,0,0,250,412.86a166.93,166.93,0,0,0,53.26-28.54,178.26,178.26,0,0,0,50.94-64.61,192.81,192.81,0,0,0,17.8-81V133.78c-69.53-2-108.25-31-122-43.78C236.25,102.79,197.53,131.81,128,133.78Z"/><path class="cls-4" d="M250,383.39a143,143,0,0,1-36.07-20.94c-36.39-28.6-58.11-74.85-58.11-123.72V159.51c43.5-5.55,74.4-20.68,94.18-34.12,19.78,13.44,50.68,28.57,94.18,34.12v79.22c0,48.87-21.72,95.12-58.1,123.72A143.21,143.21,0,0,1,250,383.39Z"/><path class="cls-2" d="M250,388.76l-1.83-.72a148,148,0,0,1-37.33-21.66c-37.58-29.54-60-77.26-60-127.65V155.11l4.37-.56c43.74-5.58,74.18-21.19,92-33.3l2.81-1.91,2.81,1.91c17.82,12.11,48.26,27.72,92,33.3l4.37.56v83.62c0,50.39-22.43,98.11-60,127.65A148.24,148.24,0,0,1,251.83,388ZM160.82,163.88v74.85c0,47.35,21,92.13,56.2,119.79A139.09,139.09,0,0,0,250,378a139.54,139.54,0,0,0,33-19.48c35.18-27.66,56.19-72.44,56.19-119.79V163.88c-41.21-6-70.79-20.49-89.18-32.49C231.61,143.39,202,157.91,160.82,163.88Z"/><path class="cls-5" d="M306.65,207.19a4.62,4.62,0,0,0-6.52.44l-61.5,70.27-33.51-33.5a4.62,4.62,0,0,0-6.54,6.54l37,37a4.63,4.63,0,0,0,3.27,1.36H239a4.65,4.65,0,0,0,3.32-1.58l64.75-74A4.63,4.63,0,0,0,306.65,207.19Z"/></svg>